Golos Text-Medium.ufo
<glyph name="exclam" format="2">
	<advance width="310" height="0"/>
	<unicode hex="0021"/>
	<outline>
		<contour>
			<point x="100" y="225" type="line"/>
			<point x="210" y="225" type="line" name="iv01"/>
			<point x="210" y="700" type="line"/>
			<point x="100" y="700" type="line" name="sh01"/>
		</contour>
		<contour>
			<point x="155" y="-11" type="curve" smooth="yes"/>
			<point x="200" y="-11"/>
			<point x="235" y="24" name="sv01"/>
			<point x="235" y="69" type="curve" smooth="yes"/>
			<point x="235" y="116" name="ih01"/>
			<point x="200" y="149" name="ih02"/>
			<point x="155" y="149" type="curve" smooth="yes" name="ih03"/>
			<point x="110" y="149"/>
			<point x="75" y="116"/>
			<point x="75" y="69" type="curve" smooth="yes"/>
			<point x="75" y="24"/>
			<point x="110" y="-11"/>
		</contour>
	</outline>
</glyph>
<glyph name="numbersign" format="2">
	<advance width="680" height="0"/>
	<unicode hex="0023"/>
	<outline>
		<contour>
			<point x="100" y="0" type="line"/>
			<point x="202" y="0" type="line" name="ab02"/>
			<point x="237" y="192" type="line"/>
			<point x="383" y="192" type="line" name="sv08"/>
			<point x="348" y="0" type="line"/>
			<point x="450" y="0" type="line" name="ab01"/>
			<point x="485" y="192" type="line"/>
			<point x="586" y="192" type="line" name="sv07"/>
			<point x="586" y="278" type="line"/>
			<point x="501" y="278" type="line" name="sv06"/>
			<point x="528" y="422" type="line"/>
			<point x="625" y="422" type="line" name="sv05"/>
			<point x="625" y="508" type="line"/>
			<point x="544" y="508" type="line" name="sv04"/>
			<point x="580" y="700" type="line"/>
			<point x="478" y="700" type="line" name="at02"/>
			<point x="442" y="508" type="line"/>
			<point x="296" y="508" type="line" name="sv03"/>
			<point x="332" y="700" type="line" name="ih01"/>
			<point x="230" y="700" type="line" name="at01"/>
			<point x="194" y="508" type="line" name="iv02"/>
			<point x="94" y="508" type="line"/>
			<point x="94" y="422" type="line"/>
			<point x="178" y="422" type="line" name="sv02"/>
			<point x="151" y="278" type="line" name="iv01"/>
			<point x="55" y="278" type="line"/>
			<point x="55" y="192" type="line"/>
			<point x="135" y="192" type="line" name="sv01"/>
		</contour>
		<contour>
			<point x="253" y="278" type="line"/>
			<point x="280" y="422" type="line"/>
			<point x="426" y="422" type="line" name="sv09"/>
			<point x="399" y="278" type="line" name="sh01"/>
		</contour>
	</outline>
</glyph>
<glyph name="dollar" format="2">
	<advance width="650" height="0"/>
	<unicode hex="0024"/>
	<outline>
		<contour>
			<point x="275" y="-120" type="line"/>
			<point x="375" y="-120" type="line"/>
			<point x="375" y="-8" type="line"/>
			<point x="525" y="5"/>
			<point x="600" y="86"/>
			<point x="600" y="190" type="curve" smooth="yes"/>
			<point x="600" y="321"/>
			<point x="517" y="372"/>
			<point x="353" y="407" type="curve" smooth="yes"/>
			<point x="242" y="430"/>
			<point x="190" y="456"/>
			<point x="190" y="520" type="curve" smooth="yes"/>
			<point x="190" y="567"/>
			<point x="229" y="605"/>
			<point x="325" y="605" type="curve" smooth="yes"/>
			<point x="408" y="605"/>
			<point x="449" y="571"/>
			<point x="460" y="520" type="curve"/>
			<point x="580" y="520" type="line"/>
			<point x="571" y="619"/>
			<point x="504" y="693"/>
			<point x="375" y="708" type="curve"/>
			<point x="375" y="800" type="line"/>
			<point x="275" y="800" type="line"/>
			<point x="275" y="708" type="line"/>
			<point x="140" y="692"/>
			<point x="70" y="613"/>
			<point x="70" y="520" type="curve" smooth="yes"/>
			<point x="70" y="392"/>
			<point x="148" y="341"/>
			<point x="293" y="309" type="curve" smooth="yes"/>
			<point x="421" y="282"/>
			<point x="480" y="255"/>
			<point x="480" y="190" type="curve" smooth="yes"/>
			<point x="480" y="137"/>
			<point x="437" y="95"/>
			<point x="325" y="95" type="curve" smooth="yes"/>
			<point x="217" y="95"/>
			<point x="180" y="135"/>
			<point x="170" y="190" type="curve"/>
			<point x="50" y="190" type="line"/>
			<point x="59" y="85"/>
			<point x="128" y="7"/>
			<point x="275" y="-8" type="curve"/>
		</contour>
	</outline>
</glyph>
<glyph name="ampersand" format="2">
	<advance width="685" height="0"/>
	<unicode hex="0026"/>
	<outline>
		<contour>
			<point x="290" y="-11" type="curve" smooth="yes"/>
			<point x="366" y="-11"/>
			<point x="434" y="13"/>
			<point x="489" y="57" type="curve"/>
			<point x="541" y="0" type="line" name="hr01"/>
			<point x="675" y="0" type="line"/>
			<point x="556" y="133" type="line"/>
			<point x="591" y="189"/>
			<point x="610" y="252"/>
			<point x="610" y="335" type="curve"/>
			<point x="498" y="335" type="line"/>
			<point x="498" y="290"/>
			<point x="491" y="256"/>
			<point x="478" y="221" type="curve"/>
			<point x="331" y="386" type="line"/>
			<point x="420" y="458"/>
			<point x="450" y="504"/>
			<point x="450" y="560" type="curve" smooth="yes"/>
			<point x="450" y="645"/>
			<point x="384" y="711"/>
			<point x="280" y="711" type="curve" smooth="yes"/>
			<point x="176" y="711"/>
			<point x="110" y="645"/>
			<point x="110" y="560" type="curve" smooth="yes"/>
			<point x="110" y="508"/>
			<point x="120" y="468"/>
			<point x="179" y="399" type="curve"/>
			<point x="86" y="330"/>
			<point x="55" y="271" name="hr02"/>
			<point x="55" y="190" type="curve" smooth="yes" name="hr01"/>
			<point x="55" y="73"/>
			<point x="148" y="-11"/>
		</contour>
		<contour>
			<point x="290" y="85" type="curve" smooth="yes"/>
			<point x="213" y="85"/>
			<point x="167" y="130"/>
			<point x="167" y="190" type="curve" smooth="yes"/>
			<point x="167" y="240"/>
			<point x="180" y="267"/>
			<point x="248" y="322" type="curve"/>
			<point x="420" y="133" type="line"/>
			<point x="384" y="101"/>
			<point x="341" y="85"/>
		</contour>
		<contour>
			<point x="220" y="560" type="curve" smooth="yes"/>
			<point x="220" y="591"/>
			<point x="244" y="615" name="hr03"/>
			<point x="280" y="615" type="curve" smooth="yes"/>
			<point x="316" y="615"/>
			<point x="340" y="591"/>
			<point x="340" y="560" type="curve" smooth="yes"/>
			<point x="340" y="535"/>
			<point x="336" y="513"/>
			<point x="266" y="462" type="curve"/>
			<point x="226" y="510"/>
			<point x="220" y="528"/>
		</contour>
	</outline>
</glyph>
<glyph name="parenleft" format="2">
	<advance width="380" height="0"/>
	<unicode hex="0028"/>
	<outline>
		<contour>
			<point x="80" y="240" type="line" smooth="yes"/>
			<point x="80" y="104"/>
			<point x="120" y="-5"/>
			<point x="163" y="-81" type="curve"/>
			<point x="187" y="-126"/>
			<point x="215" y="-165"/>
			<point x="246" y="-200" type="curve"/>
			<point x="370" y="-200" type="line"/>
			<point x="336" y="-165"/>
			<point x="306" y="-126"/>
			<point x="279" y="-81" type="curve" smooth="yes"/>
			<point x="233" y="-5"/>
			<point x="188" y="105"/>
			<point x="188" y="240" type="curve" smooth="yes"/>
			<point x="188" y="260" type="line" smooth="yes"/>
			<point x="188" y="396"/>
			<point x="233" y="503"/>
			<point x="279" y="581" type="curve" smooth="yes"/>
			<point x="306" y="626"/>
			<point x="336" y="665"/>
			<point x="370" y="700" type="curve"/>
			<point x="250" y="700" type="line"/>
			<point x="218" y="665"/>
			<point x="190" y="626"/>
			<point x="165" y="581" type="curve" smooth="yes"/>
			<point x="122" y="503"/>
			<point x="80" y="396"/>
			<point x="80" y="260" type="curve" smooth="yes"/>
		</contour>
	</outline>
</glyph>
<glyph name="parenright" format="2">
	<advance width="380" height="0"/>
	<unicode hex="0029"/>
	<outline>
		<contour>
			<point x="300" y="260" type="line" smooth="yes"/>
			<point x="300" y="396"/>
			<point x="260" y="505"/>
			<point x="217" y="581" type="curve"/>
			<point x="193" y="626"/>
			<point x="165" y="665"/>
			<point x="134" y="700" type="curve"/>
			<point x="10" y="700" type="line"/>
			<point x="44" y="665"/>
			<point x="74" y="626"/>
			<point x="101" y="581" type="curve" smooth="yes"/>
			<point x="147" y="505"/>
			<point x="192" y="395"/>
			<point x="192" y="260" type="curve" smooth="yes"/>
			<point x="192" y="240" type="line" smooth="yes"/>
			<point x="192" y="104"/>
			<point x="147" y="-3"/>
			<point x="101" y="-81" type="curve" smooth="yes"/>
			<point x="74" y="-126"/>
			<point x="44" y="-165"/>
			<point x="10" y="-200" type="curve"/>
			<point x="130" y="-200" type="line"/>
			<point x="162" y="-165"/>
			<point x="190" y="-126"/>
			<point x="215" y="-81" type="curve" smooth="yes"/>
			<point x="258" y="-3"/>
			<point x="300" y="104"/>
			<point x="300" y="240" type="curve" smooth="yes"/>
		</contour>
	</outline>
</glyph>
<glyph name="plus" format="2">
	<advance width="560" height="0"/>
	<unicode hex="002B"/>
	<outline>
		<contour>
			<point x="225" y="125" type="line" name="sv04"/>
			<point x="335" y="125" type="line"/>
			<point x="335" y="308" type="line"/>
			<point x="515" y="308" type="line" name="sv03"/>
			<point x="515" y="412" type="line"/>
			<point x="335" y="412" type="line" name="sv02"/>
			<point x="335" y="595" type="line"/>
			<point x="225" y="595" type="line" name="sv01"/>
			<point x="225" y="412" type="line" name="av01"/>
			<point x="45" y="412" type="line"/>
			<point x="45" y="308" type="line"/>
			<point x="225" y="308" type="line" name="ih01"/>
		</contour>
	</outline>
</glyph>
<glyph name="hyphen" format="2">
	<advance width="380" height="0"/>
	<unicode hex="002D"/>
	<outline>
		<contour>
			<point x="35" y="228" type="line"/>
			<point x="345" y="228" type="line" name="sv01"/>
			<point x="345" y="332" type="line" name="av01"/>
			<point x="35" y="332" type="line" name="ih01"/>
		</contour>
	</outline>
</glyph>
<glyph name="period" format="2">
	<advance width="310" height="0"/>
	<unicode hex="002E"/>
	<outline>
		<contour>
			<point x="155" y="-11" type="curve" smooth="yes"/>
			<point x="200" y="-11"/>
			<point x="235" y="24" name="sv01"/>
			<point x="235" y="69" type="curve" smooth="yes"/>
			<point x="235" y="116" name="ih01"/>
			<point x="200" y="149" name="ih02"/>
			<point x="155" y="149" type="curve" smooth="yes" name="ih03"/>
			<point x="110" y="149"/>
			<point x="75" y="116"/>
			<point x="75" y="69" type="curve" smooth="yes"/>
			<point x="75" y="24"/>
			<point x="110" y="-11"/>
		</contour>
	</outline>
</glyph>
<glyph name="slash" format="2">
	<advance width="480" height="0"/>
	<unicode hex="002F"/>
	<outline>
		<contour>
			<point x="30" y="-200" type="line"/>
			<point x="132" y="-200" type="line" name="ab01"/>
			<point x="450" y="700" type="line"/>
			<point x="348" y="700" type="line" name="ih01"/>
		</contour>
	</outline>
</glyph>
<glyph name="zero" format="2">
	<advance width="630" height="0"/>
	<unicode hex="0030"/>
	<outline>
		<contour>
			<point x="315" y="-11" type="curve" smooth="yes"/>
			<point x="462" y="-11"/>
			<point x="575" y="70"/>
			<point x="575" y="350" type="curve" smooth="yes" name="at01"/>
			<point x="575" y="370" type="line" smooth="yes"/>
			<point x="575" y="629"/>
			<point x="462" y="711" name="ih01"/>
			<point x="315" y="711" type="curve" smooth="yes"/>
			<point x="168" y="711"/>
			<point x="55" y="629"/>
			<point x="55" y="370" type="curve" smooth="yes" name="sv01"/>
			<point x="55" y="350" type="line" smooth="yes"/>
			<point x="55" y="70"/>
			<point x="168" y="-11" name="sh01"/>
		</contour>
		<contour>
			<point x="315" y="93" type="curve" smooth="yes" name="ih03"/>
			<point x="241" y="93"/>
			<point x="175" y="142"/>
			<point x="175" y="350" type="curve" smooth="yes"/>
			<point x="175" y="370" type="line" smooth="yes"/>
			<point x="175" y="558"/>
			<point x="241" y="607"/>
			<point x="315" y="607" type="curve" smooth="yes"/>
			<point x="389" y="607"/>
			<point x="455" y="558"/>
			<point x="455" y="370" type="curve" smooth="yes"/>
			<point x="455" y="350" type="line" smooth="yes"/>
			<point x="455" y="142"/>
			<point x="389" y="93"/>
		</contour>
	</outline>
</glyph>
<glyph name="two" format="2">
	<advance width="590" height="0"/>
	<unicode hex="0032"/>
	<outline>
		<contour>
			<point x="35" y="0" type="line"/>
			<point x="545" y="0" type="line" name="ab01"/>
			<point x="545" y="104" type="line"/>
			<point x="202" y="104" type="line" name="sv01"/>
			<point x="380" y="249" type="line" smooth="yes" name="iv02"/>
			<point x="471" y="321"/>
			<point x="535" y="395" name="at01"/>
			<point x="535" y="490" type="curve" smooth="yes" name="iv01"/>
			<point x="535" y="618"/>
			<point x="452" y="711" name="sv03"/>
			<point x="300" y="711" type="curve" smooth="yes"/>
			<point x="144" y="711" name="ih01"/>
			<point x="45" y="613" name="sv02"/>
			<point x="45" y="465" type="curve" name="ih02"/>
			<point x="165" y="465" type="line" name="ih03"/>
			<point x="165" y="560"/>
			<point x="215" y="605" name="hr01"/>
			<point x="300" y="605" type="curve" smooth="yes" name="hr01"/>
			<point x="372" y="605"/>
			<point x="415" y="558"/>
			<point x="415" y="490" type="curve" smooth="yes"/>
			<point x="415" y="433"/>
			<point x="381" y="395"/>
			<point x="296" y="320" type="curve" smooth="yes"/>
			<point x="35" y="94" type="line"/>
		</contour>
	</outline>
</glyph>
<glyph name="three" format="2">
	<advance width="595" height="0"/>
	<unicode hex="0033"/>
	<outline>
		<contour>
			<point x="290" y="-11" type="curve" smooth="yes"/>
			<point x="454" y="-11"/>
			<point x="540" y="77" name="iv04"/>
			<point x="540" y="190" type="curve" smooth="yes"/>
			<point x="540" y="286" name="at01"/>
			<point x="491" y="341" name="iv03"/>
			<point x="410" y="365" type="curve"/>
			<point x="485" y="388" name="sv03"/>
			<point x="530" y="443"/>
			<point x="530" y="523" type="curve" smooth="yes" name="iv02"/>
			<point x="530" y="626"/>
			<point x="447" y="711"/>
			<point x="290" y="711" type="curve" smooth="yes" name="sv02"/>
			<point x="133" y="711"/>
			<point x="49" y="631" name="sv01"/>
			<point x="49" y="510" type="curve"/>
			<point x="169" y="510" type="line" name="iv01"/>
			<point x="169" y="570" name="ih01"/>
			<point x="207" y="605" name="ih02"/>
			<point x="290" y="605" type="curve" smooth="yes" name="ih03"/>
			<point x="374" y="605"/>
			<point x="410" y="573"/>
			<point x="410" y="509" type="curve" smooth="yes"/>
			<point x="410" y="445"/>
			<point x="370" y="410"/>
			<point x="290" y="410" type="curve" smooth="yes"/>
			<point x="220" y="410" type="line"/>
			<point x="220" y="310" type="line"/>
			<point x="290" y="310" type="line" smooth="yes"/>
			<point x="383" y="310"/>
			<point x="420" y="268"/>
			<point x="420" y="200" type="curve" smooth="yes"/>
			<point x="420" y="133"/>
			<point x="377" y="95" name="hr02"/>
			<point x="290" y="95" type="curve" smooth="yes" name="hr01"/>
			<point x="201" y="95"/>
			<point x="160" y="133"/>
			<point x="160" y="200" type="curve" name="hr02"/>
			<point x="40" y="200" type="line"/>
			<point x="40" y="76"/>
			<point x="128" y="-11"/>
		</contour>
	</outline>
</glyph>
<glyph name="four" format="2">
	<advance width="615" height="0"/>
	<unicode hex="0034"/>
	<outline>
		<contour>
			<point x="365" y="0" type="line"/>
			<point x="485" y="0" type="line" name="ab01"/>
			<point x="485" y="158" type="line"/>
			<point x="570" y="158" type="line" name="sv04"/>
			<point x="570" y="262" type="line"/>
			<point x="485" y="262" type="line" name="sv03"/>
			<point x="485" y="700" type="line"/>
			<point x="360" y="700" type="line" name="ih01"/>
			<point x="20" y="247" type="line" name="sv02"/>
			<point x="20" y="158" type="line"/>
			<point x="365" y="158" type="line" name="sv01"/>
		</contour>
		<contour>
			<point x="140" y="262" type="line"/>
			<point x="365" y="562" type="line" name="iv01"/>
			<point x="365" y="262" type="line" name="sh01"/>
		</contour>
	</outline>
</glyph>
<glyph name="five" format="2">
	<advance width="590" height="0"/>
	<unicode hex="0035"/>
	<outline>
		<contour>
			<point x="295" y="-11" type="curve" smooth="yes"/>
			<point x="444" y="-11"/>
			<point x="545" y="85" name="iv02"/>
			<point x="545" y="237" type="curve" smooth="yes" name="iv04"/>
			<point x="545" y="396"/>
			<point x="456" y="482" name="sv03"/>
			<point x="320" y="482" type="curve" smooth="yes"/>
			<point x="257" y="482" name="at01"/>
			<point x="219" y="462"/>
			<point x="188" y="433" type="curve" name="iv03"/>
			<point x="188" y="596" type="line" name="sv02"/>
			<point x="505" y="596" type="line"/>
			<point x="505" y="700" type="line" name="sv01"/>
			<point x="70" y="700" type="line"/>
			<point x="70" y="320" type="line" name="iv01"/>
			<point x="178" y="320" type="line" name="ih01"/>
			<point x="201" y="355" name="ih02"/>
			<point x="238" y="376" name="ih03"/>
			<point x="295" y="376" type="curve" smooth="yes"/>
			<point x="359" y="376"/>
			<point x="425" y="339"/>
			<point x="425" y="236" type="curve" smooth="yes"/>
			<point x="425" y="144"/>
			<point x="376" y="95"/>
			<point x="295" y="95" type="curve" smooth="yes"/>
			<point x="223" y="95"/>
			<point x="182" y="132"/>
			<point x="175" y="180" type="curve" name="hr01"/>
			<point x="55" y="180" type="line"/>
			<point x="60" y="83"/>
			<point x="130" y="-11"/>
		</contour>
	</outline>
</glyph>
<glyph name="seven" format="2">
	<advance width="535" height="0"/>
	<unicode hex="0037"/>
	<outline>
		<contour>
			<point x="130" y="0" type="line"/>
			<point x="260" y="0" type="line" name="ih01"/>
			<point x="500" y="606" type="line" name="sv02"/>
			<point x="500" y="700" type="line"/>
			<point x="20" y="700" type="line" name="at01"/>
			<point x="20" y="596" type="line"/>
			<point x="374" y="596" type="line" name="sv01"/>
		</contour>
	</outline>
</glyph>
<glyph name="eight" format="2">
	<advance width="620" height="0"/>
	<unicode hex="0038"/>
	<outline>
		<contour>
			<point x="310" y="-11" type="curve" smooth="yes"/>
			<point x="478" y="-11"/>
			<point x="570" y="71" name="sv03"/>
			<point x="570" y="188" type="curve" smooth="yes"/>
			<point x="570" y="276" name="at01"/>
			<point x="521" y="330"/>
			<point x="424" y="361" type="curve" name="sv02"/>
			<point x="496" y="388"/>
			<point x="550" y="443" name="ih01"/>
			<point x="550" y="523" type="curve" smooth="yes"/>
			<point x="550" y="631"/>
			<point x="466" y="711" name="iv01"/>
			<point x="310" y="711" type="curve" smooth="yes"/>
			<point x="156" y="711" name="sh01"/>
			<point x="70" y="631"/>
			<point x="70" y="523" type="curve" smooth="yes"/>
			<point x="70" y="443" name="sv01"/>
			<point x="126" y="385"/>
			<point x="197" y="361" type="curve" name="sh02"/>
			<point x="101" y="334" name="ih02"/>
			<point x="50" y="268" name="ih03"/>
			<point x="50" y="188" type="curve" smooth="yes" name="hr01"/>
			<point x="50" y="71"/>
			<point x="142" y="-11"/>
		</contour>
		<contour>
			<point x="310" y="95" type="curve" smooth="yes"/>
			<point x="218" y="95"/>
			<point x="170" y="137"/>
			<point x="170" y="197" type="curve" smooth="yes"/>
			<point x="170" y="265"/>
			<point x="230" y="306"/>
			<point x="310" y="317" type="curve"/>
			<point x="390" y="306"/>
			<point x="450" y="265"/>
			<point x="450" y="197" type="curve" smooth="yes"/>
			<point x="450" y="137"/>
			<point x="405" y="95"/>
		</contour>
		<contour>
			<point x="310" y="403" type="curve"/>
			<point x="241" y="414"/>
			<point x="190" y="446"/>
			<point x="190" y="514" type="curve" smooth="yes"/>
			<point x="190" y="575" name="hr03"/>
			<point x="237" y="605"/>
			<point x="310" y="605" type="curve" smooth="yes"/>
			<point x="383" y="605"/>
			<point x="430" y="574"/>
			<point x="430" y="514" type="curve" smooth="yes"/>
			<point x="430" y="446"/>
			<point x="381" y="414"/>
		</contour>
	</outline>
</glyph>
<glyph name="nine" format="2">
	<advance width="615" height="0"/>
	<unicode hex="0039"/>
	<outline>
		<contour>
			<point x="290" y="-11" type="curve" smooth="yes"/>
			<point x="441" y="-11"/>
			<point x="560" y="93"/>
			<point x="560" y="365" type="curve" smooth="yes"/>
			<point x="560" y="385" type="line" smooth="yes"/>
			<point x="560" y="613"/>
			<point x="462" y="711"/>
			<point x="295" y="711" type="curve" smooth="yes"/>
			<point x="155" y="711"/>
			<point x="50" y="616"/>
			<point x="50" y="477" type="curve" smooth="yes"/>
			<point x="50" y="467" type="line" smooth="yes"/>
			<point x="50" y="326"/>
			<point x="134" y="244"/>
			<point x="275" y="244" type="curve" smooth="yes"/>
			<point x="339" y="244"/>
			<point x="413" y="266"/>
			<point x="448" y="325" type="curve" name="hr01"/>
			<point x="445" y="144"/>
			<point x="374" y="95"/>
			<point x="290" y="95" type="curve" smooth="yes"/>
			<point x="234" y="95"/>
			<point x="200" y="112"/>
			<point x="185" y="155" type="curve" name="hr02"/>
			<point x="65" y="155" type="line"/>
			<point x="85" y="39"/>
			<point x="167" y="-11"/>
		</contour>
		<contour>
			<point x="303" y="340" type="curve" smooth="yes"/>
			<point x="223" y="340"/>
			<point x="170" y="392"/>
			<point x="170" y="467" type="curve" smooth="yes"/>
			<point x="170" y="477" type="line" smooth="yes"/>
			<point x="170" y="553"/>
			<point x="223" y="605"/>
			<point x="303" y="605" type="curve" smooth="yes"/>
			<point x="380" y="605"/>
			<point x="436" y="550"/>
			<point x="436" y="477" type="curve" smooth="yes"/>
			<point x="436" y="467" type="line" smooth="yes"/>
			<point x="436" y="392"/>
			<point x="383" y="340"/>
		</contour>
	</outline>
</glyph>
<glyph name="equal" format="2">
	<advance width="560" height="0"/>
	<unicode hex="003D"/>
	<outline>
		<contour>
			<point x="45" y="198" type="line" name="sv01"/>
			<point x="515" y="198" type="line"/>
			<point x="515" y="302" type="line"/>
			<point x="45" y="302" type="line" name="ih01"/>
		</contour>
		<contour>
			<point x="45" y="418" type="line" name="sv02"/>
			<point x="515" y="418" type="line"/>
			<point x="515" y="522" type="line"/>
			<point x="45" y="522" type="line" name="sh01"/>
		</contour>
	</outline>
</glyph>
<glyph name="greater" format="2">
	<advance width="560" height="0"/>
	<unicode hex="003E"/>
	<outline>
		<contour>
			<point x="45" y="615" type="line" name="sv01"/>
			<point x="45" y="491" type="line" name="iv04"/>
			<point x="375" y="358" type="line" name="ih01"/>
			<point x="45" y="225" type="line" name="iv03"/>
			<point x="45" y="105" type="line" name="av01"/>
			<point x="515" y="313" type="line" name="iv02"/>
			<point x="515" y="407" type="line" name="iv01"/>
		</contour>
	</outline>
</glyph>
<glyph name="question" format="2">
	<advance width="520" height="0"/>
	<unicode hex="003F"/>
	<outline>
		<contour>
			<point x="205" y="225" type="line"/>
			<point x="315" y="225" type="line" name="iv02"/>
			<point x="315" y="245" type="line" smooth="yes"/>
			<point x="315" y="284"/>
			<point x="335" y="302"/>
			<point x="379" y="341" type="curve" smooth="yes" name="at01"/>
			<point x="438" y="393"/>
			<point x="480" y="443" name="iv01"/>
			<point x="480" y="520" type="curve" smooth="yes" name="ih01"/>
			<point x="480" y="628"/>
			<point x="397" y="711"/>
			<point x="260" y="711" type="curve" smooth="yes"/>
			<point x="128" y="711"/>
			<point x="40" y="623"/>
			<point x="40" y="510" type="curve" name="sv01"/>
			<point x="152" y="510" type="line"/>
			<point x="152" y="574" name="sh01"/>
			<point x="193" y="615" name="ih02"/>
			<point x="260" y="615" type="curve" smooth="yes" name="hr01"/>
			<point x="327" y="615"/>
			<point x="368" y="573"/>
			<point x="368" y="520" type="curve" smooth="yes"/>
			<point x="368" y="479"/>
			<point x="338" y="444"/>
			<point x="287" y="400" type="curve" smooth="yes"/>
			<point x="224" y="347"/>
			<point x="205" y="315"/>
			<point x="205" y="260" type="curve" smooth="yes"/>
		</contour>
		<contour>
			<point x="260" y="-11" type="curve" smooth="yes"/>
			<point x="305" y="-11"/>
			<point x="340" y="24" name="hr02"/>
			<point x="340" y="69" type="curve" smooth="yes"/>
			<point x="340" y="116"/>
			<point x="305" y="149"/>
			<point x="260" y="149" type="curve" smooth="yes"/>
			<point x="215" y="149"/>
			<point x="180" y="116"/>
			<point x="180" y="69" type="curve" smooth="yes"/>
			<point x="180" y="24"/>
			<point x="215" y="-11"/>
		</contour>
	</outline>
</glyph>
<glyph name="at" format="2">
	<advance width="990" height="0"/>
	<unicode hex="0040"/>
	<outline>
		<contour>
			<point x="507" y="-211" type="curve" smooth="yes"/>
			<point x="614" y="-211"/>
			<point x="680" y="-193" name="iv05"/>
			<point x="731" y="-166" type="curve" name="sv05"/>
			<point x="731" y="-72" type="line"/>
			<point x="683" y="-101" name="sv02"/>
			<point x="612" y="-125"/>
			<point x="507" y="-125" type="curve" smooth="yes" name="sv04"/>
			<point x="301" y="-125"/>
			<point x="157" y="14"/>
			<point x="157" y="250" type="curve" smooth="yes" name="sv03"/>
			<point x="157" y="485" name="iv04"/>
			<point x="305" y="625" name="iv02"/>
			<point x="495" y="625" type="curve" smooth="yes"/>
			<point x="675" y="625"/>
			<point x="833" y="516" name="iv01"/>
			<point x="833" y="296" type="curve" smooth="yes" name="iv03"/>
			<point x="833" y="170" name="sv01"/>
			<point x="788" y="125"/>
			<point x="732" y="125" type="curve" smooth="yes" name="ih01"/>
			<point x="695" y="125"/>
			<point x="678" y="145" name="ab01"/>
			<point x="678" y="213" type="curve" smooth="yes"/>
			<point x="678" y="490" type="line"/>
			<point x="578" y="490" type="line"/>
			<point x="578" y="430" type="line" name="sv06"/>
			<point x="561" y="466"/>
			<point x="528" y="501"/>
			<point x="455" y="501" type="curve" smooth="yes" name="sh01"/>
			<point x="342" y="501" name="ih02"/>
			<point x="271" y="428" name="ih03"/>
			<point x="271" y="275" type="curve" smooth="yes"/>
			<point x="271" y="255" type="line" smooth="yes"/>
			<point x="271" y="103"/>
			<point x="343" y="29"/>
			<point x="458" y="29" type="curve" smooth="yes"/>
			<point x="534" y="29"/>
			<point x="574" y="66"/>
			<point x="602" y="123" type="curve"/>
			<point x="618" y="47"/>
			<point x="666" y="29"/>
			<point x="726" y="29" type="curve" smooth="yes"/>
			<point x="845" y="29"/>
			<point x="935" y="117"/>
			<point x="935" y="296" type="curve" smooth="yes"/>
			<point x="935" y="543"/>
			<point x="763" y="711"/>
			<point x="495" y="711" type="curve" smooth="yes"/>
			<point x="247" y="711"/>
			<point x="55" y="527"/>
			<point x="55" y="250" type="curve" smooth="yes"/>
			<point x="55" y="-31"/>
			<point x="240" y="-211"/>
		</contour>
		<contour>
			<point x="477" y="125" type="curve" smooth="yes"/>
			<point x="418" y="125"/>
			<point x="383" y="163"/>
			<point x="383" y="255" type="curve" smooth="yes"/>
			<point x="383" y="275" type="line" smooth="yes"/>
			<point x="383" y="367"/>
			<point x="417" y="405"/>
			<point x="476" y="405" type="curve" smooth="yes"/>
			<point x="540" y="405"/>
			<point x="578" y="365"/>
			<point x="578" y="298" type="curve" smooth="yes"/>
			<point x="578" y="233" type="line" smooth="yes"/>
			<point x="578" y="166"/>
			<point x="538" y="125"/>
		</contour>
	</outline>
</glyph>
<glyph name="A" format="2">
	<advance width="680" height="0"/>
	<unicode hex="0041"/>
	<anchor x="340" y="0" name="bottom"/>
	<anchor x="665" y="0" name="ogonek"/>
	<anchor x="340" y="700" name="top"/>
	<outline>
		<contour>
			<point x="15" y="0" type="line"/>
			<point x="135" y="0" type="line" name="ab01"/>
			<point x="194" y="158" type="line"/>
			<point x="478" y="158" type="line" name="sv01"/>
			<point x="537" y="0" type="line"/>
			<point x="665" y="0" type="line" name="ab02"/>
			<point x="400" y="700" type="line"/>
			<point x="280" y="700" type="line" name="sh01"/>
		</contour>
		<contour>
			<point x="233" y="262" type="line"/>
			<point x="337" y="550" type="line" name="ih01"/>
			<point x="439" y="262" type="line" name="iv01"/>
		</contour>
	</outline>
</glyph>
<glyph name="B" format="2">
	<advance width="675" height="0"/>
	<unicode hex="0042"/>
	<anchor x="338" y="0" name="bottom"/>
	<anchor x="338" y="350" name="center"/>
	<anchor x="338" y="700" name="top"/>
	<outline>
		<contour>
			<point x="90" y="0" type="line"/>
			<point x="386" y="0" type="line" smooth="yes" name="ab01"/>
			<point x="558" y="0"/>
			<point x="630" y="81" name="iv01"/>
			<point x="630" y="198" type="curve" smooth="yes"/>
			<point x="630" y="289" name="sh01"/>
			<point x="578" y="346" name="at01"/>
			<point x="495" y="365" type="curve"/>
			<point x="560" y="388"/>
			<point x="600" y="441" name="sh02"/>
			<point x="600" y="513" type="curve" smooth="yes" name="hr01"/>
			<point x="600" y="626" name="sv01"/>
			<point x="529" y="700"/>
			<point x="370" y="700" type="curve" smooth="yes"/>
			<point x="90" y="700" type="line" name="sv02"/>
		</contour>
		<contour>
			<point x="210" y="104" type="line"/>
			<point x="210" y="312" type="line" name="ih01"/>
			<point x="372" y="312" type="line" smooth="yes" name="ih02"/>
			<point x="476" y="312" name="ih03"/>
			<point x="510" y="274" name="hr02"/>
			<point x="510" y="206" type="curve" smooth="yes"/>
			<point x="510" y="137"/>
			<point x="477" y="104"/>
			<point x="373" y="104" type="curve" smooth="yes"/>
		</contour>
		<contour>
			<point x="210" y="408" type="line"/>
			<point x="210" y="596" type="line"/>
			<point x="355" y="596" type="line" smooth="yes"/>
			<point x="450" y="596"/>
			<point x="480" y="564" name="hr03"/>
			<point x="480" y="504" type="curve" smooth="yes"/>
			<point x="480" y="445"/>
			<point x="448" y="408"/>
			<point x="355" y="408" type="curve" smooth="yes"/>
		</contour>
	</outline>
</glyph>
<glyph name="C" format="2">
	<advance width="690" height="0"/>
	<unicode hex="0043"/>
	<anchor x="345" y="0" name="bottom"/>
	<anchor x="345" y="700" name="top"/>
	<outline>
		<contour>
			<point x="360" y="-11" type="curve" smooth="yes"/>
			<point x="512" y="-11"/>
			<point x="629" y="55" name="iv02"/>
			<point x="645" y="220" type="curve" name="sv02"/>
			<point x="519" y="220" type="line"/>
			<point x="508" y="143"/>
			<point x="456" y="95" name="sv01"/>
			<point x="360" y="95" type="curve" smooth="yes" name="iv01"/>
			<point x="278" y="95"/>
			<point x="181" y="153" name="at01"/>
			<point x="181" y="345" type="curve" smooth="yes"/>
			<point x="181" y="365" type="line" smooth="yes"/>
			<point x="181" y="546" name="ih01"/>
			<point x="272" y="605" name="ih02"/>
			<point x="360" y="605" type="curve" smooth="yes" name="ih03"/>
			<point x="441" y="605"/>
			<point x="502" y="567"/>
			<point x="519" y="480" type="curve" name="hr02"/>
			<point x="645" y="480" type="line"/>
			<point x="632" y="634"/>
			<point x="515" y="711"/>
			<point x="360" y="711" type="curve" smooth="yes"/>
			<point x="192" y="711"/>
			<point x="55" y="608"/>
			<point x="55" y="365" type="curve" smooth="yes"/>
			<point x="55" y="345" type="line" smooth="yes"/>
			<point x="55" y="92"/>
			<point x="188" y="-11"/>
		</contour>
	</outline>
</glyph>
<glyph name="D" format="2">
	<advance width="705" height="0"/>
	<unicode hex="0044"/>
	<anchor x="353" y="0" name="bottom"/>
	<anchor x="353" y="350" name="center"/>
	<anchor x="353" y="700" name="top"/>
	<outline>
		<contour>
			<point x="90" y="0" type="line"/>
			<point x="305" y="0" type="line" smooth="yes"/>
			<point x="521" y="0"/>
			<point x="650" y="121"/>
			<point x="650" y="345" type="curve" smooth="yes"/>
			<point x="650" y="365" type="line" smooth="yes"/>
			<point x="650" y="586"/>
			<point x="527" y="700"/>
			<point x="315" y="700" type="curve" smooth="yes"/>
			<point x="90" y="700" type="line"/>
		</contour>
		<contour>
			<point x="210" y="104" type="line"/>
			<point x="210" y="596" type="line"/>
			<point x="305" y="596" type="line" smooth="yes"/>
			<point x="429" y="596"/>
			<point x="524" y="529"/>
			<point x="524" y="365" type="curve" smooth="yes"/>
			<point x="524" y="345" type="line" smooth="yes"/>
			<point x="524" y="169"/>
			<point x="432" y="104"/>
			<point x="295" y="104" type="curve" smooth="yes"/>
		</contour>
	</outline>
</glyph>
<glyph name="F" format="2">
	<advance width="595" height="0"/>
	<unicode hex="0046"/>
	<anchor x="298" y="0" name="bottom"/>
	<anchor x="298" y="700" name="top"/>
	<outline>
		<contour>
			<point x="90" y="0" type="line"/>
			<point x="210" y="0" type="line" name="ab01"/>
			<point x="210" y="293" type="line"/>
			<point x="525" y="293" type="line" name="sv02"/>
			<point x="525" y="397" type="line" name="iv01"/>
			<point x="210" y="397" type="line"/>
			<point x="210" y="596" type="line" name="ih01"/>
			<point x="555" y="596" type="line" name="sv01"/>
			<point x="555" y="700" type="line"/>
			<point x="90" y="700" type="line" name="at01"/>
		</contour>
	</outline>
</glyph>
<glyph name="G" format="2">
	<advance width="715" height="0"/>
	<unicode hex="0047"/>
	<anchor x="358" y="0" name="bottom"/>
	<anchor x="358" y="700" name="top"/>
	<outline>
		<contour>
			<point x="370" y="-11" type="curve" smooth="yes"/>
			<point x="553" y="-11"/>
			<point x="665" y="101"/>
			<point x="665" y="325" type="curve" smooth="yes" name="iv02"/>
			<point x="665" y="365" type="line" name="sv03"/>
			<point x="390" y="365" type="line"/>
			<point x="390" y="265" type="line" name="sv02"/>
			<point x="549" y="265" type="line"/>
			<point x="538" y="148"/>
			<point x="474" y="95" name="sv01"/>
			<point x="370" y="95" type="curve" smooth="yes" name="iv01"/>
			<point x="260" y="95"/>
			<point x="181" y="174" name="at01"/>
			<point x="181" y="345" type="curve" smooth="yes"/>
			<point x="181" y="365" type="line" smooth="yes"/>
			<point x="181" y="529" name="ih01"/>
			<point x="257" y="605" name="ih02"/>
			<point x="370" y="605" type="curve" smooth="yes" name="ih03"/>
			<point x="430" y="605"/>
			<point x="491" y="578"/>
			<point x="520" y="490" type="curve" name="hr01"/>
			<point x="650" y="490" type="line"/>
			<point x="619" y="634"/>
			<point x="515" y="711"/>
			<point x="370" y="711" type="curve" smooth="yes"/>
			<point x="181" y="711"/>
			<point x="55" y="585"/>
			<point x="55" y="365" type="curve" smooth="yes"/>
			<point x="55" y="345" type="line" smooth="yes"/>
			<point x="55" y="110"/>
			<point x="177" y="-11"/>
		</contour>
	</outline>
</glyph>
<glyph name="H" format="2">
	<advance width="760" height="0"/>
	<unicode hex="0048"/>
	<anchor x="380" y="0" name="bottom"/>
	<anchor x="380" y="350" name="center"/>
	<anchor x="380" y="700" name="top"/>
	<anchor x="20" y="700" name="topleft"/>
	<outline>
		<contour>
			<point x="90" y="0" type="line"/>
			<point x="210" y="0" type="line" name="ab02"/>
			<point x="210" y="308" type="line"/>
			<point x="550" y="308" type="line" name="sv01"/>
			<point x="550" y="0" type="line"/>
			<point x="670" y="0" type="line" name="ab01"/>
			<point x="670" y="700" type="line"/>
			<point x="550" y="700" type="line" name="at02"/>
			<point x="550" y="412" type="line" name="iv01"/>
			<point x="210" y="412" type="line"/>
			<point x="210" y="700" type="line" name="ih01"/>
			<point x="90" y="700" type="line" name="at01"/>
		</contour>
	</outline>
</glyph>
<glyph name="J" format="2">
	<advance width="560" height="0"/>
	<unicode hex="004A"/>
	<anchor x="280" y="0" name="bottom"/>
	<anchor x="280" y="700" name="top"/>
	<outline>
		<contour>
			<point x="240" y="-11" type="curve" smooth="yes"/>
			<point x="389" y="-11"/>
			<point x="470" y="62"/>
			<point x="470" y="250" type="curve" smooth="yes"/>
			<point x="470" y="700" type="line"/>
			<point x="350" y="700" type="line"/>
			<point x="350" y="250" type="line" smooth="yes"/>
			<point x="350" y="131"/>
			<point x="312" y="95"/>
			<point x="240" y="95" type="curve" smooth="yes"/>
			<point x="173" y="95"/>
			<point x="141" y="131"/>
			<point x="136" y="200" type="curve" name="hr01"/>
			<point x="20" y="200" type="line"/>
			<point x="25" y="67"/>
			<point x="96" y="-11"/>
		</contour>
	</outline>
</glyph>
<glyph name="K" format="2">
	<advance width="695" height="0"/>
	<unicode hex="004B"/>
	<anchor x="348" y="0" name="bottom"/>
	<anchor x="348" y="700" name="top"/>
	<outline>
		<contour>
			<point x="90" y="0" type="line"/>
			<point x="210" y="0" type="line" name="ab02"/>
			<point x="210" y="225" type="line"/>
			<point x="308" y="331" type="line" name="ih01"/>
			<point x="524" y="0" type="line"/>
			<point x="670" y="0" type="line" name="ab01"/>
			<point x="388" y="414" type="line"/>
			<point x="650" y="700" type="line"/>
			<point x="506" y="700" type="line" name="at02"/>
			<point x="210" y="366" type="line" name="iv01"/>
			<point x="210" y="700" type="line"/>
			<point x="90" y="700" type="line" name="at01"/>
		</contour>
	</outline>
</glyph>
<glyph name="L" format="2">
	<advance width="570" height="0"/>
	<unicode hex="004C"/>
	<anchor x="285" y="0" name="bottom"/>
	<anchor x="285" y="350" name="center"/>
	<anchor x="150" y="700" name="top"/>
	<anchor x="424" y="700" name="topright"/>
	<outline>
		<contour>
			<point x="90" y="0" type="line"/>
			<point x="550" y="0" type="line" name="ab01"/>
			<point x="550" y="104" type="line"/>
			<point x="210" y="104" type="line" name="sv01"/>
			<point x="210" y="700" type="line" name="ih01"/>
			<point x="90" y="700" type="line" name="at01"/>
		</contour>
	</outline>
</glyph>
<glyph name="N" format="2">
	<advance width="760" height="0"/>
	<unicode hex="004E"/>
	<anchor x="380" y="0" name="bottom"/>
	<anchor x="380" y="700" name="top"/>
	<outline>
		<contour>
			<point x="90" y="0" type="line"/>
			<point x="210" y="0" type="line" name="ab02"/>
			<point x="210" y="500" type="line" name="iv01"/>
			<point x="554" y="0" type="line"/>
			<point x="670" y="0" type="line" name="ab01"/>
			<point x="670" y="700" type="line"/>
			<point x="550" y="700" type="line" name="at02"/>
			<point x="550" y="200" type="line" name="ih01"/>
			<point x="206" y="700" type="line"/>
			<point x="90" y="700" type="line" name="at01"/>
		</contour>
	</outline>
</glyph>
<glyph name="O" format="2">
	<advance width="750" height="0"/>
	<unicode hex="004F"/>
	<anchor x="375" y="0" name="bottom"/>
	<anchor x="375" y="350" name="center"/>
	<anchor x="675" y="10" name="ogonek"/>
	<anchor x="375" y="700" name="top"/>
	<anchor x="20" y="700" name="topleft"/>
	<anchor x="730" y="700" name="topright"/>
	<outline>
		<contour>
			<point x="375" y="-11" type="curve" smooth="yes"/>
			<point x="546" y="-11"/>
			<point x="695" y="90"/>
			<point x="695" y="345" type="curve" smooth="yes" name="at01"/>
			<point x="695" y="365" type="line" smooth="yes"/>
			<point x="695" y="610"/>
			<point x="546" y="711" name="ih01"/>
			<point x="375" y="711" type="curve" smooth="yes"/>
			<point x="204" y="711"/>
			<point x="55" y="610"/>
			<point x="55" y="365" type="curve" smooth="yes" name="sv01"/>
			<point x="55" y="345" type="line" smooth="yes"/>
			<point x="55" y="90"/>
			<point x="204" y="-11" name="sh01"/>
		</contour>
		<contour>
			<point x="375" y="95" type="curve" smooth="yes" name="ih03"/>
			<point x="274" y="95"/>
			<point x="181" y="160"/>
			<point x="181" y="345" type="curve" smooth="yes"/>
			<point x="181" y="365" type="line" smooth="yes"/>
			<point x="181" y="540"/>
			<point x="274" y="605"/>
			<point x="375" y="605" type="curve" smooth="yes"/>
			<point x="474" y="605"/>
			<point x="569" y="540"/>
			<point x="569" y="365" type="curve" smooth="yes"/>
			<point x="569" y="345" type="line" smooth="yes"/>
			<point x="569" y="160"/>
			<point x="474" y="95"/>
		</contour>
	</outline>
</glyph>
<glyph name="P" format="2">
	<advance width="660" height="0"/>
	<unicode hex="0050"/>
	<anchor x="330" y="0" name="bottom"/>
	<anchor x="330" y="700" name="top"/>
	<outline>
		<contour>
			<point x="90" y="0" type="line"/>
			<point x="210" y="0" type="line" name="ab01"/>
			<point x="210" y="254" type="line"/>
			<point x="345" y="254" type="line" smooth="yes" name="sv01"/>
			<point x="533" y="254"/>
			<point x="620" y="341" name="sh01"/>
			<point x="620" y="477" type="curve" smooth="yes" name="at01"/>
			<point x="620" y="613"/>
			<point x="533" y="700"/>
			<point x="345" y="700" type="curve" smooth="yes" name="sv02"/>
			<point x="90" y="700" type="line"/>
		</contour>
		<contour>
			<point x="210" y="358" type="line" name="ih01"/>
			<point x="210" y="596" type="line" name="ih02"/>
			<point x="335" y="596" type="line" smooth="yes" name="ih03"/>
			<point x="461" y="596"/>
			<point x="500" y="556"/>
			<point x="500" y="477" type="curve" smooth="yes"/>
			<point x="500" y="397"/>
			<point x="461" y="358"/>
			<point x="335" y="358" type="curve" smooth="yes"/>
		</contour>
	</outline>
</glyph>
<glyph name="Q" format="2">
	<advance width="750" height="0"/>
	<unicode hex="0051"/>
	<anchor x="375" y="0" name="bottom"/>
	<anchor x="375" y="700" name="top"/>
	<outline>
		<contour>
			<point x="375" y="-11" type="curve" smooth="yes"/>
			<point x="439" y="-11" name="iv02"/>
			<point x="501" y="4" name="sv01"/>
			<point x="553" y="36" type="curve"/>
			<point x="619" y="-30" type="line" name="iv01"/>
			<point x="685" y="36" type="line"/>
			<point x="622" y="98" type="line"/>
			<point x="667" y="155" name="at01"/>
			<point x="695" y="236"/>
			<point x="695" y="345" type="curve" smooth="yes"/>
			<point x="695" y="365" type="line" smooth="yes" name="ih01"/>
			<point x="695" y="610"/>
			<point x="546" y="711"/>
			<point x="375" y="711" type="curve" smooth="yes"/>
			<point x="204" y="711" name="sv02"/>
			<point x="55" y="610"/>
			<point x="55" y="365" type="curve" smooth="yes"/>
			<point x="55" y="345" type="line" smooth="yes" name="iv04"/>
			<point x="55" y="90" name="iv03"/>
			<point x="204" y="-11"/>
		</contour>
		<contour>
			<point x="375" y="95" type="curve" smooth="yes" name="sh01"/>
			<point x="274" y="95" name="ih02"/>
			<point x="181" y="160" name="ih03"/>
			<point x="181" y="345" type="curve" smooth="yes"/>
			<point x="181" y="365" type="line" smooth="yes"/>
			<point x="181" y="540"/>
			<point x="274" y="605"/>
			<point x="375" y="605" type="curve" smooth="yes"/>
			<point x="474" y="605"/>
			<point x="569" y="540"/>
			<point x="569" y="365" type="curve" smooth="yes"/>
			<point x="569" y="345" type="line" smooth="yes"/>
			<point x="569" y="276"/>
			<point x="556" y="225"/>
			<point x="535" y="186" type="curve"/>
			<point x="431" y="290" type="line"/>
			<point x="365" y="224" type="line"/>
			<point x="470" y="119" type="line"/>
			<point x="441" y="102"/>
			<point x="408" y="95"/>
		</contour>
	</outline>
</glyph>
<glyph name="R" format="2">
	<advance width="685" height="0"/>
	<unicode hex="0052"/>
	<anchor x="343" y="0" name="bottom"/>
	<anchor x="343" y="700" name="top"/>
	<outline>
		<contour>
			<point x="90" y="0" type="line"/>
			<point x="210" y="0" type="line" name="ab02"/>
			<point x="210" y="268" type="line"/>
			<point x="353" y="268" type="line" name="sh01"/>
			<point x="508" y="0" type="line"/>
			<point x="640" y="0" type="line" name="ab01"/>
			<point x="464" y="282" type="line" name="sv01"/>
			<point x="568" y="313"/>
			<point x="620" y="386"/>
			<point x="620" y="482" type="curve" smooth="yes" name="at01"/>
			<point x="620" y="610"/>
			<point x="530" y="700"/>
			<point x="355" y="700" type="curve" smooth="yes" name="sv02"/>
			<point x="90" y="700" type="line"/>
		</contour>
		<contour>
			<point x="210" y="368" type="line" name="ih01"/>
			<point x="210" y="596" type="line" name="ih02"/>
			<point x="335" y="596" type="line" smooth="yes" name="ih03"/>
			<point x="458" y="596"/>
			<point x="500" y="554"/>
			<point x="500" y="482" type="curve" smooth="yes"/>
			<point x="500" y="410"/>
			<point x="458" y="368"/>
			<point x="335" y="368" type="curve" smooth="yes"/>
		</contour>
	</outline>
</glyph>
<glyph name="U" format="2">
	<advance width="730" height="0"/>
	<unicode hex="0055"/>
	<anchor x="365" y="0" name="bottom"/>
	<anchor x="461" y="0" name="ogonek"/>
	<anchor x="365" y="700" name="top"/>
	<anchor x="710" y="700" name="topright"/>
	<outline>
		<contour>
			<point x="365" y="-11" type="curve" smooth="yes"/>
			<point x="539" y="-11"/>
			<point x="650" y="84"/>
			<point x="650" y="280" type="curve" smooth="yes" name="at02"/>
			<point x="650" y="700" type="line"/>
			<point x="530" y="700" type="line" name="sv01"/>
			<point x="530" y="286" type="line" smooth="yes"/>
			<point x="530" y="155"/>
			<point x="474" y="95" name="at01"/>
			<point x="365" y="95" type="curve" smooth="yes"/>
			<point x="257" y="95" name="ih01"/>
			<point x="200" y="155" name="ih02"/>
			<point x="200" y="287" type="curve" smooth="yes" name="ih03"/>
			<point x="200" y="700" type="line"/>
			<point x="80" y="700" type="line"/>
			<point x="80" y="280" type="line" smooth="yes"/>
			<point x="80" y="84"/>
			<point x="191" y="-11"/>
		</contour>
	</outline>
</glyph>
<glyph name="V" format="2">
	<advance width="680" height="0"/>
	<unicode hex="0056"/>
	<anchor x="340" y="0" name="bottom"/>
	<anchor x="340" y="700" name="top"/>
	<outline>
		<contour>
			<point x="285" y="0" type="line"/>
			<point x="405" y="0" type="line" name="ab01"/>
			<point x="665" y="700" type="line"/>
			<point x="545" y="700" type="line" name="at02"/>
			<point x="348" y="151" type="line" name="ih01"/>
			<point x="143" y="700" type="line"/>
			<point x="15" y="700" type="line" name="at01"/>
		</contour>
	</outline>
</glyph>
<glyph name="W" format="2">
	<advance width="970" height="0"/>
	<unicode hex="0057"/>
	<anchor x="485" y="0" name="bottom"/>
	<anchor x="485" y="700" name="top"/>
	<outline>
		<contour>
			<point x="210" y="0" type="line"/>
			<point x="330" y="0" type="line" name="ab02"/>
			<point x="481" y="520" type="line" name="ih01"/>
			<point x="640" y="0" type="line"/>
			<point x="760" y="0" type="line" name="ab01"/>
			<point x="945" y="700" type="line"/>
			<point x="829" y="700" type="line" name="at03"/>
			<point x="697" y="180" type="line" name="iv02"/>
			<point x="535" y="700" type="line"/>
			<point x="435" y="700" type="line" name="at02"/>
			<point x="282" y="180" type="line" name="iv01"/>
			<point x="149" y="700" type="line"/>
			<point x="25" y="700" type="line" name="at01"/>
		</contour>
	</outline>
</glyph>
<glyph name="X" format="2">
	<advance width="680" height="0"/>
	<unicode hex="0058"/>
	<anchor x="340" y="0" name="bottom"/>
	<anchor x="340" y="700" name="top"/>
	<outline>
		<contour>
			<point x="25" y="0" type="line"/>
			<point x="159" y="0" type="line" name="ab02"/>
			<point x="339" y="280" type="line" name="iv01"/>
			<point x="517" y="0" type="line"/>
			<point x="655" y="0" type="line" name="ab01"/>
			<point x="415" y="368" type="line"/>
			<point x="645" y="700" type="line"/>
			<point x="513" y="700" type="line" name="at02"/>
			<point x="341" y="455" type="line" name="ih01"/>
			<point x="171" y="700" type="line"/>
			<point x="35" y="700" type="line" name="at01"/>
			<point x="266" y="366" type="line"/>
		</contour>
	</outline>
</glyph>
<glyph name="Z" format="2">
	<advance width="610" height="0"/>
	<unicode hex="005A"/>
	<anchor x="305" y="0" name="bottom"/>
	<anchor x="305" y="350" name="center"/>
	<anchor x="305" y="700" name="top"/>
	<outline>
		<contour>
			<point x="40" y="0" type="line"/>
			<point x="570" y="0" type="line" name="ab01"/>
			<point x="570" y="104" type="line"/>
			<point x="184" y="104" type="line" name="sv01"/>
			<point x="560" y="606" type="line" name="sv03"/>
			<point x="560" y="700" type="line"/>
			<point x="50" y="700" type="line" name="at01"/>
			<point x="50" y="596" type="line"/>
			<point x="416" y="596" type="line" name="ih01"/>
			<point x="40" y="94" type="line" name="sv02"/>
		</contour>
	</outline>
</glyph>
<glyph name="f" format="2">
	<advance width="365" height="0"/>
	<unicode hex="0066"/>
	<anchor x="183" y="0" name="bottom"/>
	<anchor x="183" y="774" name="top"/>
	<outline>
		<contour>
			<point x="100" y="0" type="line"/>
			<point x="210" y="0" type="line"/>
			<point x="210" y="436" type="line"/>
			<point x="340" y="436" type="line"/>
			<point x="340" y="530" type="line"/>
			<point x="210" y="530" type="line"/>
			<point x="210" y="540" type="line" smooth="yes"/>
			<point x="210" y="591"/>
			<point x="229" y="609"/>
			<point x="285" y="609" type="curve" smooth="yes"/>
			<point x="305" y="609"/>
			<point x="330" y="609"/>
			<point x="350" y="606" type="curve" name="hr01"/>
			<point x="350" y="702" type="line"/>
			<point x="320" y="704"/>
			<point x="295" y="705"/>
			<point x="275" y="705" type="curve" smooth="yes"/>
			<point x="150" y="705"/>
			<point x="100" y="650"/>
			<point x="100" y="545" type="curve" smooth="yes"/>
			<point x="100" y="530" type="line"/>
			<point x="30" y="530" type="line"/>
			<point x="30" y="436" type="line"/>
			<point x="100" y="436" type="line"/>
		</contour>
	</outline>
</glyph>
<glyph name="h" format="2">
	<advance width="605" height="0"/>
	<unicode hex="0068"/>
	<anchor x="303" y="0" name="bottom"/>
	<anchor x="303" y="387" name="center"/>
	<anchor x="303" y="774" name="top"/>
	<outline>
		<contour>
			<point x="70" y="0" type="line"/>
			<point x="180" y="0" type="line" name="ab02"/>
			<point x="180" y="310" type="line" smooth="yes"/>
			<point x="180" y="379" name="ih01"/>
			<point x="218" y="445"/>
			<point x="310" y="445" type="curve" smooth="yes"/>
			<point x="395" y="445" name="ab01"/>
			<point x="430" y="399"/>
			<point x="430" y="310" type="curve" smooth="yes" name="at02"/>
			<point x="430" y="0" type="line" name="iv01"/>
			<point x="540" y="0" type="line"/>
			<point x="540" y="335" type="line" smooth="yes" name="at01"/>
			<point x="540" y="470" name="ih02"/>
			<point x="474" y="541" name="ih03"/>
			<point x="345" y="541" type="curve" smooth="yes"/>
			<point x="254" y="541"/>
			<point x="204" y="495"/>
			<point x="180" y="446" type="curve"/>
			<point x="180" y="700" type="line"/>
			<point x="70" y="700" type="line"/>
		</contour>
	</outline>
</glyph>
<glyph name="l" format="2">
	<advance width="325" height="0"/>
	<unicode hex="006C"/>
	<anchor x="163" y="0" name="bottom"/>
	<anchor x="163" y="387" name="center"/>
	<anchor x="130" y="700" name="top"/>
	<anchor x="245" y="700" name="topright"/>
	<outline>
		<contour>
			<point x="240" y="-5" type="curve" smooth="yes"/>
			<point x="255" y="-5"/>
			<point x="284" y="-5"/>
			<point x="295" y="-2" type="curve" name="sv01"/>
			<point x="295" y="93" type="line"/>
			<point x="284" y="92" name="ih01"/>
			<point x="275" y="91" name="at01"/>
			<point x="260" y="91" type="curve" smooth="yes"/>
			<point x="203" y="91" name="ab01"/>
			<point x="185" y="112" name="ih02"/>
			<point x="185" y="177" type="curve" smooth="yes" name="hr01"/>
			<point x="185" y="700" type="line"/>
			<point x="75" y="700" type="line"/>
			<point x="75" y="169" type="line" smooth="yes"/>
			<point x="75" y="40"/>
			<point x="125" y="-5"/>
		</contour>
	</outline>
</glyph>
<glyph name="m" format="2">
	<advance width="875" height="0"/>
	<unicode hex="006D"/>
	<anchor x="438" y="0" name="bottom"/>
	<anchor x="438" y="530" name="top"/>
	<outline>
		<contour>
			<point x="70" y="0" type="line"/>
			<point x="180" y="0" type="line"/>
			<point x="180" y="315" type="line" smooth="yes"/>
			<point x="180" y="391"/>
			<point x="215" y="445"/>
			<point x="287" y="445" type="curve" smooth="yes"/>
			<point x="347" y="445"/>
			<point x="385" y="410"/>
			<point x="385" y="315" type="curve" smooth="yes"/>
			<point x="385" y="0" type="line"/>
			<point x="495" y="0" type="line"/>
			<point x="495" y="315" type="line" smooth="yes"/>
			<point x="495" y="391"/>
			<point x="530" y="445"/>
			<point x="602" y="445" type="curve" smooth="yes"/>
			<point x="662" y="445"/>
			<point x="700" y="410"/>
			<point x="700" y="315" type="curve" smooth="yes"/>
			<point x="700" y="0" type="line"/>
			<point x="810" y="0" type="line"/>
			<point x="810" y="340" type="line" smooth="yes"/>
			<point x="810" y="477"/>
			<point x="748" y="541"/>
			<point x="637" y="541" type="curve" smooth="yes"/>
			<point x="564" y="541"/>
			<point x="507" y="500"/>
			<point x="476" y="440" type="curve"/>
			<point x="457" y="500"/>
			<point x="410" y="541"/>
			<point x="322" y="541" type="curve" smooth="yes"/>
			<point x="253" y="541"/>
			<point x="196" y="494"/>
			<point x="172" y="440" type="curve"/>
			<point x="172" y="530" type="line" name="hr01"/>
			<point x="70" y="530" type="line"/>
		</contour>
	</outline>
</glyph>
<glyph name="o" format="2">
	<advance width="600" height="0"/>
	<unicode hex="006F"/>
	<anchor x="300" y="0" name="bottom"/>
	<anchor x="300" y="265" name="center"/>
	<anchor x="540" y="10" name="ogonek"/>
	<anchor x="300" y="530" name="top"/>
	<anchor x="580" y="530" name="topright"/>
	<outline>
		<contour>
			<point x="300" y="-11" type="curve" smooth="yes"/>
			<point x="447" y="-11"/>
			<point x="560" y="82"/>
			<point x="560" y="260" type="curve" smooth="yes" name="at01"/>
			<point x="560" y="280" type="line" smooth="yes"/>
			<point x="560" y="448"/>
			<point x="447" y="541" name="ih01"/>
			<point x="300" y="541" type="curve" smooth="yes"/>
			<point x="153" y="541"/>
			<point x="40" y="448"/>
			<point x="40" y="280" type="curve" smooth="yes" name="sv01"/>
			<point x="40" y="260" type="line" smooth="yes"/>
			<point x="40" y="82"/>
			<point x="153" y="-11" name="sh01"/>
		</contour>
		<contour>
			<point x="300" y="85" type="curve" smooth="yes" name="ih03"/>
			<point x="224" y="85"/>
			<point x="152" y="136"/>
			<point x="152" y="260" type="curve" smooth="yes"/>
			<point x="152" y="280" type="line" smooth="yes"/>
			<point x="152" y="394"/>
			<point x="224" y="445"/>
			<point x="300" y="445" type="curve" smooth="yes"/>
			<point x="376" y="445"/>
			<point x="448" y="394"/>
			<point x="448" y="280" type="curve" smooth="yes"/>
			<point x="448" y="260" type="line" smooth="yes"/>
			<point x="448" y="136"/>
			<point x="376" y="85"/>
		</contour>
	</outline>
</glyph>
<glyph name="q" format="2">
	<advance width="615" height="0"/>
	<unicode hex="0071"/>
	<anchor x="308" y="0" name="bottom"/>
	<anchor x="308" y="530" name="top"/>
	<outline>
		<contour>
			<point x="435" y="-200" type="line"/>
			<point x="545" y="-200" type="line"/>
			<point x="545" y="530" type="line"/>
			<point x="443" y="530" type="line"/>
			<point x="443" y="441" type="line"/>
			<point x="418" y="494"/>
			<point x="351" y="541" name="hr01"/>
			<point x="263" y="541" type="curve" smooth="yes" name="hr01"/>
			<point x="130" y="541"/>
			<point x="40" y="450"/>
			<point x="40" y="280" type="curve" smooth="yes"/>
			<point x="40" y="260" type="line" smooth="yes"/>
			<point x="40" y="79"/>
			<point x="129" y="-11"/>
			<point x="264" y="-11" type="curve" smooth="yes"/>
			<point x="344" y="-11"/>
			<point x="402" y="29"/>
			<point x="435" y="85" type="curve"/>
		</contour>
		<contour>
			<point x="289" y="85" type="curve" smooth="yes"/>
			<point x="208" y="85"/>
			<point x="152" y="143"/>
			<point x="152" y="260" type="curve" smooth="yes"/>
			<point x="152" y="280" type="line" smooth="yes"/>
			<point x="152" y="393"/>
			<point x="205" y="445"/>
			<point x="289" y="445" type="curve" smooth="yes"/>
			<point x="365" y="445"/>
			<point x="435" y="397"/>
			<point x="435" y="306" type="curve" smooth="yes"/>
			<point x="435" y="236" type="line" smooth="yes"/>
			<point x="435" y="134"/>
			<point x="366" y="85"/>
		</contour>
	</outline>
</glyph>
<glyph name="s" format="2">
	<advance width="540" height="0"/>
	<unicode hex="0073"/>
	<anchor x="270" y="0" name="bottom"/>
	<anchor x="270" y="530" name="top"/>
	<outline>
		<contour>
			<point x="270" y="-11" type="curve" smooth="yes"/>
			<point x="423" y="-11"/>
			<point x="500" y="59" name="iv03"/>
			<point x="500" y="150" type="curve" smooth="yes"/>
			<point x="500" y="253" name="sv02"/>
			<point x="416" y="298" name="iv04"/>
			<point x="292" y="314" type="curve"/>
			<point x="191" y="325" name="at01"/>
			<point x="165" y="350"/>
			<point x="165" y="385" type="curve" smooth="yes" name="iv01"/>
			<point x="165" y="417"/>
			<point x="191" y="445" name="sv01"/>
			<point x="270" y="445" type="curve" smooth="yes" name="iv02"/>
			<point x="327" y="445"/>
			<point x="359" y="421" name="ih01"/>
			<point x="370" y="380" type="curve" name="ih02"/>
			<point x="480" y="380" type="line" name="ih03"/>
			<point x="469" y="466"/>
			<point x="410" y="541"/>
			<point x="270" y="541" type="curve" smooth="yes"/>
			<point x="125" y="541"/>
			<point x="55" y="470"/>
			<point x="55" y="385" type="curve" smooth="yes"/>
			<point x="55" y="285"/>
			<point x="133" y="242"/>
			<point x="254" y="226" type="curve" smooth="yes"/>
			<point x="357" y="213"/>
			<point x="390" y="184"/>
			<point x="390" y="150" type="curve" smooth="yes"/>
			<point x="390" y="111"/>
			<point x="358" y="85" name="hr02"/>
			<point x="270" y="85" type="curve" smooth="yes" name="hr01"/>
			<point x="191" y="85"/>
			<point x="159" y="113"/>
			<point x="150" y="150" type="curve" name="hr02"/>
			<point x="40" y="150" type="line"/>
			<point x="51" y="64"/>
			<point x="114" y="-11"/>
		</contour>
	</outline>
</glyph>
<glyph name="u" format="2">
	<advance width="595" height="0"/>
	<unicode hex="0075"/>
	<anchor x="298" y="0" name="bottom"/>
	<anchor x="525" y="0" name="ogonek"/>
	<anchor x="298" y="530" name="top"/>
	<anchor x="575" y="530" name="topright"/>
	<outline>
		<contour>
			<point x="255" y="-11" type="curve" smooth="yes"/>
			<point x="340" y="-11" name="iv01"/>
			<point x="398" y="35"/>
			<point x="423" y="90" type="curve" name="ab02"/>
			<point x="423" y="0" type="line" name="hr01"/>
			<point x="525" y="0" type="line" name="at02"/>
			<point x="525" y="530" type="line"/>
			<point x="415" y="530" type="line" name="ih01"/>
			<point x="415" y="220" type="line" smooth="yes"/>
			<point x="415" y="150"/>
			<point x="377" y="85" name="at01"/>
			<point x="290" y="85" type="curve" smooth="yes" name="hr01"/>
			<point x="210" y="85" name="ab01"/>
			<point x="175" y="131" name="ih02"/>
			<point x="175" y="220" type="curve" smooth="yes" name="ih03"/>
			<point x="175" y="530" type="line"/>
			<point x="65" y="530" type="line"/>
			<point x="65" y="210" type="line" smooth="yes"/>
			<point x="65" y="61"/>
			<point x="130" y="-11"/>
		</contour>
	</outline>
</glyph>
<glyph name="x" format="2">
	<advance width="560" height="0"/>
	<unicode hex="0078"/>
	<anchor x="280" y="0" name="bottom"/>
	<anchor x="280" y="530" name="top"/>
	<outline>
		<contour>
			<point x="20" y="0" type="line"/>
			<point x="142" y="0" type="line" name="ab02"/>
			<point x="279" y="206" type="line" name="ih01"/>
			<point x="414" y="0" type="line"/>
			<point x="540" y="0" type="line" name="ab01"/>
			<point x="351" y="280" type="line"/>
			<point x="530" y="530" type="line"/>
			<point x="410" y="530" type="line" name="at02"/>
			<point x="283" y="352" type="line" name="iv01"/>
			<point x="154" y="530" type="line"/>
			<point x="30" y="530" type="line" name="at01"/>
			<point x="211" y="276" type="line"/>
		</contour>
	</outline>
</glyph>
<glyph name="y" format="2">
	<advance width="580" height="0"/>
	<unicode hex="0079"/>
	<anchor x="290" y="0" name="bottom"/>
	<anchor x="290" y="530" name="top"/>
	<outline>
		<contour>
			<point x="155" y="-211" type="curve" smooth="yes"/>
			<point x="260" y="-211"/>
			<point x="296" y="-149"/>
			<point x="355" y="0" type="curve" smooth="yes"/>
			<point x="560" y="530" type="line"/>
			<point x="448" y="530" type="line"/>
			<point x="302" y="120" type="line"/>
			<point x="140" y="530" type="line"/>
			<point x="20" y="530" type="line"/>
			<point x="245" y="0" type="line"/>
			<point x="213" y="-88"/>
			<point x="199" y="-115"/>
			<point x="155" y="-115" type="curve" smooth="yes"/>
			<point x="145" y="-115"/>
			<point x="135" y="-114"/>
			<point x="125" y="-112" type="curve"/>
			<point x="125" y="-208" type="line"/>
			<point x="135" y="-210"/>
			<point x="145" y="-211"/>
		</contour>
	</outline>
</glyph>
<glyph name="z" format="2">
	<advance width="510" height="0"/>
	<unicode hex="007A"/>
	<anchor x="255" y="0" name="bottom"/>
	<anchor x="255" y="265" name="center"/>
	<anchor x="255" y="530" name="top"/>
	<outline>
		<contour>
			<point x="35" y="0" type="line"/>
			<point x="475" y="0" type="line" name="ab01"/>
			<point x="475" y="94" type="line"/>
			<point x="167" y="94" type="line" name="sv01"/>
			<point x="465" y="446" type="line" name="sv03"/>
			<point x="465" y="530" type="line"/>
			<point x="45" y="530" type="line" name="at01"/>
			<point x="45" y="436" type="line"/>
			<point x="333" y="436" type="line" name="ih01"/>
			<point x="35" y="84" type="line" name="sv02"/>
		</contour>
	</outline>
</glyph>
<glyph name="braceleft" format="2">
	<advance width="380" height="0"/>
	<unicode hex="007B"/>
	<outline>
		<contour>
			<point x="330" y="-200" type="line" name="hr05"/>
			<point x="330" y="-114" type="line"/>
			<point x="290" y="-114" type="line" smooth="yes" name="sv03"/>
			<point x="251" y="-114"/>
			<point x="232" y="-95" name="hr01"/>
			<point x="232" y="-56" type="curve" smooth="yes" name="ih01"/>
			<point x="232" y="180" type="line" smooth="yes"/>
			<point x="232" y="220"/>
			<point x="213" y="239"/>
			<point x="182" y="250" type="curve" name="sv02"/>
			<point x="213" y="261"/>
			<point x="232" y="280" name="at01"/>
			<point x="232" y="320" type="curve" smooth="yes"/>
			<point x="232" y="556" type="line" smooth="yes"/>
			<point x="232" y="595" name="iv01"/>
			<point x="251" y="614" name="sv01"/>
			<point x="290" y="614" type="curve" smooth="yes"/>
			<point x="330" y="614" type="line" name="hr01"/>
			<point x="330" y="700" type="line" name="ab01"/>
			<point x="280" y="700" type="line" smooth="yes" name="ih02"/>
			<point x="184" y="700" name="ih03"/>
			<point x="130" y="646"/>
			<point x="130" y="550" type="curve" smooth="yes"/>
			<point x="130" y="343" type="line" smooth="yes"/>
			<point x="130" y="312"/>
			<point x="111" y="293"/>
			<point x="80" y="293" type="curve" name="hr02"/>
			<point x="80" y="207" type="line"/>
			<point x="111" y="207"/>
			<point x="130" y="188" name="hr04"/>
			<point x="130" y="157" type="curve" smooth="yes" name="hr03"/>
			<point x="130" y="-50" type="line" smooth="yes"/>
			<point x="130" y="-146"/>
			<point x="184" y="-200"/>
			<point x="280" y="-200" type="curve" smooth="yes" name="hr04"/>
		</contour>
	</outline>
</glyph>
<glyph name="braceright" format="2">
	<advance width="380" height="0"/>
	<unicode hex="007D"/>
	<outline>
		<contour>
			<point x="50" y="700" type="line"/>
			<point x="50" y="614" type="line"/>
			<point x="90" y="614" type="line" smooth="yes" name="sv03"/>
			<point x="129" y="614"/>
			<point x="148" y="595"/>
			<point x="148" y="556" type="curve" smooth="yes" name="ih01"/>
			<point x="148" y="320" type="line" smooth="yes"/>
			<point x="148" y="280"/>
			<point x="167" y="261"/>
			<point x="198" y="250" type="curve" name="sv02"/>
			<point x="167" y="239"/>
			<point x="148" y="220" name="at01"/>
			<point x="148" y="180" type="curve" smooth="yes"/>
			<point x="148" y="-56" type="line" smooth="yes"/>
			<point x="148" y="-95" name="iv01"/>
			<point x="129" y="-114" name="sv01"/>
			<point x="90" y="-114" type="curve" smooth="yes"/>
			<point x="50" y="-114" type="line" name="hr01"/>
			<point x="50" y="-200" type="line" name="ab01"/>
			<point x="100" y="-200" type="line" smooth="yes" name="ih02"/>
			<point x="196" y="-200" name="ih03"/>
			<point x="250" y="-146"/>
			<point x="250" y="-50" type="curve" smooth="yes"/>
			<point x="250" y="157" type="line" smooth="yes"/>
			<point x="250" y="188"/>
			<point x="269" y="207"/>
			<point x="300" y="207" type="curve" name="hr02"/>
			<point x="300" y="293" type="line"/>
			<point x="269" y="293"/>
			<point x="250" y="312" name="hr02"/>
			<point x="250" y="343" type="curve" smooth="yes" name="hr03"/>
			<point x="250" y="550" type="line" smooth="yes"/>
			<point x="250" y="646"/>
			<point x="196" y="700"/>
			<point x="100" y="700" type="curve" smooth="yes" name="hr04"/>
		</contour>
	</outline>
</glyph>
<glyph name="asciitilde" format="2">
	<advance width="560" height="0"/>
	<unicode hex="007E"/>
	<outline>
		<contour>
			<point x="375" y="270" type="curve" smooth="yes"/>
			<point x="427" y="270"/>
			<point x="465" y="298"/>
			<point x="489" y="327" type="curve" smooth="yes"/>
			<point x="503" y="344" name="hr01"/>
			<point x="515" y="364"/>
			<point x="525" y="385" type="curve"/>
			<point x="452" y="430" type="line"/>
			<point x="447" y="419"/>
			<point x="441" y="410"/>
			<point x="434" y="403" type="curve"/>
			<point x="422" y="388"/>
			<point x="404" y="376"/>
			<point x="380" y="376" type="curve" smooth="yes"/>
			<point x="320" y="376"/>
			<point x="271" y="450" name="hr02"/>
			<point x="185" y="450" type="curve" smooth="yes"/>
			<point x="132" y="450"/>
			<point x="95" y="421"/>
			<point x="71" y="392" type="curve" smooth="yes"/>
			<point x="57" y="375"/>
			<point x="45" y="356"/>
			<point x="35" y="335" type="curve"/>
			<point x="108" y="290" type="line"/>
			<point x="113" y="300"/>
			<point x="119" y="309"/>
			<point x="126" y="317" type="curve"/>
			<point x="138" y="330"/>
			<point x="156" y="344"/>
			<point x="180" y="344" type="curve" smooth="yes"/>
			<point x="239" y="344"/>
			<point x="290" y="270" name="hr03"/>
		</contour>
	</outline>
</glyph>
<glyph name="cent" format="2">
	<advance width="555" height="0"/>
	<unicode hex="00A2"/>
	<outline>
		<contour>
			<point x="245" y="-120" type="line" name="sv05"/>
			<point x="345" y="-120" type="line"/>
			<point x="345" y="-6" type="line" name="sv04"/>
			<point x="437" y="13" name="iv02"/>
			<point x="503" y="75"/>
			<point x="520" y="170" type="curve" name="sv03"/>
			<point x="408" y="170" type="line"/>
			<point x="391" y="113"/>
			<point x="352" y="85" name="ih01"/>
			<point x="290" y="85" type="curve" smooth="yes"/>
			<point x="215" y="85" name="iv01"/>
			<point x="152" y="134" name="at01"/>
			<point x="152" y="260" type="curve" smooth="yes" name="sv02"/>
			<point x="152" y="280" type="line" smooth="yes"/>
			<point x="152" y="396" name="sv01"/>
			<point x="215" y="445"/>
			<point x="290" y="445" type="curve" smooth="yes"/>
			<point x="365" y="445" name="ab01"/>
			<point x="395" y="409" name="ih02"/>
			<point x="408" y="360" type="curve" name="ih03"/>
			<point x="520" y="360" type="line"/>
			<point x="507" y="448"/>
			<point x="450" y="517"/>
			<point x="345" y="536" type="curve"/>
			<point x="345" y="630" type="line"/>
			<point x="245" y="630" type="line"/>
			<point x="245" y="537" type="line"/>
			<point x="130" y="518"/>
			<point x="40" y="432"/>
			<point x="40" y="280" type="curve" smooth="yes"/>
			<point x="40" y="260" type="line" smooth="yes"/>
			<point x="40" y="98"/>
			<point x="125" y="8"/>
			<point x="245" y="-8" type="curve"/>
		</contour>
	</outline>
</glyph>
<glyph name="sterling" format="2">
	<advance width="640" height="0"/>
	<unicode hex="00A3"/>
	<outline>
		<contour>
			<point x="55" y="0" type="line"/>
			<point x="585" y="0" type="line" name="ab01"/>
			<point x="585" y="104" type="line" name="sv07"/>
			<point x="265" y="104" type="line" name="sv06"/>
			<point x="265" y="293" type="line"/>
			<point x="440" y="293" type="line" name="sv05"/>
			<point x="440" y="387" type="line"/>
			<point x="265" y="387" type="line" name="sv04"/>
			<point x="265" y="500" type="line" smooth="yes"/>
			<point x="265" y="570" name="sv03"/>
			<point x="299" y="605"/>
			<point x="368" y="605" type="curve" smooth="yes" name="iv01"/>
			<point x="431" y="605" name="ih01"/>
			<point x="460" y="576"/>
			<point x="465" y="520" type="curve" name="hr01"/>
			<point x="585" y="520" type="line"/>
			<point x="580" y="635"/>
			<point x="505" y="711" name="sv02"/>
			<point x="368" y="711" type="curve" smooth="yes"/>
			<point x="228" y="711" name="sv01"/>
			<point x="145" y="633" name="ih02"/>
			<point x="145" y="500" type="curve" smooth="yes" name="ih03"/>
			<point x="145" y="387" type="line"/>
			<point x="65" y="387" type="line"/>
			<point x="65" y="293" type="line"/>
			<point x="145" y="293" type="line"/>
			<point x="145" y="104" type="line"/>
			<point x="55" y="104" type="line"/>
		</contour>
	</outline>
</glyph>
<glyph name="currency" format="2">
	<advance width="560" height="0"/>
	<unicode hex="00A4"/>
	<outline>
		<contour>
			<point x="104" y="115" type="line" name="sv05"/>
			<point x="177" y="188" type="line"/>
			<point x="208" y="169" name="av01"/>
			<point x="243" y="160"/>
			<point x="280" y="160" type="curve" smooth="yes" name="sv06"/>
			<point x="317" y="160"/>
			<point x="351" y="169" name="sv04"/>
			<point x="382" y="188" type="curve"/>
			<point x="456" y="115" type="line" name="sv03"/>
			<point x="525" y="184" type="line"/>
			<point x="451" y="257" type="line" name="sv02"/>
			<point x="470" y="288"/>
			<point x="480" y="321" name="ih01"/>
			<point x="480" y="360" type="curve" smooth="yes"/>
			<point x="480" y="397" name="sv01"/>
			<point x="470" y="431"/>
			<point x="451" y="462" type="curve" name="iv02"/>
			<point x="525" y="536" type="line"/>
			<point x="456" y="605" type="line" name="iv01"/>
			<point x="382" y="531" type="line"/>
			<point x="351" y="550"/>
			<point x="317" y="560"/>
			<point x="280" y="560" type="curve" smooth="yes" name="sv07"/>
			<point x="241" y="560"/>
			<point x="208" y="550" name="sh01"/>
			<point x="177" y="531" type="curve" name="ih02"/>
			<point x="104" y="605" type="line" name="ih03"/>
			<point x="35" y="536" type="line"/>
			<point x="108" y="462" type="line"/>
			<point x="89" y="431"/>
			<point x="80" y="397"/>
			<point x="80" y="360" type="curve" smooth="yes"/>
			<point x="80" y="323"/>
			<point x="89" y="288"/>
			<point x="108" y="257" type="curve"/>
			<point x="35" y="184" type="line"/>
		</contour>
		<contour>
			<point x="280" y="262" type="curve" smooth="yes"/>
			<point x="225" y="262"/>
			<point x="184" y="304"/>
			<point x="184" y="360" type="curve" smooth="yes"/>
			<point x="184" y="416"/>
			<point x="225" y="458"/>
			<point x="280" y="458" type="curve" smooth="yes"/>
			<point x="335" y="458"/>
			<point x="376" y="416"/>
			<point x="376" y="360" type="curve" smooth="yes"/>
			<point x="376" y="304"/>
			<point x="335" y="262"/>
		</contour>
	</outline>
</glyph>
<glyph name="brokenbar" format="2">
	<advance width="340" height="0"/>
	<unicode hex="00A6"/>
	<outline>
		<contour>
			<point x="119" y="-200" type="line"/>
			<point x="221" y="-200" type="line" name="ab01"/>
			<point x="221" y="170" type="line"/>
			<point x="119" y="170" type="line" name="ih01"/>
		</contour>
		<contour>
			<point x="119" y="330" type="line"/>
			<point x="221" y="330" type="line" name="iv01"/>
			<point x="221" y="700" type="line"/>
			<point x="119" y="700" type="line" name="sh01"/>
		</contour>
	</outline>
</glyph>
<glyph name="section" format="2">
	<advance width="580" height="0"/>
	<unicode hex="00A7"/>
	<outline>
		<contour>
			<point x="290" y="-211" type="curve" smooth="yes"/>
			<point x="430" y="-211"/>
			<point x="485" y="-141" name="iv02"/>
			<point x="485" y="-50" type="curve" smooth="yes"/>
			<point x="485" y="2" name="sv04"/>
			<point x="456" y="46"/>
			<point x="409" y="74" type="curve" name="sv02"/>
			<point x="477" y="109"/>
			<point x="520" y="170" name="iv04"/>
			<point x="520" y="250" type="curve" smooth="yes" name="at01"/>
			<point x="520" y="342"/>
			<point x="462" y="410" name="iv03"/>
			<point x="378" y="438" type="curve" smooth="yes"/>
			<point x="244" y="484" name="sv03"/>
			<point x="221" y="506"/>
			<point x="221" y="545" type="curve" smooth="yes" name="sv01"/>
			<point x="221" y="580" name="iv01"/>
			<point x="247" y="605"/>
			<point x="290" y="605" type="curve" smooth="yes" name="ih01"/>
			<point x="329" y="605"/>
			<point x="359" y="585" name="hr02"/>
			<point x="359" y="540" type="curve" name="iv05"/>
			<point x="485" y="540" type="line"/>
			<point x="485" y="640" name="sh01"/>
			<point x="430" y="711" name="ih02"/>
			<point x="290" y="711" type="curve" smooth="yes" name="ih03"/>
			<point x="150" y="711"/>
			<point x="95" y="640"/>
			<point x="95" y="550" type="curve" smooth="yes"/>
			<point x="95" y="497"/>
			<point x="124" y="453"/>
			<point x="171" y="425" type="curve"/>
			<point x="103" y="392"/>
			<point x="60" y="330" name="hr03"/>
			<point x="60" y="250" type="curve" smooth="yes" name="hr01"/>
			<point x="60" y="155"/>
			<point x="122" y="89"/>
			<point x="207" y="60" type="curve" smooth="yes"/>
			<point x="338" y="14"/>
			<point x="359" y="-13"/>
			<point x="359" y="-45" type="curve" smooth="yes"/>
			<point x="359" y="-78"/>
			<point x="337" y="-105"/>
			<point x="290" y="-105" type="curve" smooth="yes"/>
			<point x="244" y="-105"/>
			<point x="221" y="-83" name="hr04"/>
			<point x="221" y="-40" type="curve" name="hr02"/>
			<point x="95" y="-40" type="line"/>
			<point x="95" y="-140"/>
			<point x="150" y="-211"/>
		</contour>
		<contour>
			<point x="290" y="154" type="curve" smooth="yes"/>
			<point x="227" y="154"/>
			<point x="186" y="194"/>
			<point x="186" y="250" type="curve" smooth="yes" name="hr05"/>
			<point x="186" y="306"/>
			<point x="227" y="346"/>
			<point x="290" y="346" type="curve" smooth="yes"/>
			<point x="353" y="346"/>
			<point x="394" y="309"/>
			<point x="394" y="250" type="curve" smooth="yes"/>
			<point x="394" y="194"/>
			<point x="351" y="154"/>
		</contour>
	</outline>
</glyph>
<glyph name="copyright" format="2">
	<advance width="830" height="0"/>
	<unicode hex="00A9"/>
	<outline>
		<contour>
			<point x="415" y="-16" type="curve" smooth="yes"/>
			<point x="618" y="-16"/>
			<point x="780" y="146" name="av01"/>
			<point x="780" y="350" type="curve" smooth="yes"/>
			<point x="780" y="561" name="ih01"/>
			<point x="620" y="716"/>
			<point x="415" y="716" type="curve" smooth="yes"/>
			<point x="211" y="716" name="sv01"/>
			<point x="50" y="558"/>
			<point x="50" y="350" type="curve" smooth="yes" name="sh01"/>
			<point x="50" y="139"/>
			<point x="210" y="-16" name="iv03"/>
		</contour>
		<contour>
			<point x="415" y="70" type="curve" smooth="yes" name="sv03"/>
			<point x="261" y="70"/>
			<point x="139" y="191"/>
			<point x="139" y="350" type="curve" smooth="yes" name="sv02"/>
			<point x="139" y="509"/>
			<point x="261" y="630" name="iv02"/>
			<point x="415" y="630" type="curve" smooth="yes" name="iv01"/>
			<point x="569" y="630"/>
			<point x="691" y="509"/>
			<point x="691" y="350" type="curve" smooth="yes" name="sh02"/>
			<point x="691" y="189" name="ih02"/>
			<point x="569" y="70" name="ih03"/>
		</contour>
		<contour>
			<point x="415" y="139" type="curve" smooth="yes"/>
			<point x="519" y="139"/>
			<point x="582" y="200"/>
			<point x="590" y="285" type="curve"/>
			<point x="492" y="285" type="line"/>
			<point x="483" y="241" name="hr01"/>
			<point x="463" y="217"/>
			<point x="415" y="217" type="curve" smooth="yes"/>
			<point x="366" y="217" name="hr02"/>
			<point x="328" y="258"/>
			<point x="328" y="345" type="curve" smooth="yes"/>
			<point x="328" y="355" type="line" smooth="yes"/>
			<point x="328" y="442"/>
			<point x="364" y="483"/>
			<point x="415" y="483" type="curve" smooth="yes"/>
			<point x="462" y="483"/>
			<point x="485" y="459"/>
			<point x="492" y="420" type="curve"/>
			<point x="590" y="420" type="line"/>
			<point x="581" y="504" name="hr03"/>
			<point x="522" y="561"/>
			<point x="415" y="561" type="curve" smooth="yes"/>
			<point x="306" y="561"/>
			<point x="230" y="483"/>
			<point x="230" y="355" type="curve" smooth="yes"/>
			<point x="230" y="345" type="line" smooth="yes" name="hr04"/>
			<point x="230" y="212"/>
			<point x="303" y="139"/>
		</contour>
	</outline>
</glyph>
<glyph name="logicalnot" format="2">
	<advance width="560" height="0"/>
	<unicode hex="00AC"/>
	<outline>
		<contour>
			<point x="405" y="140" type="line"/>
			<point x="515" y="140" type="line" name="iv01"/>
			<point x="515" y="412" type="line" name="av01"/>
			<point x="45" y="412" type="line"/>
			<point x="45" y="308" type="line"/>
			<point x="405" y="308" type="line" name="ih01"/>
		</contour>
	</outline>
</glyph>
<glyph name="registered" format="2">
	<advance width="650" height="0"/>
	<unicode hex="00AE"/>
	<outline>
		<contour>
			<point x="325" y="139" type="curve" smooth="yes"/>
			<point x="482" y="139"/>
			<point x="610" y="266" name="at01"/>
			<point x="610" y="425" type="curve" smooth="yes"/>
			<point x="610" y="584" name="ih01"/>
			<point x="482" y="711"/>
			<point x="325" y="711" type="curve" smooth="yes"/>
			<point x="168" y="711" name="sv01"/>
			<point x="40" y="584"/>
			<point x="40" y="425" type="curve" smooth="yes" name="sh01"/>
			<point x="40" y="266" name="iv02"/>
			<point x="168" y="139"/>
		</contour>
		<contour>
			<point x="325" y="204" type="curve" smooth="yes"/>
			<point x="203" y="204" name="sv04"/>
			<point x="111" y="297"/>
			<point x="111" y="425" type="curve" smooth="yes" name="sv03"/>
			<point x="111" y="554"/>
			<point x="203" y="646" name="sh02"/>
			<point x="325" y="646" type="curve" smooth="yes" name="iv01"/>
			<point x="447" y="646" name="iv03"/>
			<point x="539" y="554" name="sv05"/>
			<point x="539" y="425" type="curve" smooth="yes"/>
			<point x="539" y="296"/>
			<point x="447" y="204" name="sh03"/>
		</contour>
		<contour>
			<point x="215" y="275" type="line" name="ih03"/>
			<point x="289" y="275" type="line"/>
			<point x="289" y="383" type="line"/>
			<point x="315" y="383" type="line"/>
			<point x="375" y="275" type="line"/>
			<point x="455" y="275" type="line"/>
			<point x="387" y="390" type="line"/>
			<point x="435" y="403"/>
			<point x="455" y="434"/>
			<point x="455" y="478" type="curve" smooth="yes"/>
			<point x="455" y="539"/>
			<point x="420" y="575"/>
			<point x="325" y="575" type="curve" smooth="yes"/>
			<point x="215" y="575" type="line"/>
		</contour>
		<contour>
			<point x="289" y="441" type="line"/>
			<point x="289" y="515" type="line"/>
			<point x="321" y="515" type="line" smooth="yes"/>
			<point x="368" y="515"/>
			<point x="381" y="501"/>
			<point x="381" y="478" type="curve" smooth="yes"/>
			<point x="381" y="455"/>
			<point x="368" y="441"/>
			<point x="321" y="441" type="curve" smooth="yes"/>
		</contour>
	</outline>
</glyph>
<glyph name="degree" format="2">
	<advance width="390" height="0"/>
	<unicode hex="00B0"/>
	<outline>
		<contour>
			<point x="195" y="391" type="curve" smooth="yes"/>
			<point x="283" y="391"/>
			<point x="355" y="463" name="at01"/>
			<point x="355" y="551" type="curve" smooth="yes"/>
			<point x="355" y="639" name="ih01"/>
			<point x="283" y="711"/>
			<point x="195" y="711" type="curve" smooth="yes"/>
			<point x="107" y="711" name="sv01"/>
			<point x="35" y="639"/>
			<point x="35" y="551" type="curve" smooth="yes" name="sh01"/>
			<point x="35" y="463" name="ih02"/>
			<point x="107" y="391" name="ih03"/>
		</contour>
		<contour>
			<point x="195" y="481" type="curve" smooth="yes"/>
			<point x="156" y="481"/>
			<point x="125" y="512"/>
			<point x="125" y="551" type="curve" smooth="yes"/>
			<point x="125" y="590"/>
			<point x="156" y="621"/>
			<point x="195" y="621" type="curve" smooth="yes"/>
			<point x="234" y="621"/>
			<point x="265" y="590"/>
			<point x="265" y="551" type="curve" smooth="yes"/>
			<point x="265" y="512"/>
			<point x="234" y="481"/>
		</contour>
	</outline>
</glyph>
<glyph name="plusminus" format="2">
	<advance width="560" height="0"/>
	<unicode hex="00B1"/>
	<outline>
		<contour>
			<point x="45" y="78" type="line" name="sv01"/>
			<point x="515" y="78" type="line"/>
			<point x="515" y="182" type="line"/>
			<point x="45" y="182" type="line" name="sh01"/>
		</contour>
		<contour>
			<point x="225" y="270" type="line" name="iv01"/>
			<point x="335" y="270" type="line"/>
			<point x="335" y="358" type="line"/>
			<point x="515" y="358" type="line" name="sv04"/>
			<point x="515" y="462" type="line"/>
			<point x="335" y="462" type="line" name="sv03"/>
			<point x="335" y="645" type="line"/>
			<point x="225" y="645" type="line" name="sv02"/>
			<point x="225" y="462" type="line" name="av01"/>
			<point x="45" y="462" type="line"/>
			<point x="45" y="358" type="line"/>
			<point x="225" y="358" type="line" name="ih01"/>
		</contour>
	</outline>
</glyph>
<glyph name="uni00B2" format="2">
	<advance width="370" height="0"/>
	<unicode hex="00B2"/>
	<outline>
		<contour>
			<point x="25" y="380" type="line"/>
			<point x="345" y="380" type="line" name="ab01"/>
			<point x="345" y="468" type="line"/>
			<point x="172" y="468" type="line" name="sv01"/>
			<point x="245" y="523" type="line" smooth="yes" name="iv03"/>
			<point x="314" y="575"/>
			<point x="340" y="613" name="at01"/>
			<point x="340" y="665" type="curve" smooth="yes" name="iv02"/>
			<point x="340" y="737"/>
			<point x="285" y="791" name="ih01"/>
			<point x="185" y="791" type="curve" smooth="yes"/>
			<point x="85" y="791" name="iv01"/>
			<point x="30" y="736" name="sv02"/>
			<point x="30" y="655" type="curve" name="ih02"/>
			<point x="136" y="655" type="line" name="ih03"/>
			<point x="136" y="682"/>
			<point x="152" y="700" name="hr01"/>
			<point x="185" y="700" type="curve" smooth="yes" name="hr01"/>
			<point x="221" y="700"/>
			<point x="234" y="683"/>
			<point x="234" y="660" type="curve" smooth="yes"/>
			<point x="234" y="630"/>
			<point x="226" y="614"/>
			<point x="178" y="576" type="curve" smooth="yes"/>
			<point x="25" y="453" type="line"/>
		</contour>
	</outline>
</glyph>
<glyph name="uni00B3" format="2">
	<advance width="380" height="0"/>
	<unicode hex="00B3"/>
	<outline>
		<contour>
			<point x="190" y="369" type="curve" smooth="yes"/>
			<point x="301" y="369"/>
			<point x="355" y="424" name="iv05"/>
			<point x="355" y="492" type="curve" smooth="yes"/>
			<point x="355" y="548" name="at01"/>
			<point x="315" y="577" name="iv04"/>
			<point x="280" y="590" type="curve"/>
			<point x="315" y="603" name="sv02"/>
			<point x="345" y="624"/>
			<point x="345" y="676" type="curve" smooth="yes" name="iv02"/>
			<point x="345" y="743"/>
			<point x="297" y="791"/>
			<point x="190" y="791" type="curve" smooth="yes" name="iv03"/>
			<point x="86" y="791"/>
			<point x="35" y="741" name="sv01"/>
			<point x="35" y="665" type="curve"/>
			<point x="141" y="665" type="line" name="iv01"/>
			<point x="141" y="688" name="ih01"/>
			<point x="158" y="701" name="ih02"/>
			<point x="190" y="701" type="curve" smooth="yes" name="ih03"/>
			<point x="223" y="701"/>
			<point x="239" y="689"/>
			<point x="239" y="664" type="curve" smooth="yes"/>
			<point x="239" y="640"/>
			<point x="225" y="622"/>
			<point x="189" y="622" type="curve" smooth="yes"/>
			<point x="145" y="622" type="line" name="hr01"/>
			<point x="145" y="548" type="line"/>
			<point x="189" y="548" type="line" smooth="yes"/>
			<point x="236" y="548"/>
			<point x="249" y="530"/>
			<point x="249" y="503" type="curve" smooth="yes"/>
			<point x="249" y="478"/>
			<point x="231" y="459"/>
			<point x="190" y="459" type="curve" smooth="yes"/>
			<point x="145" y="459"/>
			<point x="131" y="472"/>
			<point x="131" y="500" type="curve" name="hr02"/>
			<point x="25" y="500" type="line"/>
			<point x="25" y="424"/>
			<point x="79" y="369"/>
		</contour>
	</outline>
</glyph>
<glyph name="paragraph" format="2">
	<advance width="630" height="0"/>
	<unicode hex="00B6"/>
	<outline>
		<contour>
			<point x="190" y="-200" type="line"/>
			<point x="292" y="-200" type="line" name="ab02"/>
			<point x="292" y="606" type="line" name="ih01"/>
			<point x="438" y="606" type="line"/>
			<point x="438" y="-200" type="line"/>
			<point x="540" y="-200" type="line" name="ab01"/>
			<point x="540" y="700" type="line"/>
			<point x="240" y="700" type="line" smooth="yes" name="at01"/>
			<point x="131" y="700"/>
			<point x="40" y="609" name="iv01"/>
			<point x="40" y="500" type="curve" smooth="yes" name="ih02"/>
			<point x="40" y="408" name="ih03"/>
			<point x="105" y="327"/>
			<point x="190" y="306" type="curve"/>
		</contour>
	</outline>
</glyph>
<glyph name="uni00B9" format="2">
	<advance width="260" height="0"/>
	<unicode hex="00B9"/>
	<outline>
		<contour>
			<point x="124" y="380" type="line"/>
			<point x="230" y="380" type="line" name="ab01"/>
			<point x="230" y="780" type="line"/>
			<point x="130" y="780" type="line" name="ih01"/>
			<point x="20" y="702" type="line"/>
			<point x="20" y="592" type="line" name="iv01"/>
			<point x="124" y="666" type="line" name="hr01"/>
		</contour>
	</outline>
</glyph>
<glyph name="ordmasculine" format="2">
	<advance width="380"/>
	<unicode hex="00BA"/>
	<outline>
		<contour>
			<point x="190" y="369" type="curve" smooth="yes"/>
			<point x="288" y="369"/>
			<point x="355" y="436"/>
			<point x="355" y="535" type="curve" smooth="yes" name="at01"/>
			<point x="355" y="545" type="line" smooth="yes"/>
			<point x="355" y="644"/>
			<point x="288" y="711" name="ih01"/>
			<point x="190" y="711" type="curve" smooth="yes"/>
			<point x="91" y="711"/>
			<point x="25" y="644"/>
			<point x="25" y="545" type="curve" smooth="yes" name="sv01"/>
			<point x="25" y="535" type="line" smooth="yes"/>
			<point x="25" y="436"/>
			<point x="91" y="369" name="sh01"/>
		</contour>
		<contour>
			<point x="190" y="459" type="curve" smooth="yes" name="ih03"/>
			<point x="154" y="459"/>
			<point x="131" y="482"/>
			<point x="131" y="535" type="curve" smooth="yes"/>
			<point x="131" y="545" type="line" smooth="yes"/>
			<point x="131" y="598"/>
			<point x="154" y="621"/>
			<point x="190" y="621" type="curve" smooth="yes"/>
			<point x="226" y="621"/>
			<point x="249" y="598"/>
			<point x="249" y="545" type="curve" smooth="yes"/>
			<point x="249" y="535" type="line" smooth="yes"/>
			<point x="249" y="482"/>
			<point x="226" y="459"/>
		</contour>
	</outline>
</glyph>
<glyph name="AE" format="2">
	<advance width="975" height="0"/>
	<unicode hex="00C6"/>
	<anchor x="488" y="0" name="bottom"/>
	<anchor x="488" y="700" name="top"/>
	<outline>
		<contour>
			<point x="10" y="0" type="line"/>
			<point x="138" y="0" type="line" name="ab02"/>
			<point x="230" y="158" type="line"/>
			<point x="450" y="158" type="line" name="sv04"/>
			<point x="450" y="0" type="line" name="ih01"/>
			<point x="920" y="0" type="line" name="ab01"/>
			<point x="920" y="104" type="line"/>
			<point x="570" y="104" type="line" name="sv03"/>
			<point x="570" y="308" type="line"/>
			<point x="890" y="308" type="line" name="sv02"/>
			<point x="890" y="412" type="line" name="iv01"/>
			<point x="570" y="412" type="line"/>
			<point x="570" y="596" type="line"/>
			<point x="920" y="596" type="line" name="sv01"/>
			<point x="920" y="700" type="line"/>
			<point x="420" y="700" type="line" name="at01"/>
		</contour>
		<contour>
			<point x="289" y="262" type="line"/>
			<point x="450" y="550" type="line" name="iv02"/>
			<point x="450" y="262" type="line" name="sh01"/>
		</contour>
	</outline>
</glyph>
<glyph name="Eth" format="2">
	<advance width="725" height="0"/>
	<unicode hex="00D0"/>
	<outline>
		<contour>
			<point x="110" y="0" type="line"/>
			<point x="325" y="0" type="line" smooth="yes"/>
			<point x="541" y="0"/>
			<point x="670" y="121"/>
			<point x="670" y="345" type="curve" smooth="yes"/>
			<point x="670" y="365" type="line" smooth="yes"/>
			<point x="670" y="586"/>
			<point x="547" y="700"/>
			<point x="335" y="700" type="curve" smooth="yes"/>
			<point x="110" y="700" type="line"/>
			<point x="110" y="402" type="line"/>
			<point x="30" y="402" type="line"/>
			<point x="30" y="308" type="line"/>
			<point x="110" y="308" type="line"/>
		</contour>
		<contour>
			<point x="230" y="104" type="line"/>
			<point x="230" y="308" type="line"/>
			<point x="390" y="308" type="line"/>
			<point x="390" y="402" type="line"/>
			<point x="230" y="402" type="line"/>
			<point x="230" y="596" type="line"/>
			<point x="325" y="596" type="line" smooth="yes"/>
			<point x="449" y="596"/>
			<point x="544" y="529"/>
			<point x="544" y="365" type="curve" smooth="yes"/>
			<point x="544" y="345" type="line" smooth="yes"/>
			<point x="544" y="169"/>
			<point x="452" y="104"/>
			<point x="315" y="104" type="curve" smooth="yes"/>
		</contour>
	</outline>
</glyph>
<glyph name="multiply" format="2">
	<advance width="560" height="0"/>
	<unicode hex="00D7"/>
	<outline>
		<contour>
			<point x="135" y="145" type="line" name="sv01"/>
			<point x="280" y="290" type="line" name="iv02"/>
			<point x="425" y="145" type="line" name="iv01"/>
			<point x="495" y="215" type="line"/>
			<point x="350" y="360" type="line" name="sv03"/>
			<point x="495" y="505" type="line"/>
			<point x="425" y="575" type="line" name="sv02"/>
			<point x="280" y="430" type="line" name="ih01"/>
			<point x="135" y="575" type="line" name="av01"/>
			<point x="65" y="505" type="line"/>
			<point x="210" y="360" type="line" name="iv03"/>
			<point x="65" y="215" type="line"/>
		</contour>
	</outline>
</glyph>
<glyph name="ae" format="2">
	<advance width="935" height="0"/>
	<unicode hex="00E6"/>
	<anchor x="468" y="0" name="bottom"/>
	<anchor x="468" y="530" name="top"/>
	<outline>
		<contour>
			<point x="225" y="-11" type="curve" smooth="yes"/>
			<point x="338" y="-11"/>
			<point x="411" y="27"/>
			<point x="450" y="92" type="curve"/>
			<point x="489" y="24"/>
			<point x="563" y="-11"/>
			<point x="655" y="-11" type="curve" smooth="yes"/>
			<point x="774" y="-11"/>
			<point x="864" y="46"/>
			<point x="885" y="150" type="curve" name="hr01"/>
			<point x="775" y="150" type="line"/>
			<point x="762" y="111"/>
			<point x="731" y="85" name="hr02"/>
			<point x="655" y="85" type="curve" smooth="yes"/>
			<point x="579" y="85"/>
			<point x="510" y="125"/>
			<point x="507" y="228" type="curve"/>
			<point x="895" y="228" type="line"/>
			<point x="895" y="290" type="line" smooth="yes"/>
			<point x="895" y="451"/>
			<point x="806" y="541"/>
			<point x="645" y="541" type="curve" smooth="yes"/>
			<point x="570" y="541"/>
			<point x="509" y="519"/>
			<point x="466" y="459" type="curve"/>
			<point x="435" y="511"/>
			<point x="370" y="541"/>
			<point x="290" y="541" type="curve" smooth="yes"/>
			<point x="159" y="541"/>
			<point x="80" y="476"/>
			<point x="75" y="385" type="curve"/>
			<point x="182" y="385" type="line"/>
			<point x="187" y="422"/>
			<point x="217" y="445" name="hr03"/>
			<point x="285" y="445" type="curve" smooth="yes" name="hr01"/>
			<point x="361" y="445"/>
			<point x="395" y="420"/>
			<point x="395" y="340" type="curve" smooth="yes"/>
			<point x="395" y="309" type="line"/>
			<point x="230" y="309" type="line" smooth="yes"/>
			<point x="109" y="309"/>
			<point x="45" y="260"/>
			<point x="45" y="155" type="curve" smooth="yes"/>
			<point x="45" y="60"/>
			<point x="110" y="-11"/>
		</contour>
		<contour>
			<point x="255" y="85" type="curve" smooth="yes"/>
			<point x="187" y="85"/>
			<point x="157" y="114"/>
			<point x="157" y="158" type="curve" smooth="yes"/>
			<point x="157" y="205"/>
			<point x="194" y="229"/>
			<point x="250" y="229" type="curve" smooth="yes"/>
			<point x="395" y="229" type="line"/>
			<point x="395" y="199" type="line" smooth="yes"/>
			<point x="395" y="124"/>
			<point x="330" y="85"/>
		</contour>
		<contour>
			<point x="650" y="445" type="curve" smooth="yes"/>
			<point x="726" y="445"/>
			<point x="782" y="415"/>
			<point x="785" y="312" type="curve"/>
			<point x="507" y="312" type="line"/>
			<point x="510" y="410"/>
			<point x="575" y="445"/>
		</contour>
	</outline>
</glyph>
<glyph name="eth" format="2">
	<advance width="605" height="0"/>
	<unicode hex="00F0"/>
	<anchor x="303" y="0" name="bottom"/>
	<anchor x="303" y="774" name="top"/>
	<outline>
		<contour>
			<point x="300" y="-11" type="curve" smooth="yes"/>
			<point x="436" y="-11"/>
			<point x="560" y="78"/>
			<point x="560" y="270" type="curve" smooth="yes" name="at01"/>
			<point x="560" y="290" type="line" smooth="yes"/>
			<point x="560" y="481" name="sv03"/>
			<point x="495" y="610"/>
			<point x="319" y="695" type="curve" name="sv01"/>
			<point x="343" y="739" type="line" name="sv02"/>
			<point x="290" y="763" type="line"/>
			<point x="266" y="718" type="line"/>
			<point x="238" y="729" name="iv04"/>
			<point x="209" y="738" name="iv03"/>
			<point x="177" y="747" type="curve" name="iv02"/>
			<point x="149" y="660" type="line" name="iv01"/>
			<point x="174" y="653"/>
			<point x="199" y="646"/>
			<point x="222" y="637" type="curve" name="ih01"/>
			<point x="199" y="592" type="line"/>
			<point x="252" y="568" type="line"/>
			<point x="277" y="615" type="line"/>
			<point x="344" y="584" name="sv04"/>
			<point x="389" y="544"/>
			<point x="420" y="481" type="curve"/>
			<point x="381" y="508" name="sh01"/>
			<point x="335" y="521" name="ih02"/>
			<point x="280" y="521" type="curve" smooth="yes" name="ih03"/>
			<point x="165" y="521"/>
			<point x="40" y="432"/>
			<point x="40" y="270" type="curve" smooth="yes"/>
			<point x="40" y="250" type="line" smooth="yes"/>
			<point x="40" y="78"/>
			<point x="164" y="-11"/>
		</contour>
		<contour>
			<point x="300" y="85" type="curve" smooth="yes"/>
			<point x="219" y="85"/>
			<point x="152" y="138"/>
			<point x="152" y="250" type="curve" smooth="yes"/>
			<point x="152" y="270" type="line" smooth="yes"/>
			<point x="152" y="371"/>
			<point x="219" y="425"/>
			<point x="300" y="425" type="curve" smooth="yes"/>
			<point x="381" y="425"/>
			<point x="448" y="371"/>
			<point x="448" y="270" type="curve" smooth="yes"/>
			<point x="448" y="250" type="line" smooth="yes"/>
			<point x="448" y="138"/>
			<point x="381" y="85"/>
		</contour>
	</outline>
</glyph>
<glyph name="divide" format="2">
	<advance width="560" height="0"/>
	<unicode hex="00F7"/>
	<outline>
		<contour>
			<point x="45" y="308" type="line"/>
			<point x="515" y="308" type="line" name="sv01"/>
			<point x="515" y="412" type="line" name="av01"/>
			<point x="45" y="412" type="line" name="sh01"/>
		</contour>
		<contour>
			<point x="280" y="88" type="curve" smooth="yes"/>
			<point x="325" y="88"/>
			<point x="360" y="123" name="sv02"/>
			<point x="360" y="168" type="curve" smooth="yes"/>
			<point x="360" y="215" name="ih01"/>
			<point x="325" y="248"/>
			<point x="280" y="248" type="curve" smooth="yes"/>
			<point x="235" y="248" name="sv03"/>
			<point x="200" y="215"/>
			<point x="200" y="168" type="curve" smooth="yes" name="sh02"/>
			<point x="200" y="123" name="ih02"/>
			<point x="235" y="88" name="ih03"/>
		</contour>
		<contour>
			<point x="280" y="472" type="curve" smooth="yes"/>
			<point x="325" y="472"/>
			<point x="360" y="507"/>
			<point x="360" y="552" type="curve" smooth="yes"/>
			<point x="360" y="599"/>
			<point x="325" y="632"/>
			<point x="280" y="632" type="curve" smooth="yes"/>
			<point x="235" y="632"/>
			<point x="200" y="599"/>
			<point x="200" y="552" type="curve" smooth="yes"/>
			<point x="200" y="507"/>
			<point x="235" y="472"/>
		</contour>
	</outline>
</glyph>
<glyph name="oslash" format="2">
	<advance width="600" height="0"/>
	<unicode hex="00F8"/>
	<anchor x="300" y="530" name="top"/>
	<outline>
		<contour>
			<point x="300" y="-11" type="curve" smooth="yes"/>
			<point x="447" y="-11"/>
			<point x="560" y="82"/>
			<point x="560" y="260" type="curve" smooth="yes" name="iv02"/>
			<point x="560" y="280" type="line" smooth="yes"/>
			<point x="560" y="353" name="at02"/>
			<point x="538" y="412"/>
			<point x="501" y="456" type="curve" name="at01"/>
			<point x="540" y="501" type="line"/>
			<point x="494" y="541" type="line"/>
			<point x="456" y="496" type="line" name="iv01"/>
			<point x="413" y="526"/>
			<point x="361" y="541" name="ab01"/>
			<point x="300" y="541" type="curve" smooth="yes"/>
			<point x="153" y="541" name="ih01"/>
			<point x="40" y="448"/>
			<point x="40" y="280" type="curve" smooth="yes"/>
			<point x="40" y="260" type="line" smooth="yes" name="iv03"/>
			<point x="40" y="180"/>
			<point x="62" y="119"/>
			<point x="99" y="75" type="curve" name="sh01"/>
			<point x="60" y="29" type="line"/>
			<point x="106" y="-11" type="line"/>
			<point x="144" y="34" type="line" name="iv04"/>
			<point x="187" y="4"/>
			<point x="239" y="-11"/>
		</contour>
		<contour>
			<point x="300" y="85" type="curve" smooth="yes" name="ih02"/>
			<point x="268" y="85" name="ih03"/>
			<point x="238" y="94"/>
			<point x="211" y="113" type="curve"/>
			<point x="428" y="369" type="line"/>
			<point x="440" y="345"/>
			<point x="448" y="316"/>
			<point x="448" y="280" type="curve" smooth="yes"/>
			<point x="448" y="260" type="line" smooth="yes"/>
			<point x="448" y="136"/>
			<point x="376" y="85"/>
		</contour>
		<contour>
			<point x="300" y="445" type="curve" smooth="yes"/>
			<point x="332" y="445"/>
			<point x="362" y="436"/>
			<point x="389" y="417" type="curve"/>
			<point x="172" y="161" type="line"/>
			<point x="159" y="188"/>
			<point x="152" y="221"/>
			<point x="152" y="260" type="curve" smooth="yes"/>
			<point x="152" y="280" type="line" smooth="yes"/>
			<point x="152" y="394"/>
			<point x="224" y="445"/>
		</contour>
	</outline>
</glyph>
<glyph name="thorn" format="2">
	<advance width="615" height="0"/>
	<unicode hex="00FE"/>
	<anchor x="308" y="0" name="bottom"/>
	<anchor x="308" y="530" name="top"/>
	<outline>
		<contour>
			<point x="70" y="-200" type="line"/>
			<point x="180" y="-200" type="line"/>
			<point x="180" y="83" type="line"/>
			<point x="207" y="24"/>
			<point x="275" y="-11"/>
			<point x="351" y="-11" type="curve" smooth="yes"/>
			<point x="486" y="-11"/>
			<point x="575" y="79"/>
			<point x="575" y="260" type="curve" smooth="yes"/>
			<point x="575" y="280" type="line" smooth="yes"/>
			<point x="575" y="455"/>
			<point x="489" y="541"/>
			<point x="352" y="541" type="curve" smooth="yes"/>
			<point x="272" y="541"/>
			<point x="213" y="501"/>
			<point x="180" y="446" type="curve"/>
			<point x="180" y="700" type="line"/>
			<point x="70" y="700" type="line"/>
		</contour>
		<contour>
			<point x="326" y="85" type="curve" smooth="yes"/>
			<point x="249" y="85"/>
			<point x="180" y="134"/>
			<point x="180" y="235" type="curve" smooth="yes"/>
			<point x="180" y="305" type="line" smooth="yes"/>
			<point x="180" y="388"/>
			<point x="239" y="445"/>
			<point x="326" y="445" type="curve" smooth="yes"/>
			<point x="410" y="445"/>
			<point x="463" y="392"/>
			<point x="463" y="280" type="curve" smooth="yes"/>
			<point x="463" y="260" type="line" smooth="yes"/>
			<point x="463" y="141"/>
			<point x="407" y="85"/>
		</contour>
	</outline>
</glyph>
<glyph name="dcroat" format="2">
	<advance width="615"/>
	<unicode hex="0111"/>
	<outline>
		<component base="d"/>
		<contour>
			<point x="293" y="638" type="line"/>
			<point x="293" y="572" type="line"/>
			<point x="639" y="572" type="line"/>
			<point x="639" y="638" type="line"/>
		</contour>
	</outline>
</glyph>
<glyph name="Hbar" format="2">
	<advance width="760"/>
	<unicode hex="0126"/>
	<outline>
		<component base="H"/>
		<contour>
			<point x="24" y="606" type="line"/>
			<point x="24" y="512" type="line"/>
			<point x="736" y="512" type="line" name="sv01"/>
			<point x="736" y="606" type="line" name="iv01"/>
		</contour>
	</outline>
</glyph>
<glyph name="hbar" format="2">
	<advance width="605"/>
	<unicode hex="0127"/>
	<outline>
		<component base="h"/>
		<contour>
			<point x="-13" y="638" type="line"/>
			<point x="-13" y="572" type="line"/>
			<point x="333" y="572" type="line"/>
			<point x="333" y="638" type="line"/>
		</contour>
	</outline>
</glyph>
<glyph name="Lslash" format="2">
	<advance width="600" height="0"/>
	<unicode hex="0141"/>
	<outline>
		<contour>
			<point x="120" y="0" type="line"/>
			<point x="580" y="0" type="line" name="ab01"/>
			<point x="580" y="104" type="line"/>
			<point x="240" y="104" type="line" name="sv01"/>
			<point x="240" y="318" type="line" name="iv05"/>
			<point x="410" y="416" type="line"/>
			<point x="410" y="520" type="line" name="iv01"/>
			<point x="240" y="422" type="line" name="iv04"/>
			<point x="240" y="700" type="line" name="ih01"/>
			<point x="120" y="700" type="line" name="hr01"/>
			<point x="120" y="353" type="line" name="iv03"/>
			<point x="20" y="295" type="line" name="hr02"/>
			<point x="20" y="191" type="line" name="iv02"/>
			<point x="120" y="249" type="line" name="hr03"/>
		</contour>
	</outline>
</glyph>
<glyph name="lslash" format="2">
	<advance width="355" height="0"/>
	<unicode hex="0142"/>
	<outline>
		<contour>
			<point x="265" y="-5" type="curve" smooth="yes"/>
			<point x="280" y="-5"/>
			<point x="309" y="-5"/>
			<point x="320" y="-2" type="curve"/>
			<point x="320" y="93" type="line"/>
			<point x="309" y="92"/>
			<point x="300" y="91"/>
			<point x="285" y="91" type="curve" smooth="yes"/>
			<point x="228" y="91"/>
			<point x="210" y="112" name="hr01"/>
			<point x="210" y="177" type="curve" smooth="yes" name="hr01"/>
			<point x="210" y="383" type="line"/>
			<point x="320" y="447" type="line" name="hr02"/>
			<point x="320" y="541" type="line"/>
			<point x="210" y="477" type="line" name="hr03"/>
			<point x="210" y="700" type="line"/>
			<point x="100" y="700" type="line" name="hr04"/>
			<point x="100" y="414" type="line"/>
			<point x="20" y="368" type="line" name="hr05"/>
			<point x="20" y="274" type="line"/>
			<point x="100" y="320" type="line" name="hr06"/>
			<point x="100" y="169" type="line" smooth="yes"/>
			<point x="100" y="40"/>
			<point x="150" y="-5"/>
		</contour>
	</outline>
</glyph>
<glyph name="Eng" format="2">
	<advance width="760"/>
	<unicode hex="014A"/>
	<anchor x="300" y="0" name="bottom"/>
	<anchor x="300" y="700" name="top"/>
	<outline>
		<contour>
			<point x="500" y="-211" type="curve" smooth="yes"/>
			<point x="628" y="-211"/>
			<point x="670" y="-166"/>
			<point x="670" y="0" type="curve" smooth="yes"/>
			<point x="670" y="530" type="line"/>
			<point x="554" y="530" type="line" name="hr01"/>
			<point x="554" y="5" type="line" smooth="yes"/>
			<point x="554" y="-90"/>
			<point x="536" y="-115"/>
			<point x="485" y="-115" type="curve" smooth="yes"/>
			<point x="474" y="-115"/>
			<point x="461" y="-115"/>
			<point x="450" y="-112" type="curve" name="hr01"/>
			<point x="450" y="-208" type="line"/>
			<point x="465" y="-211"/>
			<point x="485" y="-211"/>
		</contour>
		<component base="N"/>
	</outline>
</glyph>
<glyph name="eng" format="2">
	<advance width="605"/>
	<unicode hex="014B"/>
	<anchor x="303" y="0" name="bottom"/>
	<anchor x="303" y="530" name="top"/>
	<outline>
		<contour>
			<point x="370" y="-211" type="curve" smooth="yes"/>
			<point x="498" y="-211"/>
			<point x="540" y="-166"/>
			<point x="540" y="0" type="curve" smooth="yes"/>
			<point x="540" y="130" type="line"/>
			<point x="430" y="130" type="line" name="hr01"/>
			<point x="430" y="5" type="line" smooth="yes"/>
			<point x="430" y="-90"/>
			<point x="406" y="-115"/>
			<point x="355" y="-115" type="curve" smooth="yes"/>
			<point x="344" y="-115"/>
			<point x="331" y="-115"/>
			<point x="320" y="-112" type="curve" name="hr01"/>
			<point x="320" y="-208" type="line"/>
			<point x="335" y="-211"/>
			<point x="355" y="-211"/>
		</contour>
		<component base="n"/>
	</outline>
</glyph>
<glyph name="florin" format="2">
	<advance width="370" height="0"/>
	<unicode hex="0192"/>
	<outline>
		<contour>
			<point x="45" y="-210" type="curve" smooth="yes"/>
			<point x="161" y="-210"/>
			<point x="210" y="-155"/>
			<point x="210" y="-50" type="curve" smooth="yes"/>
			<point x="210" y="436" type="line"/>
			<point x="340" y="436" type="line"/>
			<point x="340" y="530" type="line"/>
			<point x="210" y="530" type="line"/>
			<point x="210" y="540" type="line" smooth="yes"/>
			<point x="210" y="591"/>
			<point x="229" y="609"/>
			<point x="285" y="609" type="curve" smooth="yes"/>
			<point x="305" y="609"/>
			<point x="330" y="609"/>
			<point x="350" y="606" type="curve" name="hr01"/>
			<point x="350" y="702" type="line"/>
			<point x="320" y="704"/>
			<point x="295" y="705"/>
			<point x="275" y="705" type="curve" smooth="yes"/>
			<point x="150" y="705"/>
			<point x="100" y="650"/>
			<point x="100" y="545" type="curve" smooth="yes"/>
			<point x="100" y="530" type="line"/>
			<point x="30" y="530" type="line"/>
			<point x="30" y="436" type="line"/>
			<point x="100" y="436" type="line"/>
			<point x="100" y="-45" type="line" smooth="yes"/>
			<point x="100" y="-96"/>
			<point x="82" y="-114"/>
			<point x="35" y="-114" type="curve" smooth="yes"/>
			<point x="24" y="-114"/>
			<point x="1" y="-114"/>
			<point x="-10" y="-111" type="curve" name="hr01"/>
			<point x="-10" y="-207" type="line"/>
			<point x="10" y="-210"/>
			<point x="34" y="-210"/>
		</contour>
	</outline>
</glyph>
<glyph name="uni0237" format="2">
	<advance width="270" height="0"/>
	<unicode hex="0237"/>
	<anchor x="135" y="-226" name="bottom"/>
	<anchor x="135" y="530" name="top"/>
	<outline>
		<contour>
			<point x="20" y="-211" type="curve" smooth="yes"/>
			<point x="148" y="-211"/>
			<point x="190" y="-166"/>
			<point x="190" y="0" type="curve" smooth="yes"/>
			<point x="190" y="530" type="line"/>
			<point x="80" y="530" type="line" name="hr01"/>
			<point x="80" y="5" type="line" smooth="yes"/>
			<point x="80" y="-90"/>
			<point x="56" y="-115"/>
			<point x="5" y="-115" type="curve" smooth="yes"/>
			<point x="-6" y="-115"/>
			<point x="-19" y="-115"/>
			<point x="-30" y="-112" type="curve" name="hr01"/>
			<point x="-30" y="-208" type="line"/>
			<point x="-15" y="-211"/>
			<point x="5" y="-211"/>
		</contour>
	</outline>
</glyph>
<glyph name="gravecomb" format="2">
	<advance width="280" height="0"/>
	<unicode hex="0300"/>
	<anchor x="215" y="530" name="_top"/>
	<anchor x="140" y="740" name="top"/>
	<outline>
		<contour>
			<point x="170" y="580" type="line"/>
			<point x="260" y="580" type="line" name="ab01"/>
			<point x="150" y="740" type="line" name="ih01"/>
			<point x="20" y="740" type="line" name="sv01"/>
		</contour>
	</outline>
</glyph>
<glyph name="uni0302" format="2">
	<advance width="370" height="0"/>
	<unicode hex="0302"/>
	<anchor x="185" y="530" name="_top"/>
	<anchor x="185" y="740" name="top"/>
	<outline>
		<contour>
			<point x="20" y="580" type="line"/>
			<point x="110" y="580" type="line" name="ab01"/>
			<point x="185" y="660" type="line" name="ih01"/>
			<point x="260" y="580" type="line"/>
			<point x="350" y="580" type="line" name="ab02"/>
			<point x="240" y="740" type="line"/>
			<point x="130" y="740" type="line" name="sv01"/>
		</contour>
	</outline>
</glyph>
<glyph name="tildecomb" format="2">
	<advance width="360" height="0"/>
	<unicode hex="0303"/>
	<anchor x="180" y="530" name="_top"/>
	<anchor x="180" y="725" name="top"/>
	<outline>
		<contour>
			<point x="280" y="720" type="line"/>
			<point x="277" y="712"/>
			<point x="275" y="708"/>
			<point x="271" y="700" type="curve"/>
			<point x="264" y="689"/>
			<point x="255" y="680"/>
			<point x="240" y="680" type="curve" smooth="yes"/>
			<point x="205" y="680"/>
			<point x="180" y="725"/>
			<point x="120" y="725" type="curve" smooth="yes"/>
			<point x="80" y="725"/>
			<point x="55" y="700"/>
			<point x="40" y="675" type="curve" smooth="yes"/>
			<point x="31" y="660"/>
			<point x="25" y="644"/>
			<point x="20" y="625" type="curve"/>
			<point x="80" y="600" type="line"/>
			<point x="83" y="608"/>
			<point x="85" y="612"/>
			<point x="89" y="620" type="curve"/>
			<point x="96" y="631"/>
			<point x="105" y="640" name="hr01"/>
			<point x="120" y="640" type="curve" smooth="yes"/>
			<point x="155" y="640"/>
			<point x="179" y="595" name="hr02"/>
			<point x="240" y="595" type="curve" smooth="yes"/>
			<point x="280" y="595"/>
			<point x="305" y="620"/>
			<point x="320" y="645" type="curve" smooth="yes"/>
			<point x="329" y="660"/>
			<point x="335" y="676"/>
			<point x="340" y="695" type="curve"/>
		</contour>
	</outline>
</glyph>
<glyph name="uni0306" format="2">
	<advance width="360" height="0"/>
	<unicode hex="0306"/>
	<anchor x="180" y="530" name="_top"/>
	<anchor x="180" y="730" name="top"/>
	<outline>
		<contour>
			<point x="180" y="590" type="curve" smooth="yes"/>
			<point x="289" y="590" name="sv03"/>
			<point x="340" y="641" name="sv02"/>
			<point x="340" y="730" type="curve" name="iv01"/>
			<point x="238" y="730" type="line"/>
			<point x="238" y="682" name="sv01"/>
			<point x="219" y="662" name="ih01"/>
			<point x="180" y="662" type="curve" smooth="yes" name="ih02"/>
			<point x="141" y="662" name="ih03"/>
			<point x="122" y="682"/>
			<point x="122" y="730" type="curve" name="hr01"/>
			<point x="20" y="730" type="line"/>
			<point x="20" y="641"/>
			<point x="69" y="590"/>
		</contour>
	</outline>
</glyph>
<glyph name="uni0307" format="2">
	<advance width="180" height="0"/>
	<unicode hex="0307"/>
	<anchor x="90" y="530" name="_top"/>
	<anchor x="90" y="730" name="top"/>
	<outline>
		<contour>
			<point x="90" y="590" type="curve" smooth="yes"/>
			<point x="131" y="590"/>
			<point x="160" y="619" name="sv01"/>
			<point x="160" y="660" type="curve" smooth="yes"/>
			<point x="160" y="701" name="ih01"/>
			<point x="131" y="730" name="ih02"/>
			<point x="90" y="730" type="curve" smooth="yes" name="ih03"/>
			<point x="49" y="730"/>
			<point x="20" y="701"/>
			<point x="20" y="660" type="curve" smooth="yes"/>
			<point x="20" y="619"/>
			<point x="49" y="590"/>
		</contour>
	</outline>
</glyph>
<glyph name="uni0308" format="2">
	<advance width="380" height="0"/>
	<unicode hex="0308"/>
	<anchor x="190" y="530" name="_top"/>
	<anchor x="190" y="726" name="top"/>
	<outline>
		<contour>
			<point x="86" y="594" type="curve" smooth="yes"/>
			<point x="125" y="594"/>
			<point x="152" y="621"/>
			<point x="152" y="660" type="curve" smooth="yes"/>
			<point x="152" y="699"/>
			<point x="125" y="726"/>
			<point x="86" y="726" type="curve" smooth="yes"/>
			<point x="47" y="726"/>
			<point x="20" y="699"/>
			<point x="20" y="660" type="curve" smooth="yes"/>
			<point x="20" y="621"/>
			<point x="47" y="594"/>
		</contour>
		<contour>
			<point x="294" y="594" type="curve" smooth="yes"/>
			<point x="333" y="594"/>
			<point x="360" y="621"/>
			<point x="360" y="660" type="curve" smooth="yes"/>
			<point x="360" y="699"/>
			<point x="333" y="726"/>
			<point x="294" y="726" type="curve" smooth="yes"/>
			<point x="255" y="726"/>
			<point x="228" y="699"/>
			<point x="228" y="660" type="curve" smooth="yes"/>
			<point x="228" y="621"/>
			<point x="255" y="594"/>
		</contour>
	</outline>
</glyph>
<glyph name="uni030A" format="2">
	<advance width="280" height="0"/>
	<unicode hex="030A"/>
	<anchor x="140" y="530" name="_top"/>
	<anchor x="140" y="790" name="top"/>
	<outline>
		<contour>
			<point x="140" y="570" type="curve" smooth="yes"/>
			<point x="208" y="570"/>
			<point x="260" y="617" name="sv01"/>
			<point x="260" y="680" type="curve" smooth="yes"/>
			<point x="260" y="743" name="ih01"/>
			<point x="208" y="790"/>
			<point x="140" y="790" type="curve" smooth="yes"/>
			<point x="72" y="790" name="iv01"/>
			<point x="20" y="743"/>
			<point x="20" y="680" type="curve" smooth="yes" name="sh01"/>
			<point x="20" y="617" name="ih02"/>
			<point x="72" y="570" name="ih03"/>
		</contour>
		<contour>
			<point x="140" y="638" type="curve" smooth="yes"/>
			<point x="116" y="638"/>
			<point x="98" y="656"/>
			<point x="98" y="680" type="curve" smooth="yes"/>
			<point x="98" y="704"/>
			<point x="116" y="722"/>
			<point x="140" y="722" type="curve" smooth="yes"/>
			<point x="164" y="722"/>
			<point x="182" y="704"/>
			<point x="182" y="680" type="curve" smooth="yes"/>
			<point x="182" y="656"/>
			<point x="164" y="638"/>
		</contour>
	</outline>
</glyph>
<glyph name="uni030B" format="2">
	<advance width="553" height="0"/>
	<unicode hex="030B"/>
	<anchor x="210" y="530" name="_top"/>
	<anchor x="282" y="740" name="top"/>
	<outline>
		<contour>
			<point x="141" y="580" type="line"/>
			<point x="278" y="740" type="line" name="ih01"/>
			<point x="154" y="740" type="line" name="sv01"/>
			<point x="58" y="580" type="line" name="ab01"/>
		</contour>
		<contour>
			<point x="338" y="580" type="line"/>
			<point x="505" y="740" type="line" name="sv03"/>
			<point x="378" y="740" type="line" name="sv02"/>
			<point x="251" y="580" type="line" name="sh01"/>
		</contour>
	</outline>
</glyph>
<glyph name="uni030C" format="2">
	<advance width="370" height="0"/>
	<unicode hex="030C"/>
	<anchor x="185" y="530" name="_top"/>
	<anchor x="185" y="740" name="top"/>
	<outline>
		<contour>
			<point x="130" y="580" type="line"/>
			<point x="240" y="580" type="line" name="ab01"/>
			<point x="350" y="740" type="line" name="sv03"/>
			<point x="260" y="740" type="line" name="sv02"/>
			<point x="185" y="660" type="line" name="ih01"/>
			<point x="110" y="740" type="line"/>
			<point x="20" y="740" type="line" name="sv01"/>
		</contour>
	</outline>
</glyph>
<glyph name="uni0327" format="2">
	<advance width="230" height="0"/>
	<unicode hex="0327"/>
	<anchor x="103" y="0" name="_bottom"/>
	<anchor x="115" y="-211" name="bottom"/>
	<outline>
		<contour>
			<point x="85" y="-211" type="curve" smooth="yes"/>
			<point x="173" y="-211"/>
			<point x="210" y="-174"/>
			<point x="210" y="-115" type="curve" smooth="yes"/>
			<point x="210" y="-84"/>
			<point x="197" y="-49"/>
			<point x="144" y="-37" type="curve"/>
			<point x="151" y="10" type="line"/>
			<point x="83" y="10" type="line"/>
			<point x="66" y="-80" type="line"/>
			<point x="109" y="-80"/>
			<point x="118" y="-94" name="hr01"/>
			<point x="118" y="-111" type="curve" smooth="yes"/>
			<point x="118" y="-126"/>
			<point x="107" y="-142"/>
			<point x="70" y="-142" type="curve" smooth="yes" name="hr01"/>
			<point x="55" y="-142"/>
			<point x="43" y="-141"/>
			<point x="34" y="-140" type="curve"/>
			<point x="20" y="-138" type="line" name="hr02"/>
			<point x="20" y="-204" type="line"/>
			<point x="25" y="-205"/>
			<point x="30" y="-207"/>
			<point x="37" y="-208" type="curve"/>
			<point x="48" y="-210"/>
			<point x="64" y="-211"/>
		</contour>
	</outline>
</glyph>
<glyph name="uni0328" format="2">
	<advance width="240"/>
	<unicode hex="0328"/>
	<anchor x="190" y="0" name="_ogonek"/>
	<outline>
		<contour>
			<point x="145" y="-211" type="curve" smooth="yes"/>
			<point x="166" y="-211"/>
			<point x="182" y="-210"/>
			<point x="193" y="-208" type="curve"/>
			<point x="200" y="-207"/>
			<point x="205" y="-205"/>
			<point x="210" y="-204" type="curve"/>
			<point x="210" y="-138" type="line" name="hr02"/>
			<point x="196" y="-140" type="line"/>
			<point x="187" y="-141"/>
			<point x="175" y="-142"/>
			<point x="166" y="-142" type="curve" smooth="yes" name="hr01"/>
			<point x="137" y="-142"/>
			<point x="126" y="-126"/>
			<point x="126" y="-100" type="curve" smooth="yes"/>
			<point x="126" y="-53" name="hr01"/>
			<point x="174" y="-5"/>
			<point x="190" y="0" type="curve" name="ab01"/>
			<point x="129" y="0" type="line"/>
			<point x="83" y="-14"/>
			<point x="38" y="-59"/>
			<point x="38" y="-115" type="curve" smooth="yes"/>
			<point x="38" y="-174"/>
			<point x="71" y="-211"/>
		</contour>
	</outline>
</glyph>
<glyph name="uni0402" format="2">
	<advance width="825" height="0"/>
	<unicode hex="0402"/>
	<outline>
		<contour>
			<point x="255" y="0" type="line" name="hr02"/>
			<point x="375" y="0" type="line"/>
			<point x="375" y="302" type="line"/>
			<point x="406" y="322"/>
			<point x="458" y="342"/>
			<point x="530" y="342" type="curve" smooth="yes"/>
			<point x="619" y="342"/>
			<point x="659" y="303"/>
			<point x="659" y="232" type="curve" smooth="yes"/>
			<point x="659" y="212" type="line" smooth="yes"/>
			<point x="659" y="140"/>
			<point x="619" y="101" name="hr01"/>
			<point x="530" y="101" type="curve" smooth="yes"/>
			<point x="519" y="101"/>
			<point x="501" y="101"/>
			<point x="490" y="104" type="curve"/>
			<point x="490" y="-2" type="line"/>
			<point x="501" y="-5"/>
			<point x="529" y="-5"/>
			<point x="540" y="-5" type="curve" smooth="yes"/>
			<point x="711" y="-5"/>
			<point x="785" y="69"/>
			<point x="785" y="212" type="curve" smooth="yes"/>
			<point x="785" y="232" type="line" smooth="yes"/>
			<point x="785" y="373"/>
			<point x="711" y="448"/>
			<point x="555" y="448" type="curve" smooth="yes"/>
			<point x="475" y="448"/>
			<point x="410" y="427"/>
			<point x="375" y="406" type="curve"/>
			<point x="375" y="596" type="line"/>
			<point x="610" y="596" type="line"/>
			<point x="610" y="700" type="line"/>
			<point x="20" y="700" type="line"/>
			<point x="20" y="596" type="line"/>
			<point x="255" y="596" type="line" name="hr01"/>
		</contour>
	</outline>
</glyph>
<glyph name="uni0404" format="2">
	<advance width="690" height="0"/>
	<unicode hex="0404"/>
	<outline>
		<contour>
			<point x="360" y="-11" type="curve" smooth="yes"/>
			<point x="512" y="-11" name="iv03"/>
			<point x="629" y="55"/>
			<point x="645" y="220" type="curve" name="sv03"/>
			<point x="518" y="220" type="line"/>
			<point x="507" y="143" name="sv02"/>
			<point x="456" y="95" name="iv02"/>
			<point x="360" y="95" type="curve" smooth="yes"/>
			<point x="274" y="95" name="sv01"/>
			<point x="193" y="147"/>
			<point x="182" y="305" type="curve" name="iv01"/>
			<point x="445" y="305" type="line" name="at01"/>
			<point x="445" y="405" type="line"/>
			<point x="182" y="405" type="line"/>
			<point x="193" y="552" name="ih01"/>
			<point x="266" y="605" name="ih02"/>
			<point x="360" y="605" type="curve" smooth="yes" name="ih03"/>
			<point x="441" y="605"/>
			<point x="502" y="567"/>
			<point x="519" y="480" type="curve" name="hr02"/>
			<point x="645" y="480" type="line"/>
			<point x="632" y="634"/>
			<point x="515" y="711"/>
			<point x="360" y="711" type="curve" smooth="yes"/>
			<point x="188" y="711"/>
			<point x="55" y="608"/>
			<point x="55" y="365" type="curve" smooth="yes"/>
			<point x="55" y="345" type="line" smooth="yes"/>
			<point x="55" y="92"/>
			<point x="188" y="-11"/>
		</contour>
	</outline>
</glyph>
<glyph name="uni0409" format="2">
	<advance width="1060" height="0"/>
	<unicode hex="0409"/>
	<outline>
		<contour>
			<point x="60" y="-11" type="curve" smooth="yes"/>
			<point x="190" y="-11"/>
			<point x="256" y="64"/>
			<point x="256" y="500" type="curve" smooth="yes" name="sv01"/>
			<point x="256" y="596" type="line" name="ih01"/>
			<point x="500" y="596" type="line" name="ab02"/>
			<point x="500" y="0" type="line"/>
			<point x="745" y="0" type="line" smooth="yes" name="iv02"/>
			<point x="934" y="0"/>
			<point x="1020" y="85"/>
			<point x="1020" y="218" type="curve" smooth="yes" name="at01"/>
			<point x="1020" y="351"/>
			<point x="934" y="436" name="iv01"/>
			<point x="745" y="436" type="curve" smooth="yes"/>
			<point x="620" y="436" type="line"/>
			<point x="620" y="700" type="line" name="ab01"/>
			<point x="140" y="700" type="line" name="hr01"/>
			<point x="140" y="520" type="line" smooth="yes" name="sh01"/>
			<point x="140" y="155" name="sv03"/>
			<point x="115" y="105"/>
			<point x="40" y="105" type="curve" smooth="yes" name="sv02"/>
			<point x="33" y="105" name="ih02"/>
			<point x="28" y="105" name="ih03"/>
			<point x="25" y="106" type="curve" name="hr01"/>
			<point x="25" y="-8" type="line"/>
			<point x="36" y="-11"/>
			<point x="49" y="-11"/>
		</contour>
		<contour>
			<point x="620" y="104" type="line"/>
			<point x="620" y="332" type="line"/>
			<point x="735" y="332" type="line" smooth="yes"/>
			<point x="861" y="332"/>
			<point x="900" y="293"/>
			<point x="900" y="218" type="curve" smooth="yes"/>
			<point x="900" y="143"/>
			<point x="861" y="104"/>
			<point x="735" y="104" type="curve" smooth="yes"/>
		</contour>
	</outline>
</glyph>
<glyph name="uni040A" format="2">
	<advance width="1100" height="0"/>
	<unicode hex="040A"/>
	<outline>
		<contour>
			<point x="90" y="0" type="line"/>
			<point x="210" y="0" type="line" name="ab02"/>
			<point x="210" y="318" type="line"/>
			<point x="540" y="318" type="line" name="sv02"/>
			<point x="540" y="0" type="line"/>
			<point x="790" y="0" type="line" smooth="yes" name="ab01"/>
			<point x="979" y="0"/>
			<point x="1060" y="80"/>
			<point x="1060" y="211" type="curve" smooth="yes" name="sv01"/>
			<point x="1060" y="342"/>
			<point x="979" y="422" name="at02"/>
			<point x="790" y="422" type="curve" smooth="yes" name="ih01"/>
			<point x="660" y="422" type="line"/>
			<point x="660" y="700" type="line"/>
			<point x="540" y="700" type="line" name="at01"/>
			<point x="540" y="422" type="line"/>
			<point x="210" y="422" type="line" name="sh01"/>
			<point x="210" y="700" type="line" name="sv04"/>
			<point x="90" y="700" type="line"/>
		</contour>
		<contour>
			<point x="660" y="104" type="line" name="sv03"/>
			<point x="660" y="318" type="line" name="ih02"/>
			<point x="780" y="318" type="line" smooth="yes" name="ih03"/>
			<point x="904" y="318"/>
			<point x="940" y="280"/>
			<point x="940" y="211" type="curve" smooth="yes"/>
			<point x="940" y="142"/>
			<point x="904" y="104"/>
			<point x="780" y="104" type="curve" smooth="yes"/>
		</contour>
	</outline>
</glyph>
<glyph name="uni040B" format="2">
	<advance width="840" height="0"/>
	<unicode hex="040B"/>
	<outline>
		<contour>
			<point x="255" y="0" type="line"/>
			<point x="375" y="0" type="line"/>
			<point x="375" y="302" type="line"/>
			<point x="406" y="322"/>
			<point x="458" y="342"/>
			<point x="530" y="342" type="curve" smooth="yes"/>
			<point x="623" y="342"/>
			<point x="665" y="301"/>
			<point x="665" y="205" type="curve" smooth="yes"/>
			<point x="665" y="0" type="line"/>
			<point x="785" y="0" type="line"/>
			<point x="785" y="215" type="line" smooth="yes"/>
			<point x="785" y="376"/>
			<point x="712" y="448"/>
			<point x="555" y="448" type="curve" smooth="yes"/>
			<point x="475" y="448"/>
			<point x="410" y="427"/>
			<point x="375" y="406" type="curve"/>
			<point x="375" y="596" type="line"/>
			<point x="610" y="596" type="line"/>
			<point x="610" y="700" type="line"/>
			<point x="20" y="700" type="line"/>
			<point x="20" y="596" type="line"/>
			<point x="255" y="596" type="line"/>
		</contour>
	</outline>
</glyph>
<glyph name="uni0414" format="2">
	<advance width="740" height="0"/>
	<unicode hex="0414"/>
	<outline>
		<contour>
			<point x="20" y="-130" type="line"/>
			<point x="130" y="-130" type="line"/>
			<point x="130" y="0" type="line" name="hr01"/>
			<point x="600" y="0" type="line"/>
			<point x="600" y="-130" type="line" name="hr02"/>
			<point x="710" y="-130" type="line"/>
			<point x="710" y="104" type="line"/>
			<point x="629" y="104" type="line" name="hr03"/>
			<point x="629" y="700" type="line"/>
			<point x="155" y="700" type="line"/>
			<point x="155" y="550" type="line" smooth="yes"/>
			<point x="155" y="396"/>
			<point x="145" y="202"/>
			<point x="95" y="104" type="curve"/>
			<point x="20" y="104" type="line"/>
		</contour>
		<contour>
			<point x="217" y="104" type="line"/>
			<point x="252" y="205"/>
			<point x="271" y="338"/>
			<point x="271" y="530" type="curve" smooth="yes"/>
			<point x="271" y="596" type="line"/>
			<point x="509" y="596" type="line"/>
			<point x="509" y="104" type="line"/>
		</contour>
	</outline>
</glyph>
<glyph name="uni0416" format="2">
	<advance width="980" height="0"/>
	<unicode hex="0416"/>
	<anchor x="960" y="0" name="bottomright"/>
	<anchor x="490" y="700" name="top"/>
	<outline>
		<contour>
			<point x="25" y="0" type="line"/>
			<point x="159" y="0" type="line" name="ab03"/>
			<point x="370" y="313" type="line"/>
			<point x="430" y="313" type="line" name="sv04"/>
			<point x="430" y="0" type="line"/>
			<point x="550" y="0" type="line" name="ab02"/>
			<point x="550" y="313" type="line"/>
			<point x="610" y="313" type="line" name="sv01"/>
			<point x="819" y="0" type="line"/>
			<point x="955" y="0" type="line" name="ab01"/>
			<point x="705" y="368" type="line" name="iv02"/>
			<point x="945" y="700" type="line"/>
			<point x="819" y="700" type="line" name="at03"/>
			<point x="610" y="407" type="line" name="iv01"/>
			<point x="550" y="407" type="line"/>
			<point x="550" y="700" type="line"/>
			<point x="430" y="700" type="line" name="at02"/>
			<point x="430" y="407" type="line" name="ih01"/>
			<point x="370" y="407" type="line" name="sv03"/>
			<point x="165" y="700" type="line"/>
			<point x="35" y="700" type="line" name="at01"/>
			<point x="275" y="364" type="line" name="sv02"/>
		</contour>
	</outline>
</glyph>
<glyph name="uni0417" format="2">
	<advance width="650" height="0"/>
	<unicode hex="0417"/>
	<anchor x="325" y="0" name="bottom"/>
	<anchor x="325" y="700" name="top"/>
	<outline>
		<contour>
			<point x="325" y="-11" type="curve" smooth="yes"/>
			<point x="510" y="-11"/>
			<point x="605" y="75" name="iv04"/>
			<point x="605" y="198" type="curve" smooth="yes"/>
			<point x="605" y="289" name="at01"/>
			<point x="551" y="345" name="iv03"/>
			<point x="466" y="365" type="curve"/>
			<point x="535" y="388" name="sv03"/>
			<point x="580" y="439" name="hr01"/>
			<point x="580" y="512" type="curve" smooth="yes" name="iv02"/>
			<point x="580" y="636"/>
			<point x="496" y="711"/>
			<point x="325" y="711" type="curve" smooth="yes" name="sv02"/>
			<point x="154" y="711"/>
			<point x="69" y="630" name="sv01"/>
			<point x="60" y="505" type="curve"/>
			<point x="186" y="505" type="line" name="iv01"/>
			<point x="193" y="569" name="ih01"/>
			<point x="236" y="605" name="ih02"/>
			<point x="325" y="605" type="curve" smooth="yes" name="ih03"/>
			<point x="416" y="605"/>
			<point x="454" y="567"/>
			<point x="454" y="507" type="curve" smooth="yes"/>
			<point x="454" y="446"/>
			<point x="410" y="408"/>
			<point x="325" y="408" type="curve" smooth="yes"/>
			<point x="240" y="408" type="line"/>
			<point x="240" y="312" type="line"/>
			<point x="325" y="312" type="line" smooth="yes"/>
			<point x="434" y="312"/>
			<point x="479" y="270" name="hr03"/>
			<point x="479" y="203" type="curve" smooth="yes" name="hr01"/>
			<point x="479" y="134"/>
			<point x="430" y="95"/>
			<point x="325" y="95" type="curve" smooth="yes"/>
			<point x="232" y="95"/>
			<point x="179" y="142"/>
			<point x="171" y="210" type="curve" name="hr02"/>
			<point x="45" y="210" type="line"/>
			<point x="53" y="78"/>
			<point x="150" y="-11"/>
		</contour>
	</outline>
</glyph>
<glyph name="uni041B" format="2">
	<advance width="720" height="0"/>
	<unicode hex="041B"/>
	<outline>
		<contour>
			<point x="60" y="-11" type="curve" smooth="yes"/>
			<point x="190" y="-11"/>
			<point x="256" y="64" name="ih01"/>
			<point x="256" y="500" type="curve" smooth="yes" name="sv01"/>
			<point x="256" y="596" type="line"/>
			<point x="510" y="596" type="line" name="ab01"/>
			<point x="510" y="0" type="line" name="hr01"/>
			<point x="630" y="0" type="line" name="at01"/>
			<point x="630" y="700" type="line"/>
			<point x="140" y="700" type="line" name="iv01"/>
			<point x="140" y="520" type="line" smooth="yes"/>
			<point x="140" y="155"/>
			<point x="115" y="105" name="ab02"/>
			<point x="40" y="105" type="curve" smooth="yes" name="hr01"/>
			<point x="33" y="105" name="ih02"/>
			<point x="28" y="105"/>
			<point x="25" y="106" type="curve"/>
			<point x="25" y="-8" type="line"/>
			<point x="36" y="-11"/>
			<point x="49" y="-11"/>
		</contour>
	</outline>
</glyph>
<glyph name="uni041F" format="2">
	<advance width="750" height="0"/>
	<unicode hex="041F"/>
	<anchor x="730" y="0" name="bottomright"/>
	<outline>
		<contour>
			<point x="90" y="0" type="line"/>
			<point x="210" y="0" type="line" name="ab02"/>
			<point x="210" y="596" type="line"/>
			<point x="540" y="596" type="line" name="sv01"/>
			<point x="540" y="0" type="line" name="ih01"/>
			<point x="660" y="0" type="line" name="ab01"/>
			<point x="660" y="700" type="line"/>
			<point x="90" y="700" type="line" name="at01"/>
		</contour>
	</outline>
</glyph>
<glyph name="uni0423" format="2">
	<advance width="680" height="0"/>
	<unicode hex="0423"/>
	<anchor x="340" y="700" name="top"/>
	<outline>
		<contour>
			<point x="205" y="-11" type="curve" smooth="yes"/>
			<point x="321" y="-11"/>
			<point x="368" y="35"/>
			<point x="419" y="148" type="curve" smooth="yes"/>
			<point x="665" y="700" type="line"/>
			<point x="541" y="700" type="line"/>
			<point x="366" y="295" type="line"/>
			<point x="155" y="700" type="line"/>
			<point x="15" y="700" type="line"/>
			<point x="303" y="166" type="line"/>
			<point x="281" y="109"/>
			<point x="259" y="95"/>
			<point x="205" y="95" type="curve" smooth="yes"/>
			<point x="190" y="95"/>
			<point x="176" y="97"/>
			<point x="165" y="98" type="curve"/>
			<point x="165" y="-9" type="line"/>
			<point x="176" y="-10"/>
			<point x="190" y="-11"/>
		</contour>
	</outline>
</glyph>
<glyph name="uni0426" format="2">
	<advance width="770" height="0"/>
	<unicode hex="0426"/>
	<outline>
		<contour>
			<point x="628" y="-130" type="line" name="hr03"/>
			<point x="740" y="-130" type="line" name="av01"/>
			<point x="740" y="104" type="line" name="sv02"/>
			<point x="650" y="104" type="line" name="hr01"/>
			<point x="650" y="700" type="line"/>
			<point x="530" y="700" type="line" name="at02"/>
			<point x="530" y="104" type="line" name="ih01"/>
			<point x="210" y="104" type="line" name="sv01"/>
			<point x="210" y="700" type="line"/>
			<point x="90" y="700" type="line" name="at01"/>
			<point x="90" y="0" type="line" name="hr02"/>
			<point x="628" y="0" type="line" name="hr03"/>
		</contour>
	</outline>
</glyph>
<glyph name="uni0427" format="2">
	<advance width="675" height="0"/>
	<unicode hex="0427"/>
	<anchor x="655" y="0" name="bottomright"/>
	<anchor x="338" y="700" name="top"/>
	<outline>
		<contour>
			<point x="465" y="0" type="line"/>
			<point x="585" y="0" type="line"/>
			<point x="585" y="700" type="line"/>
			<point x="465" y="700" type="line"/>
			<point x="465" y="398" type="line"/>
			<point x="434" y="378"/>
			<point x="382" y="358"/>
			<point x="310" y="358" type="curve" smooth="yes"/>
			<point x="217" y="358"/>
			<point x="175" y="399"/>
			<point x="175" y="495" type="curve" smooth="yes"/>
			<point x="175" y="700" type="line"/>
			<point x="55" y="700" type="line"/>
			<point x="55" y="485" type="line" smooth="yes"/>
			<point x="55" y="324"/>
			<point x="128" y="252"/>
			<point x="285" y="252" type="curve" smooth="yes"/>
			<point x="365" y="252"/>
			<point x="430" y="273"/>
			<point x="465" y="294" type="curve"/>
		</contour>
	</outline>
</glyph>
<glyph name="uni0428" format="2">
	<advance width="980" height="0"/>
	<unicode hex="0428"/>
	<outline>
		<contour>
			<point x="90" y="0" type="line"/>
			<point x="890" y="0" type="line" name="ab01"/>
			<point x="890" y="700" type="line"/>
			<point x="770" y="700" type="line" name="at03"/>
			<point x="770" y="104" type="line" name="sv03"/>
			<point x="550" y="104" type="line" name="sv02"/>
			<point x="550" y="700" type="line"/>
			<point x="430" y="700" type="line" name="at02"/>
			<point x="430" y="104" type="line" name="ih01"/>
			<point x="210" y="104" type="line" name="sv01"/>
			<point x="210" y="700" type="line"/>
			<point x="90" y="700" type="line" name="at01"/>
		</contour>
	</outline>
</glyph>
<glyph name="uni042F" format="2">
	<advance width="680" height="0"/>
	<unicode hex="042F"/>
	<anchor x="340" y="700" name="top"/>
	<outline>
		<contour>
			<point x="40" y="0" type="line"/>
			<point x="168" y="0" type="line" name="ab02"/>
			<point x="323" y="268" type="line"/>
			<point x="470" y="268" type="line" name="sv01"/>
			<point x="470" y="0" type="line"/>
			<point x="590" y="0" type="line" name="ab01"/>
			<point x="590" y="700" type="line"/>
			<point x="325" y="700" type="line" smooth="yes" name="sh01"/>
			<point x="150" y="700"/>
			<point x="60" y="610" name="sv02"/>
			<point x="60" y="482" type="curve" smooth="yes"/>
			<point x="60" y="386"/>
			<point x="112" y="313" name="sv03"/>
			<point x="216" y="282" type="curve" name="iv01"/>
		</contour>
		<contour>
			<point x="180" y="482" type="curve" smooth="yes" name="ih01"/>
			<point x="180" y="554"/>
			<point x="222" y="596" name="ih02"/>
			<point x="345" y="596" type="curve" smooth="yes" name="ih03"/>
			<point x="470" y="596" type="line"/>
			<point x="470" y="368" type="line"/>
			<point x="345" y="368" type="line" smooth="yes"/>
			<point x="222" y="368"/>
			<point x="180" y="410"/>
		</contour>
	</outline>
</glyph>
<glyph name="uni0434" format="2">
	<advance width="615" height="0"/>
	<unicode hex="0434"/>
	<outline>
		<contour>
			<point x="20" y="-125" type="line"/>
			<point x="122" y="-125" type="line" name="av02"/>
			<point x="122" y="0" type="line" name="hr01"/>
			<point x="488" y="0" type="line" name="ab01"/>
			<point x="488" y="-125" type="line" name="hr02"/>
			<point x="590" y="-125" type="line" name="av01"/>
			<point x="590" y="94" type="line" name="sv02"/>
			<point x="520" y="94" type="line" name="hr03"/>
			<point x="520" y="530" type="line"/>
			<point x="125" y="530" type="line" name="at01"/>
			<point x="125" y="380" type="line" smooth="yes"/>
			<point x="125" y="260"/>
			<point x="107" y="135" name="sv01"/>
			<point x="80" y="94" type="curve" name="sv05"/>
			<point x="20" y="94" type="line"/>
		</contour>
		<contour>
			<point x="192" y="94" type="line" name="ih01"/>
			<point x="220" y="158" name="sv04"/>
			<point x="231" y="257" name="sv03"/>
			<point x="231" y="360" type="curve" smooth="yes" name="ih02"/>
			<point x="231" y="436" type="line" name="ih03"/>
			<point x="410" y="436" type="line"/>
			<point x="410" y="94" type="line"/>
		</contour>
	</outline>
</glyph>
<glyph name="uni0436" format="2">
	<advance width="810" height="0"/>
	<unicode hex="0436"/>
	<anchor x="790" y="0" name="bottomright"/>
	<anchor x="405" y="530" name="top"/>
	<outline>
		<contour>
			<point x="20" y="0" type="line"/>
			<point x="150" y="0" type="line" name="ab03"/>
			<point x="300" y="223" type="line"/>
			<point x="350" y="223" type="line" name="sv04"/>
			<point x="350" y="0" type="line"/>
			<point x="460" y="0" type="line" name="ab02"/>
			<point x="460" y="223" type="line"/>
			<point x="510" y="223" type="line" name="sv01"/>
			<point x="666" y="0" type="line"/>
			<point x="790" y="0" type="line" name="ab01"/>
			<point x="590" y="278" type="line" name="iv02"/>
			<point x="780" y="530" type="line"/>
			<point x="666" y="530" type="line" name="at03"/>
			<point x="510" y="317" type="line" name="iv01"/>
			<point x="460" y="317" type="line"/>
			<point x="460" y="530" type="line"/>
			<point x="350" y="530" type="line" name="at02"/>
			<point x="350" y="317" type="line" name="ih01"/>
			<point x="300" y="317" type="line" name="sv03"/>
			<point x="156" y="530" type="line"/>
			<point x="30" y="530" type="line" name="at01"/>
			<point x="210" y="273" type="line" name="sv02"/>
		</contour>
	</outline>
</glyph>
<glyph name="uni0437" format="2">
	<advance width="535" height="0"/>
	<unicode hex="0437"/>
	<anchor x="268" y="0" name="bottom"/>
	<anchor x="268" y="530" name="top"/>
	<outline>
		<contour>
			<point x="265" y="-11" type="curve" smooth="yes"/>
			<point x="421" y="-11"/>
			<point x="495" y="60" name="iv05"/>
			<point x="495" y="152" type="curve" smooth="yes"/>
			<point x="495" y="209" name="at01"/>
			<point x="471" y="256" name="iv04"/>
			<point x="396" y="275" type="curve"/>
			<point x="452" y="295" name="sv02"/>
			<point x="475" y="335" name="hr01"/>
			<point x="475" y="386" type="curve" smooth="yes" name="iv02"/>
			<point x="475" y="478"/>
			<point x="410" y="541"/>
			<point x="265" y="541" type="curve" smooth="yes" name="iv03"/>
			<point x="129" y="541"/>
			<point x="52" y="476" name="sv01"/>
			<point x="45" y="375" type="curve"/>
			<point x="157" y="375" type="line" name="iv01"/>
			<point x="164" y="418" name="ih01"/>
			<point x="188" y="445" name="ih02"/>
			<point x="265" y="445" type="curve" smooth="yes" name="ih03"/>
			<point x="337" y="445"/>
			<point x="363" y="415"/>
			<point x="363" y="380" type="curve" smooth="yes"/>
			<point x="363" y="341"/>
			<point x="336" y="313"/>
			<point x="275" y="313" type="curve" smooth="yes"/>
			<point x="195" y="313" type="line"/>
			<point x="195" y="227" type="line"/>
			<point x="282" y="227" type="line" smooth="yes"/>
			<point x="357" y="227"/>
			<point x="383" y="202" name="hr03"/>
			<point x="383" y="162" type="curve" smooth="yes" name="hr01"/>
			<point x="383" y="118"/>
			<point x="354" y="85"/>
			<point x="263" y="85" type="curve" smooth="yes"/>
			<point x="187" y="85"/>
			<point x="154" y="112"/>
			<point x="147" y="160" type="curve" name="hr02"/>
			<point x="35" y="160" type="line"/>
			<point x="42" y="51"/>
			<point x="121" y="-11"/>
		</contour>
	</outline>
</glyph>
<glyph name="uni043A" format="2">
	<advance width="580" height="0"/>
	<unicode hex="043A"/>
	<anchor x="560" y="0" name="bottomright"/>
	<anchor x="302" y="530" name="top"/>
	<outline>
		<contour>
			<point x="70" y="0" type="line"/>
			<point x="180" y="0" type="line" name="ab02"/>
			<point x="180" y="225" type="line" name="sv01"/>
			<point x="240" y="225" type="line"/>
			<point x="426" y="0" type="line"/>
			<point x="560" y="0" type="line" name="ab01"/>
			<point x="325" y="277" type="line" name="ih01"/>
			<point x="550" y="530" type="line"/>
			<point x="426" y="530" type="line" name="at02"/>
			<point x="240" y="315" type="line"/>
			<point x="180" y="315" type="line" name="iv01"/>
			<point x="180" y="530" type="line"/>
			<point x="70" y="530" type="line" name="at01"/>
		</contour>
	</outline>
</glyph>
<glyph name="uni043F" format="2">
	<advance width="600" height="0"/>
	<unicode hex="043F"/>
	<anchor x="580" y="0" name="bottomright"/>
	<outline>
		<contour>
			<point x="70" y="0" type="line"/>
			<point x="180" y="0" type="line" name="ab02"/>
			<point x="180" y="436" type="line"/>
			<point x="420" y="436" type="line" name="sv01"/>
			<point x="420" y="0" type="line" name="ih01"/>
			<point x="530" y="0" type="line" name="ab01"/>
			<point x="530" y="530" type="line"/>
			<point x="70" y="530" type="line" name="at01"/>
		</contour>
	</outline>
</glyph>
<glyph name="uni0442" format="2">
	<advance width="500" height="0"/>
	<unicode hex="0442"/>
	<anchor x="480" y="0" name="bottomright"/>
	<outline>
		<contour>
			<point x="195" y="0" type="line"/>
			<point x="305" y="0" type="line" name="ab01"/>
			<point x="305" y="436" type="line" name="sv02"/>
			<point x="480" y="436" type="line" name="sv01"/>
			<point x="480" y="530" type="line"/>
			<point x="20" y="530" type="line" name="at01"/>
			<point x="20" y="436" type="line"/>
			<point x="195" y="436" type="line" name="ih01"/>
		</contour>
	</outline>
</glyph>
<glyph name="uni0444" format="2">
	<advance width="750" height="0"/>
	<unicode hex="0444"/>
	<outline>
		<contour>
			<point x="320" y="-200" type="line"/>
			<point x="430" y="-200" type="line" name="ab01"/>
			<point x="430" y="-11" type="line" name="ab02"/>
			<point x="613" y="-11"/>
			<point x="710" y="85"/>
			<point x="710" y="260" type="curve" smooth="yes" name="at03"/>
			<point x="710" y="280" type="line" smooth="yes"/>
			<point x="710" y="447" name="at01"/>
			<point x="613" y="541" name="at02"/>
			<point x="430" y="541" type="curve"/>
			<point x="430" y="700" type="line"/>
			<point x="320" y="700" type="line" name="sh01"/>
			<point x="320" y="541" type="line"/>
			<point x="136" y="541" name="sv01"/>
			<point x="40" y="447" name="ih01"/>
			<point x="40" y="280" type="curve" smooth="yes"/>
			<point x="40" y="260" type="line" smooth="yes"/>
			<point x="40" y="85" name="sv02"/>
			<point x="136" y="-11" name="sh02"/>
			<point x="320" y="-11" type="curve"/>
		</contour>
		<contour>
			<point x="598" y="260" type="line" smooth="yes" name="ih02"/>
			<point x="598" y="143" name="ih03"/>
			<point x="547" y="85"/>
			<point x="428" y="85" type="curve"/>
			<point x="428" y="445" type="line"/>
			<point x="547" y="445"/>
			<point x="598" y="391"/>
			<point x="598" y="280" type="curve" smooth="yes"/>
		</contour>
		<contour>
			<point x="152" y="281" type="line" smooth="yes"/>
			<point x="152" y="390"/>
			<point x="203" y="445"/>
			<point x="322" y="445" type="curve"/>
			<point x="322" y="85" type="line"/>
			<point x="205" y="85"/>
			<point x="152" y="143"/>
			<point x="152" y="260" type="curve" smooth="yes"/>
		</contour>
	</outline>
</glyph>
<glyph name="uni0446" format="2">
	<advance width="625" height="0"/>
	<unicode hex="0446"/>
	<outline>
		<contour>
			<point x="498" y="-125" type="line" name="hr03"/>
			<point x="600" y="-125" type="line" name="av01"/>
			<point x="600" y="94" type="line" name="sv02"/>
			<point x="520" y="94" type="line" name="hr01"/>
			<point x="520" y="530" type="line"/>
			<point x="410" y="530" type="line" name="at02"/>
			<point x="410" y="94" type="line" name="ih01"/>
			<point x="180" y="94" type="line" name="sv01"/>
			<point x="180" y="530" type="line"/>
			<point x="70" y="530" type="line" name="at01"/>
			<point x="70" y="0" type="line" name="hr02"/>
			<point x="498" y="0" type="line" name="hr03"/>
		</contour>
	</outline>
</glyph>
<glyph name="uni0447" format="2">
	<advance width="560" height="0"/>
	<unicode hex="0447"/>
	<anchor x="540" y="0" name="bottomright"/>
	<anchor x="280" y="530" name="top"/>
	<outline>
		<contour>
			<point x="380" y="0" type="line"/>
			<point x="490" y="0" type="line" name="ab01"/>
			<point x="490" y="530" type="line"/>
			<point x="380" y="530" type="line" name="at02"/>
			<point x="380" y="291" type="line"/>
			<point x="365" y="279" name="ih01"/>
			<point x="326" y="263"/>
			<point x="270" y="263" type="curve" smooth="yes"/>
			<point x="189" y="263" name="at01"/>
			<point x="160" y="290"/>
			<point x="160" y="370" type="curve" smooth="yes" name="sv01"/>
			<point x="160" y="530" type="line" name="iv01"/>
			<point x="50" y="530" type="line" name="ih02"/>
			<point x="50" y="355" type="line" smooth="yes" name="ih03"/>
			<point x="50" y="224"/>
			<point x="118" y="167"/>
			<point x="245" y="167" type="curve" smooth="yes"/>
			<point x="310" y="167"/>
			<point x="349" y="184"/>
			<point x="380" y="203" type="curve"/>
		</contour>
	</outline>
</glyph>
<glyph name="uni044A" format="2">
	<advance width="610" height="0"/>
	<unicode hex="044A"/>
	<outline>
		<contour>
			<point x="150" y="0" type="line"/>
			<point x="380" y="0" type="line" smooth="yes" name="ab01"/>
			<point x="519" y="0"/>
			<point x="580" y="65" name="iv01"/>
			<point x="580" y="172" type="curve" smooth="yes"/>
			<point x="580" y="285" name="ih01"/>
			<point x="516" y="344" name="at01"/>
			<point x="380" y="344" type="curve" smooth="yes"/>
			<point x="260" y="344" type="line" name="sv01"/>
			<point x="260" y="530" type="line"/>
			<point x="20" y="530" type="line" name="sh01"/>
			<point x="20" y="436" type="line" name="sv03"/>
			<point x="150" y="436" type="line" name="hr01"/>
		</contour>
		<contour>
			<point x="260" y="94" type="line" name="sv02"/>
			<point x="260" y="250" type="line" name="ih02"/>
			<point x="370" y="250" type="line" smooth="yes" name="ih03"/>
			<point x="443" y="250"/>
			<point x="470" y="224"/>
			<point x="470" y="172" type="curve" smooth="yes"/>
			<point x="470" y="120"/>
			<point x="443" y="94"/>
			<point x="370" y="94" type="curve" smooth="yes"/>
		</contour>
	</outline>
</glyph>
<glyph name="uni044D" format="2">
	<advance width="555" height="0"/>
	<unicode hex="044D"/>
	<anchor x="278" y="530" name="top"/>
	<outline>
		<contour>
			<point x="265" y="-11" type="curve" smooth="yes"/>
			<point x="412" y="-11"/>
			<point x="515" y="78"/>
			<point x="515" y="260" type="curve" smooth="yes" name="at01"/>
			<point x="515" y="280" type="line" smooth="yes" name="iv03"/>
			<point x="515" y="452"/>
			<point x="404" y="541" name="sv03"/>
			<point x="265" y="541" type="curve" smooth="yes" name="iv02"/>
			<point x="125" y="541"/>
			<point x="51" y="461"/>
			<point x="35" y="360" type="curve" name="sv02"/>
			<point x="147" y="360" type="line" name="sv01"/>
			<point x="160" y="409"/>
			<point x="190" y="445" name="iv01"/>
			<point x="265" y="445" type="curve" smooth="yes" name="ih01"/>
			<point x="334" y="445" name="ih02"/>
			<point x="390" y="405" name="ih03"/>
			<point x="401" y="316" type="curve"/>
			<point x="205" y="316" type="line"/>
			<point x="205" y="224" type="line"/>
			<point x="401" y="224" type="line"/>
			<point x="390" y="124"/>
			<point x="337" y="85"/>
			<point x="265" y="85" type="curve" smooth="yes"/>
			<point x="203" y="85"/>
			<point x="164" y="113"/>
			<point x="147" y="170" type="curve" name="hr01"/>
			<point x="35" y="170" type="line"/>
			<point x="55" y="58"/>
			<point x="141" y="-11"/>
		</contour>
	</outline>
</glyph>
<glyph name="uni044F" format="2">
	<advance width="575" height="0"/>
	<unicode hex="044F"/>
	<anchor x="288" y="530" name="top"/>
	<outline>
		<contour>
			<point x="35" y="0" type="line"/>
			<point x="163" y="0" type="line" name="ab02"/>
			<point x="281" y="188" type="line" name="ih01"/>
			<point x="395" y="188" type="line" name="sv01"/>
			<point x="395" y="0" type="line"/>
			<point x="505" y="0" type="line" name="ab01"/>
			<point x="505" y="530" type="line"/>
			<point x="265" y="530" type="line" smooth="yes" name="at01"/>
			<point x="124" y="530"/>
			<point x="55" y="463" name="sv02"/>
			<point x="55" y="359" type="curve" smooth="yes"/>
			<point x="55" y="282"/>
			<point x="93" y="225" name="sv03"/>
			<point x="173" y="201" type="curve" name="iv01"/>
		</contour>
		<contour>
			<point x="167" y="359" type="curve" smooth="yes" name="sh01"/>
			<point x="167" y="415"/>
			<point x="203" y="436" name="ih02"/>
			<point x="260" y="436" type="curve" smooth="yes" name="ih03"/>
			<point x="395" y="436" type="line"/>
			<point x="395" y="282" type="line"/>
			<point x="260" y="282" type="line" smooth="yes"/>
			<point x="203" y="282"/>
			<point x="167" y="303"/>
		</contour>
	</outline>
</glyph>
<glyph name="uni045A" format="2">
	<advance width="880" height="0"/>
	<unicode hex="045A"/>
	<outline>
		<contour>
			<point x="70" y="0" type="line"/>
			<point x="180" y="0" type="line" name="ab02"/>
			<point x="180" y="238" type="line" name="sv01"/>
			<point x="420" y="238" type="line"/>
			<point x="420" y="0" type="line"/>
			<point x="660" y="0" type="line" smooth="yes" name="ab01"/>
			<point x="789" y="0"/>
			<point x="850" y="66"/>
			<point x="850" y="166" type="curve" smooth="yes" name="iv02"/>
			<point x="850" y="273"/>
			<point x="785" y="332" name="at02"/>
			<point x="660" y="332" type="curve" smooth="yes" name="ih01"/>
			<point x="530" y="332" type="line" name="iv01"/>
			<point x="530" y="530" type="line"/>
			<point x="420" y="530" type="line" name="at01"/>
			<point x="420" y="332" type="line"/>
			<point x="180" y="332" type="line" name="sh01"/>
			<point x="180" y="530" type="line"/>
			<point x="70" y="530" type="line"/>
		</contour>
		<contour>
			<point x="530" y="94" type="line" name="sv02"/>
			<point x="530" y="238" type="line" name="ih02"/>
			<point x="650" y="238" type="line" smooth="yes" name="ih03"/>
			<point x="711" y="238"/>
			<point x="738" y="211"/>
			<point x="738" y="166" type="curve" smooth="yes"/>
			<point x="738" y="119"/>
			<point x="711" y="94"/>
			<point x="650" y="94" type="curve" smooth="yes"/>
		</contour>
	</outline>
</glyph>
<glyph name="uni0492" format="2">
	<advance width="570" height="0"/>
	<unicode hex="0492"/>
	<guideline y="354"/>
	<outline>
		<contour>
			<point x="100" y="409" type="line"/>
			<point x="20" y="409" type="line" name="sv03"/>
			<point x="20" y="305" type="line"/>
			<point x="100" y="305" type="line" name="sv02"/>
			<point x="100" y="0" type="line"/>
			<point x="220" y="0" type="line" name="ab01"/>
			<point x="220" y="305" type="line"/>
			<point x="407" y="305" type="line" name="sv01"/>
			<point x="407" y="409" type="line" name="iv01"/>
			<point x="220" y="409" type="line"/>
			<point x="220" y="596" type="line" name="ih01"/>
			<point x="550" y="596" type="line"/>
			<point x="550" y="700" type="line"/>
			<point x="100" y="700" type="line" name="at01"/>
		</contour>
	</outline>
</glyph>
<glyph name="uni0496" format="2">
	<advance width="998" height="0"/>
	<unicode hex="0496"/>
	<outline>
		<contour>
			<point x="969" y="-130" type="line" name="hr02"/>
			<point x="969" y="104" type="line"/>
			<point x="885" y="104" type="line" name="sv05"/>
			<point x="708" y="369" type="line" name="iv02"/>
			<point x="945" y="700" type="line"/>
			<point x="816" y="700" type="line" name="at03"/>
			<point x="612" y="407" type="line" name="iv01"/>
			<point x="552" y="407" type="line"/>
			<point x="552" y="700" type="line"/>
			<point x="429" y="700" type="line" name="at02"/>
			<point x="429" y="407" type="line" name="hr01"/>
			<point x="369" y="407" type="line" name="sv04"/>
			<point x="168" y="700" type="line"/>
			<point x="35" y="700" type="line" name="at01"/>
			<point x="272" y="362" type="line" name="sv03"/>
			<point x="25" y="0" type="line" name="hr01"/>
			<point x="160" y="0" type="line" name="ab03"/>
			<point x="369" y="313" type="line"/>
			<point x="429" y="313" type="line" name="sv02"/>
			<point x="429" y="0" type="line"/>
			<point x="552" y="0" type="line" name="ab02"/>
			<point x="552" y="313" type="line" name="ih01"/>
			<point x="612" y="313" type="line" name="sv01"/>
			<point x="816" y="0" type="line"/>
			<point x="857" y="0" type="line" name="ab01"/>
			<point x="857" y="-130" type="line" name="av01"/>
		</contour>
	</outline>
</glyph>
<glyph name="uni049A" format="2">
	<advance width="729" height="0"/>
	<unicode hex="049A"/>
	<guideline y="0"/>
	<outline>
		<contour>
			<point x="701" y="-130" type="line" name="hr02"/>
			<point x="701" y="104" type="line"/>
			<point x="593" y="104" type="line" name="sv02"/>
			<point x="375" y="367" type="line" name="ih01"/>
			<point x="670" y="700" type="line"/>
			<point x="534" y="700" type="line" name="at02"/>
			<point x="280" y="407" type="line" name="hr01"/>
			<point x="210" y="407" type="line"/>
			<point x="210" y="700" type="line"/>
			<point x="90" y="700" type="line" name="at01"/>
			<point x="90" y="0" type="line" name="hr01"/>
			<point x="210" y="0" type="line" name="ab02"/>
			<point x="210" y="313" type="line"/>
			<point x="280" y="313" type="line" name="sv01"/>
			<point x="534" y="0" type="line"/>
			<point x="589" y="0" type="line" name="ab01"/>
			<point x="589" y="-130" type="line" name="av01"/>
		</contour>
	</outline>
</glyph>
<glyph name="uni049B" format="2">
	<advance width="587" height="0"/>
	<unicode hex="049B"/>
	<guideline y="0"/>
	<outline>
		<contour>
			<point x="563" y="-125" type="line" name="hr02"/>
			<point x="563" y="94" type="line"/>
			<point x="480" y="94" type="line" name="sv02"/>
			<point x="325" y="277" type="line" name="ih01"/>
			<point x="550" y="530" type="line"/>
			<point x="426" y="530" type="line" name="at02"/>
			<point x="240" y="315" type="line" name="hr01"/>
			<point x="180" y="315" type="line"/>
			<point x="180" y="530" type="line"/>
			<point x="70" y="530" type="line" name="at01"/>
			<point x="70" y="0" type="line" name="hr01"/>
			<point x="180" y="0" type="line" name="ab02"/>
			<point x="180" y="225" type="line"/>
			<point x="240" y="225" type="line" name="sv01"/>
			<point x="426" y="0" type="line"/>
			<point x="464" y="0" type="line" name="ab01"/>
			<point x="464" y="-125" type="line" name="av01"/>
		</contour>
	</outline>
</glyph>
<glyph name="uni049C" format="2">
	<advance width="742" height="0"/>
	<unicode hex="049C"/>
	<outline>
		<contour>
			<point x="90" y="0" type="line"/>
			<point x="213" y="0" type="line" name="ab02"/>
			<point x="213" y="308" type="line"/>
			<point x="263" y="308" type="line" name="sv04"/>
			<point x="263" y="195" type="line"/>
			<point x="365" y="195" type="line" name="sv03"/>
			<point x="365" y="308" type="line"/>
			<point x="385" y="308" type="line" name="sv02"/>
			<point x="571" y="0" type="line"/>
			<point x="717" y="0" type="line" name="ab01"/>
			<point x="483" y="367" type="line" name="iv02"/>
			<point x="688" y="700" type="line"/>
			<point x="557" y="700" type="line" name="at02"/>
			<point x="385" y="404" type="line" name="iv01"/>
			<point x="365" y="404" type="line"/>
			<point x="365" y="523" type="line" name="ih01"/>
			<point x="263" y="523" type="line"/>
			<point x="263" y="404" type="line"/>
			<point x="213" y="404" type="line" name="sv01"/>
			<point x="213" y="700" type="line"/>
			<point x="90" y="700" type="line" name="at01"/>
		</contour>
	</outline>
</glyph>
<glyph name="uni049D" format="2">
	<advance width="624" height="0"/>
	<unicode hex="049D"/>
	<outline>
		<contour>
			<point x="70" y="0" type="line"/>
			<point x="181" y="0" type="line" name="ab02"/>
			<point x="181" y="225" type="line"/>
			<point x="219" y="225" type="line" name="sv03"/>
			<point x="219" y="128" type="line" name="sv05"/>
			<point x="313" y="128" type="line"/>
			<point x="313" y="225" type="line" name="sv04"/>
			<point x="328" y="225" type="line"/>
			<point x="474" y="0" type="line"/>
			<point x="604" y="0" type="line" name="ab01"/>
			<point x="418" y="276" type="line" name="iv02"/>
			<point x="584" y="530" type="line"/>
			<point x="462" y="530" type="line" name="at02"/>
			<point x="328" y="315" type="line"/>
			<point x="313" y="315" type="line" name="sv02"/>
			<point x="313" y="407" type="line" name="ih01"/>
			<point x="219" y="407" type="line" name="sv01"/>
			<point x="219" y="315" type="line" name="iv01"/>
			<point x="181" y="315" type="line"/>
			<point x="181" y="530" type="line"/>
			<point x="70" y="530" type="line" name="at01"/>
		</contour>
	</outline>
</glyph>
<glyph name="uni04A0" format="2">
	<advance width="798" height="0"/>
	<unicode hex="04A0"/>
	<guideline y="651"/>
	<outline>
		<contour>
			<point x="20" y="602" type="line"/>
			<point x="176" y="602" type="line" name="sv02"/>
			<point x="176" y="0" type="line"/>
			<point x="296" y="0" type="line" name="ab02"/>
			<point x="296" y="313" type="line"/>
			<point x="366" y="313" type="line" name="sv01"/>
			<point x="620" y="0" type="line"/>
			<point x="766" y="0" type="line" name="ab01"/>
			<point x="461" y="367" type="line" name="iv01"/>
			<point x="756" y="700" type="line"/>
			<point x="620" y="700" type="line" name="at02"/>
			<point x="366" y="407" type="line" name="ih01"/>
			<point x="296" y="407" type="line"/>
			<point x="296" y="700" type="line"/>
			<point x="20" y="700" type="line" name="at01"/>
		</contour>
	</outline>
</glyph>
<glyph name="uni04A1" format="2">
	<advance width="657" height="0"/>
	<unicode hex="04A1"/>
	<outline>
		<contour>
			<point x="20" y="435" type="line" name="hr02"/>
			<point x="150" y="435" type="line" name="sv02"/>
			<point x="150" y="0" type="line"/>
			<point x="260" y="0" type="line" name="ab02"/>
			<point x="260" y="225" type="line"/>
			<point x="320" y="225" type="line" name="sv01"/>
			<point x="501" y="0" type="line"/>
			<point x="637" y="0" type="line" name="ab01"/>
			<point x="408" y="278" type="line" name="iv01"/>
			<point x="627" y="530" type="line"/>
			<point x="501" y="530" type="line" name="at02"/>
			<point x="320" y="315" type="line" name="ih01"/>
			<point x="260" y="315" type="line"/>
			<point x="260" y="530" type="line" name="hr01"/>
			<point x="20" y="530" type="line" name="at01"/>
		</contour>
	</outline>
</glyph>
<glyph name="uni04A2" format="2">
	<advance width="779" height="0"/>
	<unicode hex="04A2"/>
	<outline>
		<contour>
			<point x="750" y="-130" type="line" name="hr04"/>
			<point x="750" y="104" type="line" name="hr03"/>
			<point x="670" y="104" type="line" name="sv02"/>
			<point x="670" y="700" type="line"/>
			<point x="547" y="700" type="line" name="at02"/>
			<point x="547" y="412" type="line" name="iv01"/>
			<point x="213" y="412" type="line" name="hr02"/>
			<point x="213" y="700" type="line"/>
			<point x="90" y="700" type="line" name="at01"/>
			<point x="90" y="0" type="line" name="hr02"/>
			<point x="213" y="0" type="line" name="ab02"/>
			<point x="213" y="308" type="line"/>
			<point x="547" y="308" type="line" name="sv01"/>
			<point x="547" y="0" type="line" name="hr01"/>
			<point x="638" y="0" type="line" name="ab01"/>
			<point x="638" y="-130" type="line" name="av01"/>
		</contour>
	</outline>
</glyph>
<glyph name="uni04A4" format="2">
	<advance width="1017" height="0"/>
	<unicode hex="04A4"/>
	<guideline y="401"/>
	<guideline y="319"/>
	<outline>
		<contour>
			<point x="213" y="0" type="line"/>
			<point x="213" y="308" type="line"/>
			<point x="547" y="308" type="line" name="sv02"/>
			<point x="547" y="0" type="line"/>
			<point x="670" y="0" type="line" name="ab02"/>
			<point x="670" y="596" type="line" name="sv01"/>
			<point x="997" y="596" type="line"/>
			<point x="997" y="700" type="line"/>
			<point x="547" y="700" type="line" name="at02"/>
			<point x="547" y="412" type="line" name="ih01"/>
			<point x="213" y="412" type="line"/>
			<point x="213" y="700" type="line" name="at01"/>
			<point x="90" y="700" type="line"/>
			<point x="90" y="0" type="line" name="ab01"/>
		</contour>
	</outline>
</glyph>
<glyph name="uni04A5" format="2">
	<advance width="820" height="0"/>
	<unicode hex="04A5"/>
	<outline>
		<contour>
			<point x="430" y="0" type="line"/>
			<point x="540" y="0" type="line" name="ab02"/>
			<point x="540" y="436" type="line"/>
			<point x="800" y="436" type="line" name="sv01"/>
			<point x="800" y="530" type="line"/>
			<point x="430" y="530" type="line" name="at02"/>
			<point x="430" y="317" type="line" name="iv01"/>
			<point x="180" y="317" type="line"/>
			<point x="180" y="530" type="line"/>
			<point x="70" y="530" type="line" name="at01"/>
			<point x="70" y="0" type="line"/>
			<point x="180" y="0" type="line" name="ab01"/>
			<point x="180" y="223" type="line"/>
			<point x="430" y="223" type="line" name="ih01"/>
		</contour>
	</outline>
</glyph>
<glyph name="uni04AA" format="2">
	<advance width="690" height="0"/>
	<unicode hex="04AA"/>
	<outline>
		<contour>
			<point x="420" y="-130" type="line"/>
			<point x="420" y="-7" type="line" name="sv03"/>
			<point x="436" y="-5"/>
			<point x="451" y="-2"/>
			<point x="466" y="2" type="curve" smooth="yes" name="iv02"/>
			<point x="564" y="28" name="sv02"/>
			<point x="633" y="96"/>
			<point x="645" y="220" type="curve"/>
			<point x="519" y="220" type="line" name="sv01"/>
			<point x="508" y="143" name="iv01"/>
			<point x="456" y="95"/>
			<point x="360" y="95" type="curve" smooth="yes" name="ih01"/>
			<point x="278" y="95"/>
			<point x="181" y="153"/>
			<point x="181" y="345" type="curve" smooth="yes"/>
			<point x="181" y="365" type="line" smooth="yes" name="ab01"/>
			<point x="181" y="546" name="av01"/>
			<point x="272" y="605" name="ih02"/>
			<point x="360" y="605" type="curve" smooth="yes" name="ih03"/>
			<point x="441" y="605"/>
			<point x="502" y="567"/>
			<point x="519" y="480" type="curve" name="hr01"/>
			<point x="645" y="480" type="line"/>
			<point x="632" y="634"/>
			<point x="515" y="711"/>
			<point x="360" y="711" type="curve" smooth="yes"/>
			<point x="192" y="711"/>
			<point x="55" y="608"/>
			<point x="55" y="365" type="curve" smooth="yes"/>
			<point x="55" y="345" type="line" smooth="yes"/>
			<point x="55" y="156"/>
			<point x="130" y="49"/>
			<point x="239" y="9" type="curve"/>
			<point x="261" y="2"/>
			<point x="284" y="-4"/>
			<point x="308" y="-7" type="curve"/>
			<point x="308" y="-130" type="line"/>
		</contour>
	</outline>
</glyph>
<glyph name="uni04AE" format="2">
	<advance width="660" height="0"/>
	<unicode hex="04AE"/>
	<outline>
		<contour>
			<point x="401" y="0" type="line"/>
			<point x="401" y="272" type="line"/>
			<point x="650" y="700" type="line"/>
			<point x="518" y="700" type="line" name="at02"/>
			<point x="341" y="396" type="line" name="ih01"/>
			<point x="151" y="700" type="line"/>
			<point x="10" y="700" type="line" name="at01"/>
			<point x="279" y="272" type="line"/>
			<point x="279" y="0" type="line" name="ab01"/>
		</contour>
	</outline>
</glyph>
<glyph name="uni04AF" format="2">
	<advance width="573" height="0"/>
	<unicode hex="04AF"/>
	<outline>
		<contour>
			<point x="352" y="-229" type="line"/>
			<point x="352" y="-8" type="line" name="sv01"/>
			<point x="557" y="530" type="line"/>
			<point x="443" y="530" type="line" name="at02"/>
			<point x="298" y="119" type="line" name="ih01"/>
			<point x="139" y="530" type="line"/>
			<point x="17" y="530" type="line" name="at01"/>
			<point x="242" y="-10" type="line" name="ab01"/>
			<point x="242" y="-229" type="line" name="av01"/>
		</contour>
	</outline>
</glyph>
<glyph name="uni04B0" format="2">
	<advance width="633" height="0"/>
	<unicode hex="04B0"/>
	<guideline y="219"/>
	<outline>
		<contour>
			<point x="269" y="0" type="line"/>
			<point x="391" y="0" type="line" name="ab01"/>
			<point x="391" y="196" type="line"/>
			<point x="521" y="196" type="line" name="sv03"/>
			<point x="521" y="300" type="line"/>
			<point x="394" y="300" type="line" name="sv02"/>
			<point x="623" y="700" type="line"/>
			<point x="491" y="700" type="line" name="at02"/>
			<point x="331" y="413" type="line" name="ih01"/>
			<point x="158" y="700" type="line"/>
			<point x="17" y="700" type="line" name="at01"/>
			<point x="266" y="300" type="line" name="iv01"/>
			<point x="131" y="300" type="line"/>
			<point x="131" y="196" type="line"/>
			<point x="269" y="196" type="line" name="sv01"/>
		</contour>
	</outline>
</glyph>
<glyph name="uni04B2" format="2">
	<advance width="703" height="0"/>
	<unicode hex="04B2"/>
	<guideline y="0"/>
	<outline>
		<contour>
			<point x="674" y="-130" type="line" name="hr02"/>
			<point x="674" y="104" type="line"/>
			<point x="584" y="104" type="line" name="sv01"/>
			<point x="412" y="368" type="line"/>
			<point x="642" y="700" type="line"/>
			<point x="510" y="700" type="line" name="hr01"/>
			<point x="338" y="455" type="line" name="ih01"/>
			<point x="168" y="700" type="line"/>
			<point x="32" y="700" type="line" name="at01"/>
			<point x="263" y="366" type="line"/>
			<point x="22" y="0" type="line" name="hr01"/>
			<point x="156" y="0" type="line" name="ab02"/>
			<point x="336" y="280" type="line" name="iv01"/>
			<point x="514" y="0" type="line"/>
			<point x="562" y="0" type="line" name="ab01"/>
			<point x="562" y="-130" type="line" name="av01"/>
		</contour>
	</outline>
</glyph>
<glyph name="uni04B3" format="2">
	<advance width="579" height="0"/>
	<unicode hex="04B3"/>
	<guideline y="0"/>
	<outline>
		<contour>
			<point x="556" y="-125" type="line" name="hr02"/>
			<point x="556" y="94" type="line"/>
			<point x="476" y="94" type="line" name="sv01"/>
			<point x="351" y="280" type="line"/>
			<point x="530" y="530" type="line"/>
			<point x="410" y="530" type="line" name="hr01"/>
			<point x="283" y="352" type="line" name="ih01"/>
			<point x="154" y="530" type="line"/>
			<point x="30" y="530" type="line" name="at01"/>
			<point x="211" y="276" type="line"/>
			<point x="20" y="0" type="line" name="hr01"/>
			<point x="142" y="0" type="line" name="ab02"/>
			<point x="279" y="206" type="line" name="iv01"/>
			<point x="414" y="0" type="line"/>
			<point x="456" y="0" type="line" name="ab01"/>
			<point x="456" y="-125" type="line" name="av01"/>
		</contour>
	</outline>
</glyph>
<glyph name="uni04B7" format="2">
	<advance width="592" height="0"/>
	<unicode hex="04B7"/>
	<guideline y="232"/>
	<outline>
		<contour>
			<point x="469" y="-125" type="line" name="hr04"/>
			<point x="568" y="-125" type="line"/>
			<point x="568" y="94" type="line"/>
			<point x="488" y="94" type="line" name="hr01"/>
			<point x="488" y="530" type="line"/>
			<point x="378" y="530" type="line"/>
			<point x="378" y="290" type="line"/>
			<point x="363" y="278"/>
			<point x="324" y="263"/>
			<point x="268" y="263" type="curve" smooth="yes" name="hr01"/>
			<point x="188" y="263"/>
			<point x="158" y="290"/>
			<point x="158" y="370" type="curve" smooth="yes"/>
			<point x="158" y="530" type="line"/>
			<point x="48" y="530" type="line"/>
			<point x="48" y="355" type="line" smooth="yes"/>
			<point x="48" y="220"/>
			<point x="115" y="167"/>
			<point x="243" y="167" type="curve" smooth="yes"/>
			<point x="308" y="167"/>
			<point x="347" y="184"/>
			<point x="378" y="203" type="curve"/>
			<point x="378" y="0" type="line" name="hr02"/>
			<point x="469" y="0" type="line" name="hr03"/>
		</contour>
	</outline>
</glyph>
<glyph name="uni04B8" format="2">
	<advance width="670" height="0"/>
	<unicode hex="04B8"/>
	<outline>
		<contour>
			<point x="580" y="0" type="line"/>
			<point x="580" y="700" type="line"/>
			<point x="457" y="700" type="line" name="at02"/>
			<point x="457" y="433" type="line"/>
			<point x="432" y="408" name="sv04"/>
			<point x="401" y="391"/>
			<point x="365" y="382" type="curve" name="sv03"/>
			<point x="365" y="507" type="line" name="iv01"/>
			<point x="263" y="507" type="line"/>
			<point x="263" y="379" type="line"/>
			<point x="187" y="391" name="at01"/>
			<point x="164" y="438"/>
			<point x="164" y="529" type="curve" smooth="yes" name="sv01"/>
			<point x="164" y="700" type="line" name="sv02"/>
			<point x="42" y="700" type="line"/>
			<point x="42" y="519" type="line" smooth="yes" name="ih01"/>
			<point x="42" y="363" name="iv02"/>
			<point x="102" y="278" name="ab01"/>
			<point x="263" y="275" type="curve" name="ih02"/>
			<point x="263" y="179" type="line" name="ih03"/>
			<point x="365" y="179" type="line"/>
			<point x="365" y="284" type="line"/>
			<point x="400" y="292"/>
			<point x="433" y="304"/>
			<point x="457" y="323" type="curve"/>
			<point x="457" y="0" type="line"/>
		</contour>
	</outline>
</glyph>
<glyph name="uni04B9" format="2">
	<advance width="582" height="0"/>
	<unicode hex="04B9"/>
	<guideline y="232"/>
	<outline>
		<contour>
			<point x="398" y="0" type="line"/>
			<point x="508" y="0" type="line" name="ab01"/>
			<point x="508" y="530" type="line"/>
			<point x="398" y="530" type="line" name="at02"/>
			<point x="398" y="317" type="line"/>
			<point x="387" y="309" name="sv04"/>
			<point x="360" y="299"/>
			<point x="325" y="294" type="curve" name="sv03"/>
			<point x="325" y="387" type="line" name="iv01"/>
			<point x="231" y="387" type="line"/>
			<point x="231" y="294" type="line"/>
			<point x="179" y="303" name="at01"/>
			<point x="158" y="332"/>
			<point x="158" y="397" type="curve" smooth="yes" name="sv01"/>
			<point x="158" y="530" type="line" name="sv02"/>
			<point x="48" y="530" type="line"/>
			<point x="48" y="382" type="line" smooth="yes" name="ih01"/>
			<point x="48" y="255" name="iv02"/>
			<point x="110" y="202" name="ih02"/>
			<point x="231" y="195" type="curve" name="ih03"/>
			<point x="231" y="109" type="line"/>
			<point x="325" y="109" type="line"/>
			<point x="325" y="203" type="line"/>
			<point x="356" y="210"/>
			<point x="379" y="219"/>
			<point x="398" y="230" type="curve"/>
		</contour>
	</outline>
</glyph>
<glyph name="uni04BA" format="2">
	<advance width="660" height="0"/>
	<unicode hex="04BA"/>
	<anchor x="640" y="0" name="bottomright"/>
	<outline>
		<contour>
			<point x="90" y="700" type="line"/>
			<point x="90" y="0" type="line"/>
			<point x="213" y="0" type="line"/>
			<point x="213" y="319" type="line"/>
			<point x="244" y="340"/>
			<point x="290" y="361"/>
			<point x="362" y="361" type="curve" smooth="yes"/>
			<point x="458" y="361"/>
			<point x="497" y="322"/>
			<point x="497" y="225" type="curve" smooth="yes"/>
			<point x="497" y="0" type="line"/>
			<point x="620" y="0" type="line"/>
			<point x="620" y="235" type="line" smooth="yes"/>
			<point x="620" y="396"/>
			<point x="548" y="467"/>
			<point x="395" y="467" type="curve" smooth="yes"/>
			<point x="310" y="467"/>
			<point x="248" y="445"/>
			<point x="213" y="422" type="curve"/>
			<point x="213" y="700" type="line"/>
		</contour>
	</outline>
</glyph>
<glyph name="uni04C3" format="2">
	<advance width="668" height="0"/>
	<unicode hex="04C3"/>
	<outline>
		<contour>
			<point x="90" y="0" type="line"/>
			<point x="213" y="0" type="line" name="ab01"/>
			<point x="213" y="308" type="line"/>
			<point x="344" y="308" type="line" smooth="yes" name="ih01"/>
			<point x="428" y="308"/>
			<point x="479" y="266"/>
			<point x="479" y="175" type="curve" smooth="yes"/>
			<point x="479" y="-5" type="line" smooth="yes" name="sv02"/>
			<point x="479" y="-80"/>
			<point x="454" y="-113" name="ab02"/>
			<point x="379" y="-113" type="curve" smooth="yes"/>
			<point x="348" y="-113" type="line"/>
			<point x="348" y="-209" type="line" name="sv01"/>
			<point x="392" y="-209" type="line" smooth="yes"/>
			<point x="543" y="-209" name="at02"/>
			<point x="599" y="-128" name="iv01"/>
			<point x="599" y="-8" type="curve" smooth="yes"/>
			<point x="599" y="197" type="line" smooth="yes"/>
			<point x="599" y="317" name="at01"/>
			<point x="522" y="383" name="ih02"/>
			<point x="429" y="399" type="curve" name="ih03"/>
			<point x="636" y="700" type="line"/>
			<point x="499" y="700" type="line"/>
			<point x="307" y="404" type="line"/>
			<point x="213" y="404" type="line"/>
			<point x="213" y="700" type="line"/>
			<point x="90" y="700" type="line"/>
		</contour>
	</outline>
</glyph>
<glyph name="uni04C4" format="2">
	<advance width="558" height="0"/>
	<unicode hex="04C4"/>
	<outline>
		<contour>
			<point x="295" y="-200" type="line"/>
			<point x="312" y="-204" name="ab01"/>
			<point x="331" y="-206"/>
			<point x="347" y="-206" type="curve" smooth="yes"/>
			<point x="454" y="-206" name="sv02"/>
			<point x="497" y="-148"/>
			<point x="497" y="-17" type="curve" smooth="yes" name="at02"/>
			<point x="497" y="123" type="line" smooth="yes" name="iv01"/>
			<point x="497" y="227"/>
			<point x="450" y="286"/>
			<point x="362" y="305" type="curve" name="at01"/>
			<point x="525" y="530" type="line"/>
			<point x="403" y="530" type="line" name="hr02"/>
			<point x="255" y="315" type="line"/>
			<point x="181" y="315" type="line" name="ih01"/>
			<point x="181" y="530" type="line" name="hr01"/>
			<point x="70" y="530" type="line"/>
			<point x="70" y="0" type="line" name="sv01"/>
			<point x="181" y="0" type="line"/>
			<point x="181" y="225" type="line" name="ih02"/>
			<point x="275" y="225" type="line" smooth="yes" name="ih03"/>
			<point x="346" y="225"/>
			<point x="386" y="190" name="hr01"/>
			<point x="386" y="110" type="curve" smooth="yes"/>
			<point x="386" y="5" type="line" smooth="yes"/>
			<point x="386" y="-79"/>
			<point x="370" y="-110"/>
			<point x="327" y="-110" type="curve" smooth="yes"/>
			<point x="316" y="-110"/>
			<point x="306" y="-109"/>
			<point x="295" y="-106" type="curve" name="hr02"/>
		</contour>
	</outline>
</glyph>
<glyph name="uni04C7" format="2">
	<advance width="760" height="0"/>
	<unicode hex="04C7"/>
	<outline>
		<contour>
			<point x="90" y="0" type="line"/>
			<point x="213" y="0" type="line" name="ab01"/>
			<point x="213" y="308" type="line"/>
			<point x="547" y="308" type="line" name="sv02"/>
			<point x="547" y="0" type="line" smooth="yes"/>
			<point x="547" y="-80"/>
			<point x="528" y="-109" name="sv01"/>
			<point x="465" y="-109" type="curve" smooth="yes" name="ih01"/>
			<point x="448" y="-109" type="line" name="ab02"/>
			<point x="448" y="-209" type="line"/>
			<point x="471" y="-209" type="line" smooth="yes" name="hr02"/>
			<point x="623" y="-209" name="at02"/>
			<point x="670" y="-139" name="iv01"/>
			<point x="670" y="0" type="curve" smooth="yes" name="hr01"/>
			<point x="670" y="700" type="line"/>
			<point x="547" y="700" type="line" name="at01"/>
			<point x="547" y="412" type="line" name="ih02"/>
			<point x="213" y="412" type="line" name="ih03"/>
			<point x="213" y="700" type="line"/>
			<point x="90" y="700" type="line"/>
		</contour>
	</outline>
</glyph>
<glyph name="uni04C8" format="2">
	<advance width="610" height="0"/>
	<unicode hex="04C8"/>
	<outline>
		<contour>
			<point x="70" y="0" type="line"/>
			<point x="180" y="0" type="line" name="ab01"/>
			<point x="180" y="223" type="line"/>
			<point x="430" y="223" type="line" name="sv02"/>
			<point x="430" y="5" type="line" smooth="yes"/>
			<point x="430" y="-79" name="sv01"/>
			<point x="414" y="-110"/>
			<point x="370" y="-110" type="curve" smooth="yes" name="ih01"/>
			<point x="361" y="-110" name="ab02"/>
			<point x="350" y="-109"/>
			<point x="338" y="-106" type="curve" name="hr01"/>
			<point x="338" y="-200" type="line" name="hr02"/>
			<point x="356" y="-204" name="iv01"/>
			<point x="374" y="-206"/>
			<point x="391" y="-206" type="curve" smooth="yes"/>
			<point x="496" y="-206" name="at01"/>
			<point x="540" y="-148" name="ih02"/>
			<point x="540" y="-17" type="curve" smooth="yes" name="hr01"/>
			<point x="540" y="530" type="line"/>
			<point x="430" y="530" type="line" name="hr02"/>
			<point x="430" y="317" type="line"/>
			<point x="180" y="317" type="line"/>
			<point x="180" y="530" type="line"/>
			<point x="70" y="530" type="line"/>
		</contour>
	</outline>
</glyph>
<glyph name="uni04CB" format="2">
	<advance width="675" height="0"/>
	<unicode hex="04CB"/>
	<outline>
		<contour>
			<point x="375" y="-130" type="line"/>
			<point x="487" y="-130" type="line"/>
			<point x="487" y="0" type="line" name="hr01"/>
			<point x="585" y="0" type="line" name="hr02"/>
			<point x="585" y="700" type="line"/>
			<point x="462" y="700" type="line"/>
			<point x="462" y="401" type="line"/>
			<point x="431" y="381"/>
			<point x="385" y="360"/>
			<point x="310" y="360" type="curve" smooth="yes" name="hr02"/>
			<point x="218" y="360"/>
			<point x="178" y="398"/>
			<point x="178" y="495" type="curve" smooth="yes"/>
			<point x="178" y="700" type="line"/>
			<point x="55" y="700" type="line"/>
			<point x="55" y="485" type="line" smooth="yes"/>
			<point x="55" y="324"/>
			<point x="126" y="254"/>
			<point x="285" y="254" type="curve" smooth="yes"/>
			<point x="365" y="254"/>
			<point x="427" y="275"/>
			<point x="462" y="298" type="curve" name="hr01"/>
			<point x="462" y="104" type="line" name="hr03"/>
			<point x="375" y="104" type="line" name="hr04"/>
		</contour>
	</outline>
</glyph>
<glyph name="uni04CC" format="2">
	<advance width="562" height="0"/>
	<unicode hex="04CC"/>
	<guideline y="232"/>
	<outline>
		<contour>
			<point x="310" y="-125" type="line"/>
			<point x="409" y="-125" type="line"/>
			<point x="409" y="0" type="line" name="hr01"/>
			<point x="488" y="0" type="line" name="hr02"/>
			<point x="488" y="530" type="line"/>
			<point x="378" y="530" type="line"/>
			<point x="378" y="297" type="line"/>
			<point x="363" y="284"/>
			<point x="324" y="270"/>
			<point x="268" y="270" type="curve" smooth="yes" name="hr02"/>
			<point x="188" y="270"/>
			<point x="158" y="296"/>
			<point x="158" y="377" type="curve" smooth="yes"/>
			<point x="158" y="530" type="line"/>
			<point x="48" y="530" type="line"/>
			<point x="48" y="362" type="line" smooth="yes"/>
			<point x="48" y="227"/>
			<point x="115" y="174"/>
			<point x="243" y="174" type="curve" smooth="yes"/>
			<point x="308" y="174"/>
			<point x="347" y="190"/>
			<point x="378" y="209" type="curve" name="hr01"/>
			<point x="378" y="89" type="line" name="hr03"/>
			<point x="310" y="89" type="line" name="hr04"/>
		</contour>
	</outline>
</glyph>
<glyph name="uni04D8" format="2">
	<advance width="715" height="0"/>
	<unicode hex="04D8"/>
	<guideline y="401"/>
	<guideline y="208"/>
	<anchor x="358" y="700" name="top"/>
	<outline>
		<contour>
			<point x="341" y="-11" type="curve" smooth="yes"/>
			<point x="517" y="-11"/>
			<point x="660" y="95"/>
			<point x="660" y="345" type="curve" smooth="yes" name="at01"/>
			<point x="660" y="365" type="line" smooth="yes"/>
			<point x="660" y="605" name="iv02"/>
			<point x="518" y="711" name="ih01"/>
			<point x="347" y="711" type="curve" smooth="yes" name="iv01"/>
			<point x="205" y="711"/>
			<point x="92" y="634"/>
			<point x="65" y="490" type="curve" name="ab01"/>
			<point x="194" y="490" type="line"/>
			<point x="218" y="571"/>
			<point x="277" y="605" name="sv01"/>
			<point x="349" y="605" type="curve" smooth="yes" name="sh01"/>
			<point x="439" y="605" name="ih02"/>
			<point x="522" y="552" name="ih03"/>
			<point x="530" y="402" type="curve"/>
			<point x="50" y="402" type="line"/>
			<point x="50" y="345" type="line" smooth="yes"/>
			<point x="50" y="95"/>
			<point x="165" y="-11"/>
		</contour>
		<contour>
			<point x="342" y="95" type="curve" smooth="yes"/>
			<point x="249" y="95"/>
			<point x="183" y="149"/>
			<point x="172" y="312" type="curve"/>
			<point x="530" y="312" type="line"/>
			<point x="519" y="153"/>
			<point x="439" y="95"/>
		</contour>
	</outline>
</glyph>
<glyph name="uni04E8" format="2">
	<advance width="757" height="0"/>
	<unicode hex="04E8"/>
	<anchor x="379" y="700" name="top"/>
	<outline>
		<contour>
			<point x="378" y="-11" type="curve" smooth="yes"/>
			<point x="549" y="-11"/>
			<point x="702" y="93"/>
			<point x="702" y="345" type="curve" smooth="yes" name="at01"/>
			<point x="702" y="365" type="line" smooth="yes"/>
			<point x="702" y="608"/>
			<point x="549" y="711" name="ih01"/>
			<point x="378" y="711" type="curve" smooth="yes"/>
			<point x="207" y="711"/>
			<point x="55" y="608" name="sv01"/>
			<point x="55" y="365" type="curve" smooth="yes" name="sh01"/>
			<point x="55" y="345" type="line" smooth="yes"/>
			<point x="55" y="93" name="iv01"/>
			<point x="207" y="-11"/>
		</contour>
		<contour>
			<point x="378" y="95" type="curve" smooth="yes" name="ih02"/>
			<point x="284" y="95" name="ih03"/>
			<point x="198" y="150"/>
			<point x="185" y="305" type="curve"/>
			<point x="571" y="305" type="line"/>
			<point x="558" y="150"/>
			<point x="472" y="95"/>
		</contour>
		<contour>
			<point x="378" y="605" type="curve" smooth="yes"/>
			<point x="471" y="605"/>
			<point x="558" y="549"/>
			<point x="571" y="405" type="curve"/>
			<point x="185" y="405" type="line"/>
			<point x="198" y="549"/>
			<point x="285" y="605"/>
		</contour>
	</outline>
</glyph>
<glyph name="uni04F9" format="2">
	<advance width="740"/>
	<unicode hex="04F9"/>
	<outline>
		<contour>
			<point x="70" y="0" type="line"/>
			<point x="280" y="0" type="line" smooth="yes"/>
			<point x="419" y="0"/>
			<point x="480" y="65"/>
			<point x="480" y="172" type="curve" smooth="yes"/>
			<point x="480" y="285"/>
			<point x="416" y="344"/>
			<point x="280" y="344" type="curve" smooth="yes"/>
			<point x="180" y="344" type="line"/>
			<point x="180" y="530" type="line"/>
			<point x="70" y="530" type="line"/>
		</contour>
		<contour>
			<point x="180" y="94" type="line"/>
			<point x="180" y="250" type="line"/>
			<point x="270" y="250" type="line" smooth="yes"/>
			<point x="343" y="250"/>
			<point x="370" y="224"/>
			<point x="370" y="172" type="curve" smooth="yes"/>
			<point x="370" y="120"/>
			<point x="343" y="94"/>
			<point x="270" y="94" type="curve" smooth="yes"/>
		</contour>
		<contour>
			<point x="550" y="0" type="line"/>
			<point x="660" y="0" type="line"/>
			<point x="660" y="530" type="line"/>
			<point x="550" y="530" type="line"/>
		</contour>
		<contour>
			<point x="264" y="594" type="curve" smooth="yes"/>
			<point x="303" y="594"/>
			<point x="330" y="621"/>
			<point x="330" y="660" type="curve" smooth="yes"/>
			<point x="330" y="699"/>
			<point x="303" y="726"/>
			<point x="264" y="726" type="curve" smooth="yes"/>
			<point x="225" y="726"/>
			<point x="198" y="699"/>
			<point x="198" y="660" type="curve" smooth="yes"/>
			<point x="198" y="621"/>
			<point x="225" y="594"/>
		</contour>
		<contour>
			<point x="472" y="594" type="curve" smooth="yes"/>
			<point x="511" y="594"/>
			<point x="538" y="621"/>
			<point x="538" y="660" type="curve" smooth="yes"/>
			<point x="538" y="699"/>
			<point x="511" y="726"/>
			<point x="472" y="726" type="curve" smooth="yes"/>
			<point x="433" y="726"/>
			<point x="406" y="699"/>
			<point x="406" y="660" type="curve" smooth="yes"/>
			<point x="406" y="621"/>
			<point x="433" y="594"/>
		</contour>
	</outline>
</glyph>
<glyph name="uni0513" format="2">
	<advance width="588" height="0"/>
	<unicode hex="0513"/>
	<guideline y="119"/>
	<outline>
		<contour>
			<point x="316" y="-200" type="line"/>
			<point x="334" y="-204" name="ab01"/>
			<point x="352" y="-206"/>
			<point x="369" y="-206" type="curve" smooth="yes"/>
			<point x="474" y="-206" name="at01"/>
			<point x="518" y="-148"/>
			<point x="518" y="-17" type="curve" smooth="yes" name="sv03"/>
			<point x="518" y="530" type="line"/>
			<point x="118" y="530" type="line"/>
			<point x="118" y="370" type="line" smooth="yes" name="ab02"/>
			<point x="118" y="155"/>
			<point x="93" y="94"/>
			<point x="38" y="94" type="curve" smooth="yes" name="sv02"/>
			<point x="30" y="94"/>
			<point x="25" y="94" name="sv01"/>
			<point x="23" y="95" type="curve" name="ih01"/>
			<point x="23" y="-8" type="line" name="ih02"/>
			<point x="34" y="-11" name="ih03"/>
			<point x="47" y="-11"/>
			<point x="58" y="-11" type="curve" smooth="yes"/>
			<point x="168" y="-11"/>
			<point x="225" y="66"/>
			<point x="225" y="350" type="curve" smooth="yes"/>
			<point x="225" y="436" type="line"/>
			<point x="408" y="436" type="line" name="hr01"/>
			<point x="408" y="5" type="line" smooth="yes"/>
			<point x="408" y="-79"/>
			<point x="392" y="-110"/>
			<point x="348" y="-110" type="curve" smooth="yes"/>
			<point x="339" y="-110"/>
			<point x="328" y="-109"/>
			<point x="316" y="-106" type="curve" name="hr02"/>
		</contour>
	</outline>
</glyph>
<glyph name="uni1E9E" format="2">
	<advance width="667" height="0"/>
	<unicode hex="1E9E"/>
	<anchor x="334" y="0" name="bottom"/>
	<anchor x="334" y="700" name="top"/>
	<outline>
		<contour>
			<point x="348" y="709" type="curve" smooth="yes"/>
			<point x="184" y="709"/>
			<point x="85" y="603"/>
			<point x="85" y="451" type="curve" smooth="yes" name="ab02"/>
			<point x="85" y="0" type="line"/>
			<point x="208" y="0" type="line" name="sv04"/>
			<point x="208" y="437" type="line" smooth="yes"/>
			<point x="208" y="546" name="sv03"/>
			<point x="256" y="604"/>
			<point x="356" y="604" type="curve" smooth="yes" name="sv02"/>
			<point x="433" y="604"/>
			<point x="474" y="563"/>
			<point x="479" y="507" type="curve" name="sv01"/>
			<point x="325" y="392" type="line" name="ih01"/>
			<point x="325" y="312" type="line" name="ab01"/>
			<point x="368" y="312" type="line" smooth="yes"/>
			<point x="461" y="312" name="iv01"/>
			<point x="500" y="276"/>
			<point x="500" y="208" type="curve" smooth="yes" name="at01"/>
			<point x="500" y="143" name="ih02"/>
			<point x="462" y="101" name="ih03"/>
			<point x="370" y="101" type="curve" smooth="yes"/>
			<point x="336" y="101" type="line"/>
			<point x="336" y="0" type="line"/>
			<point x="381" y="0" type="line" smooth="yes"/>
			<point x="538" y="0"/>
			<point x="622" y="79"/>
			<point x="622" y="204" type="curve" smooth="yes"/>
			<point x="622" y="301"/>
			<point x="581" y="372"/>
			<point x="457" y="385" type="curve"/>
			<point x="600" y="490" type="line"/>
			<point x="589" y="602"/>
			<point x="528" y="709"/>
		</contour>
	</outline>
</glyph>
<glyph name="figuredash" format="2">
	<advance width="590" height="0"/>
	<unicode hex="2012"/>
	<outline>
		<contour>
			<point x="53" y="308" type="line"/>
			<point x="537" y="308" type="line" name="sv01"/>
			<point x="537" y="412" type="line" name="av01"/>
			<point x="53" y="412" type="line" name="ih01"/>
		</contour>
	</outline>
</glyph>
<glyph name="dagger" format="2">
	<advance width="550" height="0"/>
	<unicode hex="2020"/>
	<outline>
		<contour>
			<point x="224" y="-200" type="line"/>
			<point x="326" y="-200" type="line" name="ab01"/>
			<point x="326" y="444" type="line" name="sv03"/>
			<point x="510" y="444" type="line" name="sv02"/>
			<point x="510" y="530" type="line"/>
			<point x="326" y="530" type="line" name="at03"/>
			<point x="326" y="700" type="line"/>
			<point x="224" y="700" type="line" name="at01"/>
			<point x="224" y="530" type="line"/>
			<point x="40" y="530" type="line" name="at02"/>
			<point x="40" y="444" type="line" name="sv01"/>
			<point x="224" y="444" type="line" name="ih01"/>
		</contour>
	</outline>
</glyph>
<glyph name="bullet" format="2">
	<advance width="400" height="0"/>
	<unicode hex="2022"/>
	<outline>
		<contour>
			<point x="200" y="145" type="curve" smooth="yes"/>
			<point x="273" y="145"/>
			<point x="330" y="202" name="sv01"/>
			<point x="330" y="275" type="curve" smooth="yes"/>
			<point x="330" y="348" name="ih01"/>
			<point x="273" y="405" name="ih02"/>
			<point x="200" y="405" type="curve" smooth="yes" name="ih03"/>
			<point x="127" y="405"/>
			<point x="70" y="348"/>
			<point x="70" y="275" type="curve" smooth="yes"/>
			<point x="70" y="202"/>
			<point x="127" y="145"/>
		</contour>
	</outline>
</glyph>
<glyph name="guilsinglright" format="2">
	<advance width="310" height="0"/>
	<unicode hex="203A"/>
	<outline>
		<contour>
			<point x="55" y="510" type="line" name="sv01"/>
			<point x="55" y="386" type="line"/>
			<point x="190" y="273" type="line" name="ih01"/>
			<point x="55" y="160" type="line"/>
			<point x="55" y="40" type="line" name="av01"/>
			<point x="275" y="229" type="line"/>
			<point x="275" y="321" type="line"/>
		</contour>
	</outline>
</glyph>
<glyph name="uni2074" format="2">
	<advance width="390" height="0"/>
	<unicode hex="2074"/>
	<outline>
		<contour>
			<point x="209" y="380" type="line"/>
			<point x="315" y="380" type="line" name="ab01"/>
			<point x="315" y="457" type="line"/>
			<point x="355" y="457" type="line" name="sv04"/>
			<point x="355" y="543" type="line"/>
			<point x="315" y="543" type="line" name="sv03"/>
			<point x="315" y="780" type="line"/>
			<point x="199" y="780" type="line" name="ih01"/>
			<point x="15" y="528" type="line" name="sv02"/>
			<point x="15" y="457" type="line"/>
			<point x="209" y="457" type="line" name="sv01"/>
		</contour>
		<contour>
			<point x="120" y="543" type="line"/>
			<point x="209" y="672" type="line" name="iv01"/>
			<point x="209" y="543" type="line" name="sh01"/>
		</contour>
	</outline>
</glyph>
<glyph name="uni20B4" format="2">
	<advance width="610" height="0"/>
	<unicode hex="20B4"/>
	<outline>
		<contour>
			<point x="50" y="389" type="line" name="sv04"/>
			<point x="560" y="389" type="line"/>
			<point x="560" y="483" type="line" name="sv03"/>
			<point x="486" y="483" type="line" name="sv02"/>
			<point x="501" y="510"/>
			<point x="505" y="530" name="at01"/>
			<point x="505" y="565" type="curve" smooth="yes" name="iv02"/>
			<point x="505" y="645"/>
			<point x="437" y="711" name="ih01"/>
			<point x="305" y="711" type="curve" smooth="yes"/>
			<point x="174" y="711"/>
			<point x="110" y="649" name="sv01"/>
			<point x="105" y="550" type="curve"/>
			<point x="221" y="550" type="line"/>
			<point x="228" y="585" name="iv03"/>
			<point x="249" y="605" name="sv07"/>
			<point x="305" y="605" type="curve" smooth="yes" name="hr01"/>
			<point x="368" y="605"/>
			<point x="389" y="578" name="sv06"/>
			<point x="389" y="545" type="curve" smooth="yes"/>
			<point x="389" y="522" name="iv01"/>
			<point x="383" y="504" name="sv05"/>
			<point x="364" y="483" type="curve"/>
			<point x="50" y="483" type="line"/>
		</contour>
		<contour>
			<point x="305" y="-11" type="curve" smooth="yes" name="sh01"/>
			<point x="452" y="-11" name="ih02"/>
			<point x="510" y="58" name="ih03"/>
			<point x="515" y="150" type="curve" name="hr02"/>
			<point x="389" y="150" type="line"/>
			<point x="384" y="115"/>
			<point x="361" y="95" name="hr03"/>
			<point x="305" y="95" type="curve" smooth="yes"/>
			<point x="238" y="95"/>
			<point x="221" y="118"/>
			<point x="221" y="155" type="curve" smooth="yes"/>
			<point x="221" y="182"/>
			<point x="231" y="206"/>
			<point x="256" y="233" type="curve"/>
			<point x="560" y="233" type="line"/>
			<point x="560" y="327" type="line"/>
			<point x="50" y="327" type="line"/>
			<point x="50" y="233" type="line"/>
			<point x="121" y="233" type="line"/>
			<point x="105" y="208"/>
			<point x="95" y="183"/>
			<point x="95" y="140" type="curve" smooth="yes"/>
			<point x="95" y="51"/>
			<point x="162" y="-11"/>
		</contour>
	</outline>
</glyph>
<glyph name="uni20B8" format="2">
	<advance width="630" height="0"/>
	<unicode hex="20B8"/>
	<outline>
		<contour>
			<point x="20" y="596" type="line" name="sv01"/>
			<point x="610" y="596" type="line"/>
			<point x="610" y="700" type="line"/>
			<point x="20" y="700" type="line" name="sh01"/>
		</contour>
		<contour>
			<point x="376" y="0" type="line"/>
			<point x="376" y="420" type="line"/>
			<point x="610" y="420" type="line" name="sv03"/>
			<point x="610" y="524" type="line"/>
			<point x="20" y="524" type="line" name="iv01"/>
			<point x="20" y="420" type="line" name="sv02"/>
			<point x="254" y="420" type="line"/>
			<point x="254" y="0" type="line" name="ih01"/>
		</contour>
	</outline>
</glyph>
<glyph name="uni20BD" format="2">
	<advance width="650" height="0"/>
	<unicode hex="20BD"/>
	<outline>
		<contour>
			<point x="115" y="0" type="line"/>
			<point x="235" y="0" type="line" name="ab01"/>
			<point x="235" y="98" type="line"/>
			<point x="465" y="98" type="line" name="sv05"/>
			<point x="465" y="192" type="line"/>
			<point x="235" y="192" type="line" name="sv04"/>
			<point x="235" y="254" type="line"/>
			<point x="350" y="254" type="line" smooth="yes" name="sv03"/>
			<point x="518" y="254"/>
			<point x="605" y="341" name="sh01"/>
			<point x="605" y="477" type="curve" smooth="yes" name="at01"/>
			<point x="605" y="613" name="iv01"/>
			<point x="518" y="700"/>
			<point x="350" y="700" type="curve" smooth="yes"/>
			<point x="115" y="700" type="line" name="sv02"/>
			<point x="115" y="358" type="line" name="iv02"/>
			<point x="25" y="358" type="line"/>
			<point x="25" y="254" type="line"/>
			<point x="115" y="254" type="line" name="sv01"/>
			<point x="115" y="192" type="line"/>
			<point x="25" y="192" type="line"/>
			<point x="25" y="98" type="line" name="sv06"/>
			<point x="115" y="98" type="line"/>
		</contour>
		<contour>
			<point x="235" y="358" type="line" name="ih01"/>
			<point x="235" y="596" type="line" name="ih02"/>
			<point x="340" y="596" type="line" smooth="yes" name="ih03"/>
			<point x="447" y="596"/>
			<point x="485" y="557"/>
			<point x="485" y="477" type="curve" smooth="yes"/>
			<point x="485" y="397"/>
			<point x="447" y="358"/>
			<point x="340" y="358" type="curve" smooth="yes"/>
		</contour>
	</outline>
</glyph>
<glyph name="uni2116" format="2">
	<advance width="1100" height="0"/>
	<unicode hex="2116"/>
	<outline>
		<contour>
			<point x="90" y="0" type="line"/>
			<point x="210" y="0" type="line"/>
			<point x="210" y="500" type="line"/>
			<point x="554" y="0" type="line"/>
			<point x="670" y="0" type="line"/>
			<point x="670" y="700" type="line"/>
			<point x="550" y="700" type="line"/>
			<point x="550" y="200" type="line"/>
			<point x="206" y="700" type="line"/>
			<point x="90" y="700" type="line"/>
		</contour>
		<contour>
			<point x="905" y="369" type="curve" smooth="yes"/>
			<point x="1003" y="369"/>
			<point x="1070" y="436"/>
			<point x="1070" y="535" type="curve" smooth="yes"/>
			<point x="1070" y="545" type="line" smooth="yes"/>
			<point x="1070" y="644"/>
			<point x="1003" y="711"/>
			<point x="905" y="711" type="curve" smooth="yes" name="hr01"/>
			<point x="806" y="711"/>
			<point x="740" y="644"/>
			<point x="740" y="545" type="curve" smooth="yes"/>
			<point x="740" y="535" type="line" smooth="yes"/>
			<point x="740" y="436"/>
			<point x="806" y="369"/>
		</contour>
		<contour>
			<point x="905" y="459" type="curve" smooth="yes"/>
			<point x="869" y="459"/>
			<point x="846" y="482"/>
			<point x="846" y="535" type="curve" smooth="yes"/>
			<point x="846" y="545" type="line" smooth="yes"/>
			<point x="846" y="598"/>
			<point x="869" y="621"/>
			<point x="905" y="621" type="curve" smooth="yes"/>
			<point x="941" y="621"/>
			<point x="964" y="598"/>
			<point x="964" y="545" type="curve" smooth="yes"/>
			<point x="964" y="535" type="line" smooth="yes"/>
			<point x="964" y="482"/>
			<point x="941" y="459"/>
		</contour>
		<contour>
			<point x="750" y="226" type="line"/>
			<point x="1060" y="226" type="line"/>
			<point x="1060" y="314" type="line"/>
			<point x="750" y="314" type="line"/>
		</contour>
	</outline>
</glyph>
<glyph name="trademark" format="2">
	<advance width="895" height="0"/>
	<unicode hex="2122"/>
	<outline>
		<contour>
			<point x="137" y="300" type="line"/>
			<point x="243" y="300" type="line" name="iv01"/>
			<point x="243" y="612" type="line" name="sv02"/>
			<point x="360" y="612" type="line"/>
			<point x="360" y="700" type="line" name="sh01"/>
			<point x="20" y="700" type="line" name="at01"/>
			<point x="20" y="612" type="line"/>
			<point x="137" y="612" type="line" name="sv01"/>
		</contour>
		<contour>
			<point x="425" y="300" type="line"/>
			<point x="521" y="300" type="line" name="sv04"/>
			<point x="521" y="563" type="line" name="iv04"/>
			<point x="617" y="385" type="line" name="iv02"/>
			<point x="673" y="385" type="line"/>
			<point x="769" y="563" type="line" name="sv08"/>
			<point x="769" y="300" type="line"/>
			<point x="865" y="300" type="line" name="sv07"/>
			<point x="865" y="700" type="line" name="sv06"/>
			<point x="759" y="700" type="line" name="sv05"/>
			<point x="646" y="489" type="line" name="iv03"/>
			<point x="533" y="700" type="line" name="sv03"/>
			<point x="425" y="700" type="line" name="ih01"/>
		</contour>
	</outline>
</glyph>
<glyph name="arrowleft" format="2">
	<advance width="750" height="0"/>
	<unicode hex="2190"/>
	<outline>
		<contour>
			<point x="314" y="50" type="line"/>
			<point x="460" y="50" type="line" name="sv02"/>
			<point x="212" y="298" type="line"/>
			<point x="725" y="298" type="line" name="sv01"/>
			<point x="725" y="402" type="line" name="av01"/>
			<point x="212" y="402" type="line"/>
			<point x="460" y="650" type="line"/>
			<point x="314" y="650" type="line" name="ih01"/>
			<point x="14" y="350" type="line"/>
		</contour>
	</outline>
</glyph>
<glyph name="arrowright" format="2">
	<advance width="750" height="0"/>
	<unicode hex="2192"/>
	<outline>
		<contour>
			<point x="290" y="50" type="line"/>
			<point x="436" y="50" type="line" name="sv03"/>
			<point x="736" y="350" type="line"/>
			<point x="436" y="650" type="line" name="ih01"/>
			<point x="290" y="650" type="line" name="sv02"/>
			<point x="538" y="402" type="line" name="av01"/>
			<point x="25" y="402" type="line"/>
			<point x="25" y="298" type="line"/>
			<point x="538" y="298" type="line" name="sv01"/>
		</contour>
	</outline>
</glyph>
<glyph name="uni2196" format="2">
	<advance width="800" height="0"/>
	<unicode hex="2196"/>
	<outline>
		<contour>
			<point x="597" y="50" type="line" name="iv01"/>
			<point x="675" y="128" type="line"/>
			<point x="257" y="546" type="line"/>
			<point x="597" y="546" type="line" name="sv01"/>
			<point x="493" y="650" type="line" name="ih01"/>
			<point x="75" y="650" type="line"/>
			<point x="75" y="232" type="line"/>
			<point x="179" y="128" type="line" name="iv03"/>
			<point x="179" y="468" type="line" name="iv02"/>
		</contour>
	</outline>
</glyph>
<glyph name="uni2198" format="2">
	<advance width="750" height="0"/>
	<unicode hex="2198"/>
	<outline>
		<contour>
			<point x="257" y="50" type="line" name="iv01"/>
			<point x="675" y="50" type="line"/>
			<point x="675" y="468" type="line"/>
			<point x="571" y="572" type="line" name="iv03"/>
			<point x="571" y="232" type="line" name="iv02"/>
			<point x="153" y="650" type="line" name="av01"/>
			<point x="75" y="572" type="line"/>
			<point x="493" y="154" type="line" name="ih01"/>
			<point x="153" y="154" type="line"/>
		</contour>
	</outline>
</glyph>
<glyph name="uni2199" format="2">
	<advance width="750" height="0"/>
	<unicode hex="2199"/>
	<outline>
		<contour>
			<point x="75" y="50" type="line"/>
			<point x="493" y="50" type="line" name="ih01"/>
			<point x="595" y="154" type="line" name="sv01"/>
			<point x="253" y="154" type="line"/>
			<point x="675" y="576" type="line"/>
			<point x="601" y="650" type="line" name="av01"/>
			<point x="179" y="228" type="line" name="iv02"/>
			<point x="179" y="572" type="line" name="iv01"/>
			<point x="75" y="468" type="line"/>
		</contour>
	</outline>
</glyph>
<glyph name="uni2206" format="2">
	<advance width="680" height="0"/>
	<unicode hex="2206"/>
	<outline>
		<contour>
			<point x="15" y="0" type="line"/>
			<point x="665" y="0" type="line" name="ab01"/>
			<point x="405" y="700" type="line"/>
			<point x="275" y="700" type="line" name="sh01"/>
		</contour>
		<contour>
			<point x="337" y="560" type="line" name="ih01"/>
			<point x="501" y="104" type="line"/>
			<point x="173" y="104" type="line" name="sv01"/>
		</contour>
	</outline>
</glyph>
<glyph name="minus" format="2">
	<advance width="560" height="0"/>
	<unicode hex="2212"/>
	<outline>
		<contour>
			<point x="45" y="308" type="line"/>
			<point x="515" y="308" type="line" name="sv01"/>
			<point x="515" y="412" type="line" name="av01"/>
			<point x="45" y="412" type="line" name="ih01"/>
		</contour>
	</outline>
</glyph>
<glyph name="uni2215" format="2">
	<advance width="560" height="0"/>
	<unicode hex="2215"/>
	<outline>
		<contour>
			<point x="55" y="0" type="line"/>
			<point x="169" y="0" type="line" name="ab01"/>
			<point x="505" y="700" type="line"/>
			<point x="391" y="700" type="line" name="ih01"/>
		</contour>
	</outline>
</glyph>
<glyph name="radical" format="2">
	<advance width="610" height="0"/>
	<unicode hex="221A"/>
	<outline>
		<contour>
			<point x="10" y="287" type="line" name="sv02"/>
			<point x="70" y="287" type="line"/>
			<point x="225" y="-100" type="line"/>
			<point x="345" y="-100" type="line" name="av01"/>
			<point x="527" y="696" type="line"/>
			<point x="600" y="696" type="line" name="sv01"/>
			<point x="600" y="800" type="line" name="av02"/>
			<point x="441" y="800" type="line"/>
			<point x="275" y="77" type="line" name="ih01"/>
			<point x="150" y="391" type="line"/>
			<point x="10" y="391" type="line" name="iv01"/>
		</contour>
	</outline>
</glyph>
